<svg width="773" height="585" viewBox="0 0 773 585" fill="none" xmlns="http://www.w3.org/2000/svg">
<circle cx="85.5594" cy="85.3607" r="85.3167" fill="white"/>
<circle cx="687.115" cy="85.3607" r="85.3167" fill="white"/>
<path d="M121.711 85.3612C121.711 65.3955 105.525 49.2101 85.5595 49.2101C65.5937 49.2101 49.4083 65.3955 49.4083 85.3612V243.703C49.4083 429.784 200.256 580.632 386.337 580.632C572.418 580.632 723.266 429.784 723.266 243.703V85.3612C723.266 65.3955 707.081 49.2101 687.115 49.2101C667.149 49.2101 650.964 65.3955 650.964 85.3612V243.703C650.964 389.853 532.486 508.33 386.337 508.33C240.188 508.33 121.711 389.853 121.711 243.703V85.3612Z" fill="white" stroke="black" stroke-width="7.23023" stroke-linecap="round"/>
</svg>
