<svg width="535" height="400" viewBox="0 0 535 400" fill="none" xmlns="http://www.w3.org/2000/svg">
<circle cx="59.5755" cy="59.5662" r="59.0047" fill="#F02972"/>
<circle cx="475.608" cy="59.5662" r="59.0047" fill="#F02972"/>
<path fill-rule="evenodd" clip-rule="evenodd" d="M59.5755 37.0645C72.0029 37.0645 82.0773 47.1388 82.0773 59.5662V169.075C82.0773 271.532 165.135 354.59 267.592 354.59C370.049 354.59 453.107 271.532 453.107 169.075V59.5662C453.107 47.1388 463.181 37.0645 475.608 37.0645C488.036 37.0645 498.11 47.1388 498.11 59.5662V169.075C498.11 296.387 394.904 399.593 267.592 399.593C140.28 399.593 37.0737 296.387 37.0737 169.075V59.5662C37.0737 47.1388 47.1481 37.0645 59.5755 37.0645Z" fill="#2E095C"/>
</svg>
