<svg width="1487" height="271" viewBox="0 0 1487 271" fill="none" xmlns="http://www.w3.org/2000/svg">
<path d="M105.119 270.918C85.9517 270.918 67.7806 268.429 50.6052 263.45C33.6786 258.223 19.8636 251.253 9.16009 242.541C3.43494 238.31 0.57237 232.336 0.57237 224.619C0.57237 219.392 2.06589 214.911 5.05292 211.177C8.28887 207.195 12.0227 205.203 16.2543 205.203C20.7348 205.203 25.8377 206.946 31.5628 210.431C42.2664 218.147 53.4677 223.748 65.167 227.233C76.8662 230.718 89.81 232.46 103.998 232.46C122.169 232.46 136.109 229.348 145.817 223.126C155.525 216.654 160.379 207.319 160.379 195.122C160.379 185.663 155.774 178.444 146.564 173.466C137.602 168.239 122.543 163.26 101.385 158.531C79.4798 153.801 61.6821 148.325 47.9915 142.102C34.3009 135.879 23.9708 127.914 17.0011 118.206C10.0313 108.498 6.54643 96.1766 6.54643 81.2415C6.54643 65.8085 10.9025 51.9934 19.6147 39.7964C28.3269 27.5993 40.3995 18.1404 55.8325 11.4196C71.5144 4.44982 89.0632 0.964952 108.479 0.964952C144.074 0.964952 173.074 10.4239 195.476 29.3418C198.712 32.0799 200.952 34.818 202.197 37.5561C203.691 40.0453 204.437 43.2813 204.437 47.264C204.437 52.4913 202.819 57.0963 199.583 61.079C196.596 64.8128 192.987 66.6797 188.755 66.6797C186.266 66.6797 183.902 66.3063 181.661 65.5595C179.67 64.8128 176.932 63.4437 173.447 61.4524C163.241 53.9848 153.284 48.5086 143.577 45.0237C134.118 41.2899 122.418 39.423 108.479 39.423C91.5524 39.423 78.1108 42.9079 68.154 49.8776C58.4461 56.5984 53.5922 66.0574 53.5922 78.2544C53.5922 88.4601 57.9483 96.3011 66.6605 101.777C75.3726 107.254 90.1833 112.356 111.093 117.086C133.246 122.064 151.169 127.665 164.859 133.888C178.799 139.862 189.378 147.578 196.596 157.037C204.064 166.496 207.798 178.32 207.798 192.508C207.798 207.941 203.442 221.632 194.729 233.58C186.266 245.279 174.194 254.489 158.512 261.21C143.079 267.682 125.281 270.918 105.119 270.918ZM480.251 2.45847C487.469 2.45847 493.195 4.69875 497.426 9.1793C501.658 13.4109 503.774 19.1361 503.774 26.3547V245.528C503.774 252.747 501.533 258.597 497.053 263.077C492.821 267.558 487.22 269.798 480.251 269.798C473.032 269.798 467.307 267.558 463.075 263.077C458.844 258.597 456.728 252.747 456.728 245.528V153.304H321.938V245.528C321.938 252.747 319.698 258.597 315.217 263.077C310.986 267.558 305.26 269.798 298.042 269.798C291.072 269.798 285.347 267.558 280.866 263.077C276.635 258.597 274.519 252.747 274.519 245.528V26.3547C274.519 19.1361 276.635 13.4109 280.866 9.1793C285.098 4.69875 290.823 2.45847 298.042 2.45847C305.26 2.45847 310.986 4.69875 315.217 9.1793C319.698 13.4109 321.938 19.1361 321.938 26.3547V114.472H456.728V26.3547C456.728 19.1361 458.844 13.4109 463.075 9.1793C467.307 4.69875 473.032 2.45847 480.251 2.45847ZM700.031 270.918C674.392 270.918 652.114 265.442 633.196 254.489C614.527 243.537 600.09 227.855 589.884 207.444C579.678 187.032 574.576 163.136 574.576 135.755C574.576 108.374 579.554 84.6019 589.511 64.4394C599.716 44.028 614.278 28.3461 633.196 17.3936C652.114 6.44118 674.392 0.964952 700.031 0.964952C725.67 0.964952 747.824 6.44118 766.492 17.3936C785.41 28.3461 799.848 44.028 809.804 64.4394C820.01 84.6019 825.113 108.374 825.113 135.755C825.113 163.136 820.01 187.032 809.804 207.444C799.599 227.855 785.037 243.537 766.119 254.489C747.45 265.442 725.421 270.918 700.031 270.918ZM700.031 232.46C724.176 232.46 742.97 224.121 756.411 207.444C770.102 190.766 776.947 166.87 776.947 135.755C776.947 104.64 770.102 80.8681 756.411 64.4394C742.97 47.7618 724.176 39.423 700.031 39.423C675.637 39.423 656.595 47.7618 642.904 64.4394C629.462 80.8681 622.742 104.64 622.742 135.755C622.742 166.87 629.462 190.766 642.904 207.444C656.595 224.121 675.637 232.46 700.031 232.46ZM920.062 269.798C912.843 269.798 906.994 267.682 902.513 263.45C898.282 258.97 896.166 252.996 896.166 245.528V27.1015C896.166 19.8828 898.157 14.2821 902.14 10.2994C906.372 6.31672 912.097 4.32536 919.315 4.32536H1011.17C1039.29 4.32536 1061.2 11.4196 1076.88 25.608C1092.56 39.5475 1100.4 59.2121 1100.4 84.6019C1100.4 109.992 1092.56 129.781 1076.88 143.969C1061.2 158.158 1039.29 165.252 1011.17 165.252H944.332V245.528C944.332 252.996 942.091 258.97 937.611 263.45C933.379 267.682 927.53 269.798 920.062 269.798ZM1005.19 128.287C1038.3 128.287 1054.85 113.85 1054.85 84.9752C1054.85 56.1006 1038.3 41.6633 1005.19 41.6633H944.332V128.287H1005.19ZM1188.95 269.798C1181.73 269.798 1175.89 267.558 1171.4 263.077C1167.17 258.597 1165.06 252.747 1165.06 245.528V26.3547C1165.06 19.1361 1167.17 13.4109 1171.4 9.1793C1175.89 4.69875 1181.73 2.45847 1188.95 2.45847C1196.42 2.45847 1202.27 4.69875 1206.5 9.1793C1210.98 13.4109 1213.22 19.1361 1213.22 26.3547V245.528C1213.22 252.747 1210.98 258.597 1206.5 263.077C1202.27 267.558 1196.42 269.798 1188.95 269.798ZM1383.58 270.918C1364.41 270.918 1346.24 268.429 1329.06 263.45C1312.14 258.223 1298.32 251.253 1287.62 242.541C1281.89 238.31 1279.03 232.336 1279.03 224.619C1279.03 219.392 1280.52 214.911 1283.51 211.177C1286.75 207.195 1290.48 205.203 1294.71 205.203C1299.19 205.203 1304.3 206.946 1310.02 210.431C1320.73 218.147 1331.93 223.748 1343.63 227.233C1355.32 230.718 1368.27 232.46 1382.46 232.46C1400.63 232.46 1414.57 229.348 1424.28 223.126C1433.98 216.654 1438.84 207.319 1438.84 195.122C1438.84 185.663 1434.23 178.444 1425.02 173.466C1416.06 168.239 1401 163.26 1379.84 158.531C1357.94 153.801 1340.14 148.325 1326.45 142.102C1312.76 135.879 1302.43 127.914 1295.46 118.206C1288.49 108.498 1285.01 96.1766 1285.01 81.2415C1285.01 65.8085 1289.36 51.9934 1298.07 39.7964C1306.79 27.5993 1318.86 18.1404 1334.29 11.4196C1349.97 4.44982 1367.52 0.964952 1386.94 0.964952C1422.53 0.964952 1451.53 10.4239 1473.93 29.3418C1477.17 32.0799 1479.41 34.818 1480.66 37.5561C1482.15 40.0453 1482.9 43.2813 1482.9 47.264C1482.9 52.4913 1481.28 57.0963 1478.04 61.079C1475.06 64.8128 1471.45 66.6797 1467.21 66.6797C1464.72 66.6797 1462.36 66.3063 1460.12 65.5595C1458.13 64.8128 1455.39 63.4437 1451.91 61.4524C1441.7 53.9848 1431.74 48.5086 1422.04 45.0237C1412.58 41.2899 1400.88 39.423 1386.94 39.423C1370.01 39.423 1356.57 42.9079 1346.61 49.8776C1336.9 56.5984 1332.05 66.0574 1332.05 78.2544C1332.05 88.4601 1336.41 96.3011 1345.12 101.777C1353.83 107.254 1368.64 112.356 1389.55 117.086C1411.71 122.064 1429.63 127.665 1443.32 133.888C1457.26 139.862 1467.84 147.578 1475.06 157.037C1482.52 166.496 1486.26 178.32 1486.26 192.508C1486.26 207.941 1481.9 221.632 1473.19 233.58C1464.72 245.279 1452.65 254.489 1436.97 261.21C1421.54 267.682 1403.74 270.918 1383.58 270.918Z" fill="#2E095C"/>
</svg>
