<?xml version="1.0" encoding="UTF-8"?>
<svg width="360px" height="62px" viewBox="0 0 360 62" version="1.1" xmlns="http://www.w3.org/2000/svg" xmlns:xlink="http://www.w3.org/1999/xlink">
    <g id="Logo" stroke="none" stroke-width="1" fill="none" fill-rule="evenodd">
        <g id="A" transform="translate(-157.000000, -164.000000)" fill="#FFFFFF" fill-rule="nonzero">
            <rect id="Rectangle" x="0" y="0" width="8840" height="6338" rx="200.016"></rect>
        </g>
        <g transform="translate(0.000000, -33.000000)">
            <rect id="Rectangle" fill="#FFFFFF" x="-8" y="-7" width="375" height="145"></rect>
            <g transform="translate(0.000000, 33.000000)">
                <ellipse id="Oval" fill="#F02972" fill-rule="nonzero" cx="9.07764615" cy="9.1457285" rx="9.07764615" ry="9.1457285"></ellipse>
                <ellipse id="Oval" fill="#F02972" fill-rule="nonzero" cx="73.0830308" cy="9.1457285" rx="9.07764615" ry="9.1457285"></ellipse>
                <path d="M9.0778,5.6579185 C10.9896462,5.6579185 12.5394923,7.2193885 12.5394923,9.1457285 L12.5394923,26.1194685 C12.5394923,42.0003035 25.3184154,54.8746035 41.0799538,54.8746035 C56.8430308,54.8746035 69.6214923,42.0003035 69.6214923,26.1194685 L69.6214923,9.1457285 C69.6214923,7.2193885 71.1707231,5.6579185 73.0830308,5.6579185 C74.9953385,5.6579185 76.5445692,7.2193885 76.5445692,9.1457285 L76.5445692,26.1194685 C76.5445692,45.8536035 60.6661077,61.8496035 41.0799538,61.8496035 C21.4938,61.8496035 5.61595385,45.8536035 5.61595385,26.1194685 L5.61595385,9.1457285 C5.61595385,7.2193885 7.1658,5.6579185 9.0778,5.6579185 Z" id="Path" fill="#2E095C"></path>
                <path d="M147.469185,50.4307535 C144.519954,50.4307535 141.724569,50.0448035 139.083031,49.2729035 C136.478415,48.4622535 134.352262,47.3819035 132.706108,46.0318535 C131.824569,45.3762035 131.384569,44.4493035 131.384569,43.2542535 C131.384569,42.4436035 131.615338,41.7492035 132.0738,41.1710535 C132.572262,40.5526035 133.146108,40.2441535 133.796877,40.2441535 C134.486108,40.2441535 135.272262,40.5138535 136.152262,41.0548035 C137.799954,42.2514035 139.523031,43.1194035 141.323031,43.6588035 C143.123031,44.1997535 145.1138,44.4694535 147.296877,44.4694535 C150.092262,44.4694535 152.236877,43.9874035 153.730723,43.0217535 C155.223031,42.0189035 155.970723,40.5727535 155.970723,38.6817535 C155.970723,37.2154535 155.261492,36.0963535 153.844569,35.3250735 C152.466108,34.5148885 150.149185,33.7432985 146.8938,33.0101485 C143.524569,32.2771535 140.786108,31.4283735 138.679954,30.4638085 C136.5738,29.4992435 134.984569,28.2645135 133.912262,26.7597735 C132.839954,25.2551885 132.304569,23.3452785 132.304569,21.0303535 C132.304569,18.6382385 132.9738,16.4969135 134.3138,14.6063785 C135.655338,12.7158435 137.512262,11.2496985 139.886108,10.2079435 C142.298415,9.1275935 144.998415,8.5874185 147.986108,8.5874185 C153.461492,8.5874185 157.923031,10.0535635 161.370723,12.9858535 C161.867646,13.4102435 162.212262,13.8346335 162.404569,14.2590235 C162.6338,14.6449735 162.749185,15.1465535 162.749185,15.7637635 C162.749185,16.5741035 162.499954,17.2878785 162.001492,17.9050885 C161.543031,18.4838585 160.987646,18.7732435 160.336877,18.7732435 C159.9538,18.7732435 159.589185,18.7154285 159.244569,18.5996435 C158.938415,18.4838585 158.516877,18.2716635 157.981492,17.9630585 C156.410723,16.8055185 154.878415,15.9567385 153.386108,15.4165635 C151.930723,14.8377935 150.130723,14.5484085 147.986108,14.5484085 C145.381492,14.5484085 143.3138,15.0885835 141.781492,16.1689335 C140.289185,17.2106885 139.541492,18.6768335 139.541492,20.5673685 C139.541492,22.1491435 140.212262,23.3644985 141.552262,24.2134335 C142.892262,25.0622135 145.170723,25.8531785 148.387646,26.5861735 C151.796877,27.3579185 154.5538,28.2259185 156.659954,29.1904835 C158.804569,30.1164535 160.432262,31.3125885 161.543031,32.7787335 C162.690723,34.2448785 163.266108,36.0777535 163.266108,38.2772035 C163.266108,40.6688535 162.595338,42.7908035 161.255338,44.6430535 C159.9538,46.4565535 158.095338,47.8841035 155.683031,48.9257035 C153.309185,49.9285535 150.570723,50.4307535 147.469185,50.4307535 Z" id="Path" fill="#2E095C" fill-rule="nonzero"></path>
                <path d="M205.181492,8.8189885 C206.292262,8.8189885 207.172262,9.1661885 207.824569,9.8607435 C208.475338,10.5165485 208.799954,11.4039235 208.799954,12.5228685 L208.799954,46.4953035 C208.799954,47.6144035 208.455338,48.5196035 207.766108,49.2155535 C207.115338,49.9099535 206.2538,50.2571535 205.181492,50.2571535 C204.070723,50.2571535 203.190723,49.9099535 202.539954,49.2155535 C201.887646,48.5196035 201.563031,47.6144035 201.563031,46.4953035 L201.563031,32.1999635 L180.826108,32.1999635 L180.826108,46.4953035 C180.826108,47.6144035 180.481492,48.5196035 179.792262,49.2155535 C179.141492,49.9099535 178.259954,50.2571535 177.149185,50.2571535 C176.076877,50.2571535 175.196877,49.9099535 174.507646,49.2155535 C173.855338,48.5196035 173.530723,47.6144035 173.530723,46.4953035 L173.530723,12.5228685 C173.530723,11.4039235 173.855338,10.5165485 174.507646,9.8607435 C175.158415,9.1661885 176.038415,8.8189885 177.149185,8.8189885 C178.259954,8.8189885 179.141492,9.1661885 179.792262,9.8607435 C180.481492,10.5165485 180.826108,11.4039235 180.826108,12.5228685 L180.826108,26.1811585 L201.563031,26.1811585 L201.563031,12.5228685 C201.563031,11.4039235 201.887646,10.5165485 202.539954,9.8607435 C203.190723,9.1661885 204.070723,8.8189885 205.181492,8.8189885 Z" id="Path" fill="#2E095C" fill-rule="nonzero"></path>
                <path d="M238.9938,50.4307535 C235.049185,50.4307535 231.621492,49.5813535 228.712262,47.8841035 C225.839954,46.1868535 223.618415,43.7549035 222.047646,40.5913535 C220.478415,37.4278035 219.6938,33.7239235 219.6938,29.4798685 C219.6938,25.2358135 220.458415,21.5511535 221.990723,18.4260435 C223.561492,15.2621835 225.801492,12.8314735 228.712262,11.1339135 C231.621492,9.4363535 235.049185,8.5874185 238.9938,8.5874185 C242.938415,8.5874185 246.346108,9.4363535 249.218415,11.1339135 C252.129185,12.8314735 254.350723,15.2621835 255.881492,18.4260435 C257.452262,21.5511535 258.236877,25.2358135 258.236877,29.4798685 C258.236877,33.7239235 257.452262,37.4278035 255.881492,40.5913535 C254.312262,43.7549035 252.072262,46.1868535 249.161492,47.8841035 C246.289185,49.5813535 242.899954,50.4307535 238.9938,50.4307535 Z M238.9938,44.4694535 C242.709185,44.4694535 245.599954,43.1767535 247.667646,40.5913535 C249.7738,38.0059535 250.827646,34.3026935 250.827646,29.4798685 C250.827646,24.6570435 249.7738,20.9723835 247.667646,18.4260435 C245.599954,15.8409535 242.709185,14.5484085 238.9938,14.5484085 C235.241492,14.5484085 232.310723,15.8409535 230.204569,18.4260435 C228.136877,20.9723835 227.103031,24.6570435 227.103031,29.4798685 C227.103031,34.3026935 228.136877,38.0059535 230.204569,40.5913535 C232.310723,43.1767535 235.241492,44.4694535 238.9938,44.4694535 Z" id="Shape" fill="#2E095C" fill-rule="nonzero"></path>
                <path d="M272.844569,50.2571535 C271.7338,50.2571535 270.8338,49.9285535 270.144569,49.2729035 C269.4938,48.5785035 269.169185,47.6516035 269.169185,46.4953035 L269.169185,12.6386535 C269.169185,11.5197085 269.475338,10.6517085 270.087646,10.0343435 C270.738415,9.4169785 271.619954,9.1083735 272.730723,9.1083735 L286.861492,9.1083735 C291.187646,9.1083735 294.558415,10.2079435 296.970723,12.4070835 C299.383031,14.5677835 300.589185,17.6157035 300.589185,21.5511535 C300.589185,25.4866035 299.383031,28.5538985 296.970723,30.7531935 C294.558415,32.9523335 291.187646,34.0519035 286.861492,34.0519035 L276.578415,34.0519035 L276.578415,46.4953035 C276.578415,47.6516035 276.2338,48.5785035 275.544569,49.2729035 C274.8938,49.9285535 273.9938,50.2571535 272.844569,50.2571535 Z M285.941492,28.3224835 C291.035338,28.3224835 293.581492,26.0845935 293.581492,21.6091235 C293.581492,17.1334985 291.035338,14.8957635 285.941492,14.8957635 L276.578415,14.8957635 L276.578415,28.3224835 L285.941492,28.3224835 Z" id="Shape" fill="#2E095C" fill-rule="nonzero"></path>
                <path d="M314.212262,50.2571535 C313.101492,50.2571535 312.203031,49.9099535 311.512262,49.2155535 C310.861492,48.5196035 310.536877,47.6144035 310.536877,46.4953035 L310.536877,12.5228685 C310.536877,11.4039235 310.861492,10.5165485 311.512262,9.8607435 C312.203031,9.1661885 313.101492,8.8189885 314.212262,8.8189885 C315.361492,8.8189885 316.261492,9.1661885 316.912262,9.8607435 C317.601492,10.5165485 317.946108,11.4039235 317.946108,12.5228685 L317.946108,46.4953035 C317.946108,47.6144035 317.601492,48.5196035 316.912262,49.2155535 C316.261492,49.9099535 315.361492,50.2571535 314.212262,50.2571535 Z" id="Path" fill="#2E095C" fill-rule="nonzero"></path>
                <path d="M344.155338,50.4307535 C341.206108,50.4307535 338.410723,50.0448035 335.767646,49.2729035 C333.164569,48.4622535 331.038415,47.3819035 329.392262,46.0318535 C328.510723,45.3762035 328.070723,44.4493035 328.070723,43.2542535 C328.070723,42.4436035 328.299954,41.7492035 328.759954,41.1710535 C329.258415,40.5526035 329.832262,40.2441535 330.483031,40.2441535 C331.172262,40.2441535 331.958415,40.5138535 332.838415,41.0548035 C334.484569,42.2514035 336.209185,43.1194035 338.009185,43.6588035 C339.807646,44.1997535 341.799954,44.4694535 343.983031,44.4694535 C346.778415,44.4694535 348.923031,43.9874035 350.416877,43.0217535 C351.909185,42.0189035 352.656877,40.5727535 352.656877,38.6817535 C352.656877,37.2154535 351.947646,36.0963535 350.530723,35.3250735 C349.152262,34.5148885 346.835338,33.7432985 343.579954,33.0101485 C340.210723,32.2771535 337.472262,31.4283735 335.366108,30.4638085 C333.259954,29.4992435 331.670723,28.2645135 330.598415,26.7597735 C329.526108,25.2551885 328.990723,23.3452785 328.990723,21.0303535 C328.990723,18.6382385 329.659954,16.4969135 330.999954,14.6063785 C332.341492,12.7158435 334.198415,11.2496985 336.572262,10.2079435 C338.984569,9.1275935 341.684569,8.5874185 344.672262,8.5874185 C350.147646,8.5874185 354.609185,10.0535635 358.055338,12.9858535 C358.5538,13.4102435 358.898415,13.8346335 359.090723,14.2590235 C359.319954,14.6449735 359.435338,15.1465535 359.435338,15.7637635 C359.435338,16.5741035 359.186108,17.2878785 358.687646,17.9050885 C358.227646,18.4838585 357.6738,18.7732435 357.021492,18.7732435 C356.638415,18.7732435 356.275338,18.7154285 355.930723,18.5996435 C355.624569,18.4838585 355.203031,18.2716635 354.667646,17.9630585 C353.096877,16.8055185 351.564569,15.9567385 350.072262,15.4165635 C348.616877,14.8377935 346.816877,14.5484085 344.672262,14.5484085 C342.067646,14.5484085 339.999954,15.0885835 338.467646,16.1689335 C336.9738,17.2106885 336.227646,18.6768335 336.227646,20.5673685 C336.227646,22.1491435 336.898415,23.3644985 338.238415,24.2134335 C339.578415,25.0622135 341.856877,25.8531785 345.0738,26.5861735 C348.481492,27.3579185 351.239954,28.2259185 353.346108,29.1904835 C355.490723,30.1164535 357.118415,31.3125885 358.227646,32.7787335 C359.376877,34.2448785 359.952262,36.0777535 359.952262,38.2772035 C359.952262,40.6688535 359.281492,42.7908035 357.941492,44.6430535 C356.638415,46.4565535 354.781492,47.8841035 352.369185,48.9257035 C349.995338,49.9285535 347.256877,50.4307535 344.155338,50.4307535 Z" id="Path" fill="#2E095C" fill-rule="nonzero"></path>
            </g>
        </g>
    </g>
</svg>