<?xml version="1.0" encoding="utf-8"?>
<!-- Generator: Adobe Illustrator 25.3.1, SVG Export Plug-In . SVG Version: 6.00 Build 0)  -->
<svg version="1.1" id="Layer_1" xmlns="http://www.w3.org/2000/svg" xmlns:xlink="http://www.w3.org/1999/xlink" x="0px" y="0px"
	 viewBox="0 0 900 900" style="enable-background:new 0 0 900 900;" xml:space="preserve">
<style type="text/css">
	.st0{opacity:0.1;fill:#2E095C;enable-background:new    ;}
	.st1{fill:#FFFFFF;}
</style>
<path class="st0" d="M56.1,0h787.8c31,0,56.1,25.1,56.1,56.1v787.8c0,31-25.1,56.1-56.1,56.1H56.1C25.1,900,0,874.9,0,843.9V56.1
	C0,25.1,25.1,0,56.1,0z"/>
<path class="st1" d="M151.8,652.9c-8.6,0-17.2-1.1-25.5-3.5c-7.9-2.4-14.4-5.7-19.4-9.8c-4.5-3.6-5.3-10-1.9-14.7
	c1.2-1.7,3.1-2.7,5.2-2.8c2.6,0.1,5,1,7.2,2.4c4.8,3.5,10.1,6.1,15.7,7.8c5.9,1.7,12,2.5,18.1,2.4c8.5,0,15-1.5,19.5-4.4
	c4.5-3,6.8-7.4,6.8-13.1c0-4.4-2.2-7.8-6.4-10.1c-4.2-2.4-11.2-4.8-21.1-7c-10.2-2.2-18.5-4.8-24.9-7.7c-6.4-2.9-11.2-6.6-14.5-11.2
	c-3.2-4.5-4.9-10.3-4.9-17.3c-0.1-6.9,2.1-13.7,6.1-19.4c4.3-5.9,10.2-10.5,16.9-13.2c7.8-3.3,16.1-5,24.6-4.9
	c16.6,0,30.2,4.4,40.6,13.3c1.3,1,2.4,2.3,3.1,3.8c0.7,1.4,1.1,3,1,4.5c0.1,2.4-0.7,4.6-2.2,6.5c-1.2,1.6-3,2.6-5,2.6
	c-1.1,0-2.2-0.2-3.3-0.5c-1.3-0.5-2.6-1.2-3.8-1.9c-4.3-3.2-9-5.8-14-7.7c-4.4-1.7-9.9-2.6-16.4-2.6c-7.9,0-14.2,1.6-18.8,4.9
	c-4.4,2.9-7,8-6.8,13.3c-0.1,4.5,2.2,8.7,6.1,11c4.1,2.5,11,4.9,20.8,7.2c10.3,2.3,18.7,4.9,25.1,7.8c6.5,2.8,11.5,6.4,14.8,10.8
	c3.5,4.4,5.2,9.9,5.2,16.6c0.1,6.9-2,13.6-6.1,19.2c-3.9,5.5-9.6,9.8-16.9,12.9C169.6,651.4,161.3,652.9,151.8,652.9z"/>
<path class="st1" d="M327.1,527.4c3-0.1,5.9,1,8,3.1c2.1,2.1,3.1,5,3,8V641c0.1,3-1,6-3.1,8.2c-2,2.1-4.9,3.3-7.8,3.1
	c-3,0.1-5.9-1-8-3.1c-2-2.2-3.1-5.2-3-8.2v-43.1h-63V641c0.2,3.1-1,6-3.1,8.2c-2.1,2.1-5,3.3-8,3.1c-3,0.1-5.9-1-8-3.1
	c-2-2.2-3.1-5.2-3-8.2V538.6c-0.1-3,0.9-5.9,3-8c4.3-4.4,11.3-4.5,15.8-0.3c2.2,2.2,3.5,5.2,3.4,8.3v41.2h63v-41.2
	c-0.1-3,0.9-5.9,3-8C321.2,528.5,324.1,527.3,327.1,527.4z"/>
<path class="st1" d="M429.7,652.9c-12,0-22.4-2.6-31.2-7.7c-8.8-5.2-15.8-12.8-20.2-22c-4.8-9.5-7.1-20.7-7.1-33.5
	c0-12.8,2.3-23.9,7-33.3c4.4-9.2,11.6-16.9,20.4-22c8.8-5.1,19.2-7.7,31.2-7.7s22.3,2.6,31,7.7c8.8,5.1,15.9,12.8,20.2,22
	c4.8,9.4,7.1,20.5,7.1,33.3s-2.4,24-7.1,33.5c-4.4,9.2-11.6,16.9-20.4,22C451.9,650.3,441.6,652.9,429.7,652.9z M429.7,634.9
	c11.3,0,20.1-3.9,26.3-11.7c6.4-7.8,9.6-19,9.6-33.5c0-14.5-3.2-25.6-9.6-33.3c-6.3-7.8-15.1-11.7-26.3-11.7
	c-11.4,0-20.3,3.9-26.7,11.7c-6.3,7.7-9.4,18.8-9.4,33.3s3.1,25.7,9.4,33.5C409.4,631,418.3,634.9,429.7,634.9L429.7,634.9z"/>
<path class="st1" d="M532.5,652.3c-3,0.1-6-1-8.2-3c-2.1-2.3-3.1-5.3-3-8.4V539c0-3.4,0.9-6,2.8-7.8c2.2-1.9,5.1-2.9,8-2.8H575
	c13.1,0,23.4,3.3,30.7,9.9c7.3,6.5,11,15.7,11,27.6c0,11.9-3.7,21.1-11,27.7c-7.3,6.6-17.6,9.9-30.7,9.9h-31.2V641
	c0.1,3.1-1,6.1-3.1,8.4C538.7,651.3,536,652.3,532.5,652.3z M572.3,586.2c15.5,0,23.2-6.7,23.2-20.2s-7.7-20.2-23.2-20.2h-28.4v40.5
	H572.3z"/>
<path class="st1" d="M658.1,652.3c-3.1,0.1-6-1-8.2-3.1c-2-2.2-3.1-5.2-3-8.2V538.6c-0.1-3,0.9-5.9,3-8c2.2-2.1,5.2-3.3,8.2-3.1
	c3.1-0.2,6,1,8.2,3.1c2.1,2.1,3.3,5,3.1,8V641c0.1,3-1,6-3.1,8.2C664.3,651.3,661.6,652.3,658.1,652.3z"/>
<path class="st1" d="M749,652.9c-8.6,0-17.2-1.1-25.5-3.5c-7.9-2.4-14.4-5.7-19.4-9.8c-4.5-3.6-5.3-10-1.9-14.7
	c1.2-1.7,3.1-2.7,5.2-2.8c2.6,0.1,5,1,7.2,2.4c4.8,3.5,10.1,6.1,15.7,7.8c5.9,1.7,12,2.5,18.1,2.4c8.5,0,15-1.5,19.5-4.4
	c4.5-3,6.8-7.4,6.8-13.1c0-4.4-2.2-7.8-6.5-10.1c-4.2-2.4-11.2-4.8-21.1-7c-10.2-2.2-18.5-4.8-24.9-7.7c-6.4-2.9-11.2-6.6-14.5-11.2
	c-3.3-4.5-4.9-10.3-4.9-17.3c-0.1-6.9,2.1-13.7,6.1-19.4c4.3-5.9,10.2-10.5,16.9-13.2c7.8-3.3,16.1-5,24.6-4.9
	c16.6,0,30.2,4.4,40.6,13.3c1.3,1,2.4,2.3,3.2,3.8c0.7,1.4,1.1,3,1,4.5c0,2.4-0.8,4.6-2.3,6.5c-1.2,1.6-3.1,2.6-5.1,2.6
	c-1.1,0-2.2-0.2-3.3-0.5c-1.3-0.5-2.6-1.2-3.8-1.9c-4.3-3.2-9-5.8-14-7.7c-4.4-1.7-9.9-2.6-16.4-2.6c-7.9,0-14.2,1.6-18.8,4.9
	c-4.4,3-6.9,8-6.7,13.3c-0.1,4.5,2.2,8.7,6.1,11c4.1,2.5,11,4.9,20.8,7.2c10.3,2.3,18.7,4.9,25.1,7.8c6.5,2.8,11.4,6.4,14.8,10.8
	c3.5,4.4,5.2,9.9,5.2,16.6c0.1,6.9-2,13.6-6.1,19.2c-3.9,5.5-9.6,9.8-16.9,12.9C766.8,651.4,758.5,652.9,749,652.9z"/>
<path class="st1" d="M368.5,274.7v22.7c12.5-8.7,15.7-25.8,7-38.4c-8.7-12.5-25.8-15.7-38.4-7s-15.7,25.8-7,38.4
	c1.9,2.7,4.3,5.1,7,7v-22.7c0-8.7,7-15.7,15.7-15.7S368.5,266,368.5,274.7C368.5,274.7,368.5,274.7,368.5,274.7z"/>
<path class="st1" d="M562.8,274.7v22.7c12.5-8.7,15.6-25.8,7-38.3c-8.7-12.5-25.8-15.6-38.3-7c-12.5,8.7-15.6,25.8-7,38.3
	c1.9,2.7,4.3,5.1,7,7v-22.7c0-8.7,7-15.7,15.7-15.7C555.8,259.1,562.8,266.1,562.8,274.7z"/>
<path class="st1" d="M363.3,274.7c-0.3-5.8-5.2-10.3-11-10c-5.4,0.2-9.8,4.6-10,10v51.2c0,59.5,48.2,107.7,107.7,107.7
	s107.7-48.2,107.7-107.7v-51.2c-0.3-5.8-5.2-10.3-11-10c-5.4,0.2-9.8,4.6-10,10v51.2c0,47.9-38.8,86.7-86.7,86.7
	s-86.7-38.8-86.7-86.7l0,0L363.3,274.7z"/>
</svg>
