<?xml version="1.0" encoding="utf-8"?>
<!-- Generator: Adobe Illustrator 25.3.1, SVG Export Plug-In . SVG Version: 6.00 Build 0)  -->
<svg version="1.1" id="Layer_1" xmlns="http://www.w3.org/2000/svg" xmlns:xlink="http://www.w3.org/1999/xlink" x="0px" y="0px"
	 viewBox="0 0 114 114" style="enable-background:new 0 0 114 114;" xml:space="preserve">
<style type="text/css">
	.st0{clip-path:url(#SVGID_2_);}
	.st1{fill:url(#SVGID_3_);}
	.st2{fill-rule:evenodd;clip-rule:evenodd;fill:url(#SVGID_4_);}
</style>
<g>
	<defs>
		<rect id="SVGID_1_" y="0" width="114" height="114"/>
	</defs>
	<clipPath id="SVGID_2_">
		<use xlink:href="#SVGID_1_"  style="overflow:visible;"/>
	</clipPath>
	<g class="st0">
		<g>
			
				<linearGradient id="SVGID_3_" gradientUnits="userSpaceOnUse" x1="42.9528" y1="74.7511" x2="78.4682" y2="40.4103" gradientTransform="matrix(1 0 0 -1 0 113.8898)">
				<stop  offset="0" style="stop-color:#FFED48"/>
				<stop  offset="0.2031" style="stop-color:#FFC155"/>
				<stop  offset="0.6094" style="stop-color:#FF9E21"/>
				<stop  offset="1" style="stop-color:#FF8800"/>
			</linearGradient>
			<path class="st1" d="M50.4,71.1L39,59.7c-1.7-1.7-1.7-4.5,0-6.3s4.5-1.7,6.3,0l8.2,8.2l15.8-15.8c1.7-1.7,4.5-1.7,6.3,0
				s1.7,4.5,0,6.3L56.6,71C54.9,72.8,52.1,72.8,50.4,71.1z"/>
		</g>
		<g>
			
				<linearGradient id="SVGID_4_" gradientUnits="userSpaceOnUse" x1="3.1382" y1="93.905" x2="115.2922" y2="16.8301" gradientTransform="matrix(1 0 0 -1 0 113.8898)">
				<stop  offset="0" style="stop-color:#FFED48"/>
				<stop  offset="0.2031" style="stop-color:#FFC155"/>
				<stop  offset="0.6094" style="stop-color:#FF9E21"/>
				<stop  offset="1" style="stop-color:#FF8800"/>
			</linearGradient>
			<path class="st2" d="M104,57c0,26-21,47-47,47S10,83,10,57s21-47,47-47S104,31,104,57z M57,99c23.2,0,42-18.8,42-42
				S80.2,15,57,15S15,33.8,15,57S33.8,99,57,99z"/>
		</g>
	</g>
</g>
</svg>
