<svg width="45" height="56" viewBox="0 0 45 56" fill="none" xmlns="http://www.w3.org/2000/svg">
<path d="M31.0166 34.0668C30.853 32.0165 30.1475 30.1496 28.9118 28.4774C31.9396 27.086 34.1004 26.4971 34.1233 26.4907C34.5161 26.3854 34.7824 26.0205 34.7624 25.6141C34.7426 25.2083 34.4426 24.8703 34.0413 24.8039C33.6431 24.7376 33.2446 24.679 32.8466 24.6285C36.6838 22.8605 39.4217 22.1133 39.4547 22.1048C39.8475 21.9996 40.114 21.6343 40.094 21.2279C40.0742 20.8221 39.7742 20.4841 39.3729 20.4177C38.271 20.2346 37.2058 20.1049 36.1821 20.0195C40.5532 17.9809 43.6991 17.1221 43.7364 17.1125C44.1292 17.0072 44.3957 16.642 44.3755 16.2359C44.3559 15.8297 44.0556 15.4921 43.6546 15.4253C41.46 15.0603 39.3973 14.8889 37.5011 14.8485L43.0985 11.153C43.4134 10.9451 43.5567 10.5565 43.4529 10.1937C43.3487 9.83055 43.0209 9.57741 42.6433 9.56825C40.8014 9.52382 38.9955 9.57813 37.2361 9.72837C37.5705 7.48857 37.6028 5.07015 37.3306 2.52379C37.3019 2.24949 37.143 2.00547 36.9041 1.86754C36.6648 1.72939 36.3744 1.71398 36.1217 1.82583C33.7814 2.86337 31.7036 4.09974 29.9317 5.5091C29.2239 4.0009 28.3783 2.40802 27.3651 0.747406C27.1684 0.424911 26.7853 0.267643 26.4187 0.358946C26.0527 0.450085 25.7876 0.768849 25.765 1.14551L25.4073 7.10849C24.5899 5.85299 23.6562 4.56146 22.5868 3.26179C22.3284 2.9479 21.8863 2.85685 21.525 3.04262C21.1632 3.22816 20.9801 3.64157 21.085 4.03415C21.0951 4.07165 21.9252 7.22751 22.3449 12.0347C21.7593 11.1895 21.1146 10.3298 20.4045 9.46626C20.1461 9.15237 19.7043 9.06093 19.3423 9.24686C18.9805 9.43241 18.7977 9.84542 18.9023 10.2384C18.9112 10.2716 19.6334 13.0159 20.0213 17.2239C19.7778 16.904 19.5282 16.5884 19.2717 16.2767C19.013 15.9626 18.5705 15.8713 18.2091 16.057C17.8476 16.2432 17.6647 16.6562 17.77 17.049C17.7755 17.0709 18.3059 19.0763 18.6213 22.2057C16.275 21.7885 14.048 22.0736 11.9621 23.0657C8.97185 24.4882 6.28545 27.3151 3.74898 31.7084C1.21273 36.1013 0.107585 39.8416 0.37097 43.1421C0.689709 47.136 3.05881 50.4352 7.41235 52.9487C11.7659 55.4623 15.8077 55.8643 19.4255 54.1432C22.4155 52.7211 25.1021 49.8938 27.6383 45.5009C30.1748 41.1076 31.2797 37.3677 31.0166 34.0668ZM8.17591 28.3203C8.22394 28.4405 8.26953 28.5676 8.31793 28.7052C8.57467 29.436 8.8947 30.3451 10.1044 31.0435C11.3137 31.7417 12.2606 31.564 13.0218 31.421C13.6721 31.2992 14.1015 31.2187 14.7566 31.5969C15.4121 31.9754 15.5575 32.3877 15.7768 33.0116C16.0339 33.7425 16.3535 34.6514 17.5632 35.3498C18.7729 36.0483 19.7206 35.8711 20.482 35.7287C21.1326 35.607 21.5631 35.5266 22.2194 35.9055C22.8768 36.2851 23.022 36.6979 23.2425 37.323C23.5003 38.0538 23.8207 38.9631 25.0312 39.662C26.2416 40.3609 27.1898 40.1839 27.9515 40.0417C28.0955 40.0147 28.23 39.9905 28.3597 39.9719C27.9945 40.9878 27.5248 42.049 26.9525 43.1563C26.1271 42.9064 25.4417 43.0334 24.8639 43.1414C24.2126 43.2632 23.7824 43.3433 23.1249 42.9637C22.4679 42.5843 22.3221 42.1718 22.1019 41.5468C21.8442 40.8161 21.5234 39.9065 20.3129 39.2076C19.1028 38.509 18.1555 38.6864 17.3941 38.8288C16.7429 38.9506 16.313 39.0308 15.6568 38.6519C15.0012 38.2735 14.8558 37.8611 14.6366 37.2373C14.3795 36.5063 14.0599 35.5974 12.8502 34.899C11.6409 34.2008 10.6937 34.3788 9.93272 34.5215C9.28247 34.6433 8.85304 34.7238 8.19754 34.3453C7.54203 33.9669 7.39701 33.5548 7.17702 32.9305C6.98206 32.3762 6.75011 31.7196 6.12239 31.1301C6.79502 30.0811 7.47888 29.1442 8.17591 28.3203ZM26.7419 26.1859C27.8169 26.1041 28.9007 26.0828 29.9899 26.124C29.309 26.4033 28.5544 26.732 27.7454 27.1145C27.4332 26.7965 27.098 26.4871 26.7419 26.1859ZM29.4314 24.3814C27.8278 24.3535 26.2354 24.4521 24.6651 24.6772C24.4685 24.5533 24.2671 24.4313 24.0614 24.3115C23.8786 23.8568 23.6837 23.406 23.4782 22.96C24.1915 22.7326 25.5758 22.3429 27.47 22.0429C29.3747 21.7417 32.0943 21.489 35.3279 21.6926C33.7321 22.3146 31.6726 23.2087 29.4314 24.3814ZM32.57 19.8857C30.2948 19.9087 28.3204 20.1317 26.7266 20.4072C26.4761 19.7278 26.1746 18.9765 25.8122 18.1686C26.4271 17.9578 28.1046 17.4318 30.5567 17.0439C32.733 16.699 35.876 16.4122 39.6144 16.6828C37.7724 17.3865 35.2715 18.4628 32.57 19.8857ZM34.2791 14.9041C33.8662 14.9271 33.4641 14.9558 33.0742 14.9894C32.9166 14.1507 32.7042 13.2065 32.418 12.1704C34.7446 11.6857 37.1902 11.3964 39.7257 11.3096L34.2791 14.9041ZM35.719 3.92019C35.8627 6.04111 35.7747 8.05114 35.4566 9.9143C34.2518 10.0652 33.0711 10.2632 31.9184 10.5076C31.5766 9.45701 31.1621 8.33173 30.6604 7.14316C32.1145 5.93689 33.8104 4.85623 35.719 3.92019ZM27.3161 4.14344C29.7106 8.63533 30.8299 12.4658 31.3505 15.1749C30.7231 15.2564 30.1363 15.3484 29.5908 15.4455C29.0075 13.8393 28.1683 11.8764 26.9811 9.72775L27.3161 4.14344ZM23.5177 7.3862C25.6726 10.5587 27.0346 13.5233 27.8773 15.7942C26.3916 16.1363 25.4186 16.4698 25.0639 16.5991C24.8191 16.1149 24.5541 15.6163 24.2672 15.1062C24.1521 12.0051 23.8336 9.35818 23.5177 7.3862ZM21.3225 13.604C23.1166 16.3016 24.2772 18.8122 25.0106 20.7514C23.9261 21.0008 23.1396 21.2451 22.7 21.3945C22.459 20.9426 22.2058 20.4955 21.9407 20.0546C21.8365 17.508 21.5834 15.3068 21.3225 13.604ZM20.1542 20.4453C20.6962 21.3075 21.188 22.1937 21.631 23.0995C21.2172 22.9287 20.8063 22.7782 20.3988 22.6479C20.3289 21.8474 20.2439 21.1098 20.1542 20.4453ZM23.1113 25.7573C26.7291 27.846 28.758 30.4204 29.2183 33.595C29.047 33.5533 28.867 33.4826 28.6663 33.3667C28.448 33.2407 28.2762 33.1046 28.1411 32.9497C27.8262 32.5907 27.2805 32.5547 26.9214 32.869C26.5628 33.1832 26.5266 33.7292 26.8409 34.0884C27.103 34.3878 27.4176 34.6411 27.8023 34.8632C28.3693 35.1906 28.8751 35.3216 29.3144 35.36C29.2873 36.2673 29.1487 37.2192 28.8979 38.2181C28.4201 38.1969 27.9979 38.2747 27.6343 38.3428C26.9833 38.4643 26.5529 38.5447 25.8958 38.1653C25.2383 37.7857 25.0928 37.3728 24.8724 36.7482C24.6146 36.0174 24.2942 35.1081 23.0834 34.409C21.8737 33.7106 20.926 33.8878 20.1646 34.0302C19.5139 34.1518 19.0835 34.2322 18.4272 33.8533C17.7717 33.4749 17.6267 33.0627 17.4073 32.4383C17.15 31.7077 16.8306 30.7984 15.6213 30.1002C14.412 29.4021 13.4644 29.5799 12.7034 29.7225C12.0529 29.8447 11.6235 29.9252 10.9684 29.547C10.3125 29.1683 10.1677 28.7558 9.94772 28.1315C9.82045 27.7696 9.67894 27.373 9.42612 26.9766C10.1655 26.2603 10.92 25.6644 11.6922 25.1874C11.9449 25.5479 12.3109 25.9193 12.8745 26.2447C14.0838 26.9428 15.0311 26.7654 15.7923 26.6224C16.4422 26.5003 16.8716 26.4199 17.5271 26.7983C18.1826 27.1768 18.3276 27.5889 18.5472 28.213C18.8044 28.9439 19.124 29.8528 20.3333 30.551C21.5434 31.2497 22.4911 31.0725 23.2525 30.9301C23.9033 30.808 24.3332 30.7278 24.9898 31.1069C25.4029 31.3454 25.9316 31.2038 26.1701 30.7907C26.4088 30.3772 26.267 29.8489 25.8538 29.6104C24.6438 28.9118 23.6964 29.0892 22.9347 29.2314C22.284 29.353 21.854 29.4336 21.1973 29.0545C20.5418 28.676 20.3968 28.2639 20.1772 27.6398C19.9204 26.9091 19.6004 26 18.3911 25.3018C17.1818 24.6036 16.2349 24.7812 15.4733 24.924C14.8234 25.0461 14.394 25.1266 13.7385 24.7481C13.5382 24.6325 13.3878 24.514 13.2672 24.3882C16.2476 23.1986 19.492 23.6677 23.1113 25.7573ZM2.79433 45.8496C3.54314 46.0341 4.17372 45.9175 4.7104 45.8168C5.36088 45.6946 5.79031 45.6141 6.44543 45.9924C7.10093 46.3708 7.24634 46.7832 7.46533 47.4074C7.72268 48.138 8.04232 49.0469 9.25201 49.7453C10.4617 50.4437 11.4094 50.2665 12.1708 50.1241C12.8214 50.0025 13.2519 49.9221 13.9082 50.301C14.5656 50.6805 14.7108 51.0933 14.9313 51.7184C15.1136 52.2352 15.3289 52.8407 15.8668 53.3985C13.5178 53.6807 11.0032 53.0266 8.27637 51.4522C5.54834 49.8772 3.72438 48.026 2.79433 45.8496ZM18.1733 52.7993C17.9829 52.7574 17.79 52.6793 17.5842 52.5605C16.9271 52.1812 16.7813 51.7686 16.5612 51.1437C16.3034 50.4129 15.9826 49.5033 14.7722 48.8044C13.5621 48.1058 12.6148 48.2832 11.8534 48.4256C11.2021 48.5474 10.7723 48.6277 10.116 48.2488C9.46052 47.8703 9.31511 47.4579 9.0959 46.8341C8.83877 46.1031 8.51913 45.1942 7.30944 44.4958C6.10015 43.7976 5.1532 43.9753 4.39199 44.1183C3.74174 44.2402 3.31231 44.3206 2.65681 43.9422C2.45805 43.8274 2.29829 43.7045 2.1693 43.5661C2.16663 43.5636 2.16413 43.5616 2.16146 43.559C1.93415 41.9214 2.12244 40.1246 2.72406 38.1529C2.74148 38.2019 2.7589 38.2509 2.77698 38.3024C3.03394 39.0328 3.35397 39.9419 4.56327 40.6401C4.74098 40.7427 4.92099 40.8305 5.09879 40.9015C5.5418 41.0783 6.04451 40.8619 6.22091 40.4186C6.3977 39.9756 6.1813 39.4729 5.73829 39.2961C5.63805 39.2564 5.53329 39.2048 5.42728 39.1436C4.77178 38.7651 4.62637 38.3528 4.40677 37.7287C4.23199 37.2313 4.01679 36.6212 3.48756 36.0636C3.94348 34.9842 4.50952 33.8571 5.18401 32.6798C5.33909 32.9143 5.43341 33.1803 5.54745 33.5038C5.80442 34.2342 6.12445 35.1433 7.33374 35.8415C8.54304 36.5397 9.49038 36.3623 10.2516 36.2192C10.9014 36.0972 11.3309 36.0167 11.9864 36.3951C12.6419 36.7736 12.7867 37.1861 13.0063 37.8102C13.2636 38.5408 13.5833 39.4496 14.7926 40.1478C16.0026 40.8465 16.9504 40.6693 17.7117 40.5269C18.3624 40.4053 18.7924 40.3246 19.4491 40.7037C20.1062 41.0831 20.2517 41.4961 20.4723 42.1212C20.7296 42.8518 21.0507 43.761 22.2611 44.4598C23.4716 45.1587 24.4195 44.9821 25.1813 44.8399C25.5197 44.7766 25.7982 44.7253 26.08 44.7431C25.3977 45.9158 24.7044 46.97 23.9975 47.9046C23.2491 47.7239 22.6121 47.8426 22.0936 47.9397C21.4422 48.0608 21.0121 48.1415 20.3547 47.7619C19.6976 47.3825 19.552 46.9696 19.3313 46.3448C19.0739 45.6143 18.7531 44.7047 17.5426 44.0058C16.3326 43.3072 15.3852 43.4846 14.6235 43.6268C13.9726 43.7488 13.5428 43.8291 12.8861 43.4499C12.2306 43.0715 12.0856 42.6593 11.866 42.0353C11.6092 41.3045 11.2892 40.3954 10.0799 39.6972C9.77633 39.5219 9.47989 39.3955 9.17366 39.3112C8.71396 39.184 8.2377 39.4536 8.1109 39.9135C7.98387 40.3738 8.2537 40.8497 8.71362 40.9765C8.87624 41.0215 9.04053 41.0925 9.2159 41.1937C9.87141 41.5722 10.0164 41.9843 10.2358 42.6088C10.4928 43.3391 10.8128 44.2483 12.0221 44.9464C13.2322 45.6451 14.1799 45.4679 14.9413 45.3255C15.5919 45.2039 16.022 45.1232 16.6786 45.5024C17.3357 45.8817 17.4813 46.2947 17.7016 46.9192C17.9594 47.65 18.2802 48.5596 19.4907 49.2584C20.7011 49.9573 21.6489 49.7801 22.4106 49.6379C22.4659 49.6277 22.5193 49.618 22.5714 49.6087C21.1653 51.1154 19.7042 52.1773 18.1733 52.7993Z" fill="#F2C94C"/>
</svg>
