<svg width="100" height="100" viewBox="0 0 100 100" fill="none" xmlns="http://www.w3.org/2000/svg">
<path d="M85.3553 14.6445C75.9115 5.20078 63.3557 0 50 0C36.6443 0 24.0885 5.20078 14.6449 14.6445C5.20078 24.0885 0 36.6445 0 50C0 63.3555 5.20078 75.9115 14.6449 85.3555C24.0885 94.7992 36.6443 100 50 100C63.3557 100 75.9115 94.7992 85.3553 85.3555C94.7992 75.9115 100 63.3555 100 50C100 36.6445 94.7992 24.0885 85.3553 14.6445ZM50 96.016C24.6268 96.016 3.98398 75.3734 3.98398 50C3.98398 24.6266 24.6268 3.98398 50 3.98398C75.3732 3.98398 96.016 24.6268 96.016 50C96.016 75.3732 75.3732 96.016 50 96.016Z" fill="white"/>
<path d="M78.4359 28.5363C75.7176 25.818 71.2943 25.818 68.576 28.5363L39.2429 57.8691L29.631 48.2576C26.9127 45.5393 22.4894 45.5393 19.7711 48.2576C17.0527 50.976 17.0527 55.3992 19.7711 58.1178L34.3131 72.6596C35.6301 73.9764 37.3808 74.7014 39.2429 74.7014C41.1051 74.7014 42.8558 73.9762 44.173 72.6594L78.4359 38.3965C81.1541 35.6779 81.1541 31.2545 78.4359 28.5363ZM75.6187 35.5791L41.356 69.842C40.7916 70.4062 40.0412 70.7174 39.2431 70.7174C38.4451 70.7174 37.6947 70.4064 37.1304 69.842L22.5886 55.3002C21.4234 54.135 21.4234 52.2395 22.5885 51.0744C23.1709 50.492 23.9361 50.2008 24.7013 50.2008C25.4664 50.2008 26.2318 50.4922 26.814 51.0746L37.8344 62.0949C38.6127 62.8728 39.8736 62.8728 40.6517 62.0949L71.3929 31.3533C72.5582 30.1883 74.4539 30.1883 75.6189 31.3533C76.7838 32.5184 76.7838 34.4139 75.6187 35.5791Z" fill="white"/>
<path d="M90.26 58.2292C89.1928 57.9573 88.1094 58.6017 87.8381 59.6679C83.4329 76.964 67.8735 89.0439 50 89.0439C48.9 89.0439 48.0081 89.9357 48.0081 91.0359C48.0081 92.136 48.9 93.0278 50 93.0278C69.6967 93.0278 86.8438 79.7142 91.6989 60.6511C91.9704 59.5853 91.3264 58.5007 90.26 58.2292Z" fill="white"/>
<path d="M91.036 48.0083C89.936 48.0083 89.044 48.9001 89.044 50.0003C89.044 50.5698 89.0317 51.1438 89.0073 51.7071C88.9596 52.8062 89.8122 53.7358 90.9114 53.7833C90.9407 53.7845 90.9698 53.7851 90.9989 53.7851C92.0594 53.7851 92.9412 52.9487 92.9875 51.879C93.0145 51.2589 93.028 50.6269 93.028 50.0003C93.028 48.9001 92.136 48.0083 91.036 48.0083Z" fill="white"/>
</svg>
