<svg viewBox="0 0 114 114" fill="none" xmlns="http://www.w3.org/2000/svg">
<g clip-path="url(#clip0_386:133)">
<path d="M102.199 57C102.199 81.9627 81.9627 102.199 57 102.199C32.0373 102.199 11.8008 81.9627 11.8008 57C11.8008 32.0373 32.0373 11.8008 57 11.8008C81.9627 11.8008 102.199 32.0373 102.199 57Z" fill="#C2EFFF"/>
<path d="M106 57C106 84.0618 84.0618 106 57 106C29.9382 106 8 84.0618 8 57C8 29.9382 29.9382 8 57 8C84.0618 8 106 29.9382 106 57Z" fill="#FBFF00"/>
<path d="M100 57C100 80.7484 80.7484 100 57 100C33.2516 100 14 80.7484 14 57C14 33.2516 33.2516 14 57 14C80.7484 14 100 33.2516 100 57Z" fill="#290E43"/>
<g filter="url(#filter0_d_386:133)">
<path d="M50.3647 71.0717L39.0092 59.7162C37.2723 57.9793 37.2723 55.1744 39.0092 53.4375C40.7461 51.7006 43.5519 51.7006 45.2879 53.4375L53.4819 61.6314L69.2461 45.8672C70.983 44.1303 73.7879 44.1303 75.5248 45.8672C77.2617 47.6041 77.2617 50.409 75.5248 52.1459L56.6434 71.0273C54.9074 72.8086 52.1016 72.8086 50.3647 71.0717Z" fill="url(#paint0_linear_386:133)"/>
</g>
<path d="M94.9533 8.93472C93.4813 8.64112 92.3696 7.53232 92.075 6.06496C92.075 6.03248 92.0425 6 92.0092 6C91.9766 6 91.9766 6.03248 91.9441 6.06496C91.6495 7.53232 90.5372 8.64112 89.0652 8.93472C89.0326 8.93472 89 8.9672 89 8.99968C89 9.0328 89.0326 9.0328 89.0652 9.06528C90.5372 9.35888 91.6495 10.467 91.9441 11.9344C91.9441 11.9675 91.9766 12 92.0092 12C92.0425 12 92.0425 11.9675 92.075 11.9344C92.3696 10.467 93.4813 9.35888 94.9533 9.06528C94.9865 9.06528 95.0191 9.0328 94.9865 8.99968C94.9865 8.93472 94.9533 8.93472 94.9533 8.93472Z" fill="#F6FF00"/>
<path d="M20.0886 98.2282C19.7773 98.2282 19.5103 98.0943 19.2876 97.9169C19.2424 97.8717 19.198 97.8273 19.1537 97.7386C19.1093 97.6942 19.0649 97.6046 19.0649 97.5603C19.0197 97.4716 19.0197 97.4263 19.0197 97.3376C19.0197 97.2489 18.9754 97.2037 19.0197 97.115C19.0197 97.0262 19.0197 96.981 19.0197 96.8923C19.0197 96.8036 19.0649 96.7584 19.0649 96.6697C19.1093 96.5809 19.1093 96.5357 19.1537 96.4914C19.198 96.447 19.2424 96.3583 19.2876 96.3131C19.599 96.0017 20.0886 95.913 20.4896 96.0904C20.534 96.1356 20.6235 96.1356 20.6679 96.18C20.7123 96.2243 20.801 96.2687 20.8462 96.3131C20.8906 96.3583 20.9349 96.4026 20.9793 96.4914C21.0236 96.5357 21.0689 96.6253 21.0689 96.6697C21.1132 96.714 21.1132 96.8036 21.1132 96.8923V97.115V97.3376C21.1132 97.4263 21.0689 97.4716 21.0689 97.5603C21.0236 97.649 21.0236 97.6942 20.9793 97.7386C20.9349 97.7829 20.8906 97.8717 20.8462 97.9169C20.801 97.9612 20.7566 98.0056 20.6679 98.0499C20.6235 98.0943 20.534 98.1395 20.4896 98.1395C20.4009 98.1839 20.3557 98.1839 20.2669 98.1839C20.2226 98.2282 20.1782 98.2282 20.0886 98.2282Z" fill="#F6FF00"/>
<path d="M100.113 17.1931C100.025 17.1931 99.9802 17.1931 99.8906 17.1931C99.8019 17.1931 99.7576 17.1487 99.668 17.1487C99.5793 17.1044 99.5349 17.1044 99.4897 17.0591C99.4453 17.0148 99.3566 16.9704 99.3122 16.9261C99.0896 16.7034 99 16.4364 99 16.1242C99 16.0354 99 15.9911 99.0444 15.9015C99.0444 15.8128 99.0896 15.7684 99.0896 15.6788C99.1339 15.5901 99.1339 15.5458 99.1783 15.5005C99.2227 15.4562 99.267 15.3675 99.3122 15.3231C99.3566 15.2779 99.401 15.2335 99.4897 15.1892C99.5349 15.1448 99.6236 15.1005 99.668 15.1005C99.935 14.9665 100.247 14.9665 100.514 15.1005C100.603 15.1448 100.648 15.1448 100.693 15.1892C100.826 15.2779 100.915 15.3675 101.004 15.5005C101.048 15.5458 101.093 15.6345 101.093 15.6788C101.138 15.7684 101.138 15.8128 101.138 15.9015C101.138 15.9911 101.182 16.0354 101.182 16.1242C101.182 16.4364 101.048 16.7034 100.871 16.9261C100.826 16.9704 100.781 17.0148 100.693 17.0591C100.648 17.1044 100.559 17.1487 100.514 17.1487C100.426 17.1931 100.38 17.1931 100.292 17.1931C100.292 17.1931 100.203 17.1931 100.113 17.1931Z" fill="#F6FF00"/>
<path d="M14.1043 98.0078C12.1004 97.6069 10.5871 96.0926 10.1861 94.0887C10.1861 94.0444 10.1418 94 10.0965 94C10.0522 94 10.0522 94.0444 10.0078 94.0887C9.60686 96.0926 8.09262 97.6069 6.08871 98.0078C6.04436 98.0078 6 98.0522 6 98.0965C6 98.1418 6.04436 98.1418 6.08871 98.1861C8.09262 98.5871 9.60686 100.1 10.0078 102.104C10.0078 102.15 10.0522 102.194 10.0965 102.194C10.1418 102.194 10.1418 102.15 10.1861 102.104C10.5871 100.1 12.1004 98.5871 14.1043 98.1861C14.1496 98.1861 14.1939 98.1418 14.1496 98.0965C14.1496 98.0078 14.1043 98.0078 14.1043 98.0078Z" fill="#F6FF00"/>
<path d="M20.9533 104.935C19.4813 104.641 18.3696 103.532 18.075 102.065C18.075 102.032 18.0425 102 18.0092 102C17.9766 102 17.9766 102.032 17.9441 102.065C17.6495 103.532 16.5372 104.641 15.0652 104.935C15.0326 104.935 15 104.967 15 105C15 105.033 15.0326 105.033 15.0652 105.065C16.5372 105.359 17.6495 106.467 17.9441 107.934C17.9441 107.968 17.9766 108 18.0092 108C18.0425 108 18.0425 107.968 18.075 107.934C18.3696 106.467 19.4813 105.359 20.9533 105.065C20.9865 105.065 21.0191 105.033 20.9865 105C20.9865 104.935 20.9533 104.935 20.9533 104.935Z" fill="#F6FF00"/>
<path d="M108.104 6.00781C106.1 5.60686 104.587 4.09262 104.186 2.08871C104.186 2.04436 104.142 2 104.097 2C104.052 2 104.052 2.04436 104.008 2.08871C103.607 4.09262 102.093 5.60686 100.089 6.00781C100.044 6.00781 100 6.05217 100 6.09653C100 6.14175 100.044 6.14175 100.089 6.18611C102.093 6.58707 103.607 8.10043 104.008 10.1043C104.008 10.1496 104.052 10.1939 104.097 10.1939C104.142 10.1939 104.142 10.1496 104.186 10.1043C104.587 8.10043 106.1 6.58707 108.104 6.18611C108.15 6.18611 108.194 6.14175 108.15 6.09653C108.15 6.00781 108.104 6.00781 108.104 6.00781Z" fill="#F6FF00"/>
<g filter="url(#filter1_d_386:133)">
<path fill-rule="evenodd" clip-rule="evenodd" d="M104 57C104 82.9575 82.9575 104 57 104C31.0425 104 10 82.9575 10 57C10 31.0425 31.0425 10 57 10C82.9575 10 104 31.0425 104 57ZM57 99C80.1961 99 99 80.1961 99 57C99 33.8039 80.1961 15 57 15C33.8039 15 15 33.8039 15 57C15 80.1961 33.8039 99 57 99Z" fill="url(#paint1_linear_386:133)"/>
</g>
</g>
<defs>
<filter id="filter0_d_386:133" x="17.3577" y="30.0296" width="79.8188" height="68.502" filterUnits="userSpaceOnUse" color-interpolation-filters="sRGB">
<feFlood flood-opacity="0" result="BackgroundImageFix"/>
<feColorMatrix in="SourceAlpha" type="matrix" values="0 0 0 0 0 0 0 0 0 0 0 0 0 0 0 0 0 0 127 0" result="hardAlpha"/>
<feOffset dy="5.81395"/>
<feGaussianBlur stdDeviation="10.1744"/>
<feComposite in2="hardAlpha" operator="out"/>
<feColorMatrix type="matrix" values="0 0 0 0 0.0880208 0 0 0 0 0.104406 0 0 0 0 0.1625 0 0 0 0.8 0"/>
<feBlend mode="normal" in2="BackgroundImageFix" result="effect1_dropShadow_386:133"/>
<feBlend mode="normal" in="SourceGraphic" in2="effect1_dropShadow_386:133" result="shape"/>
</filter>
<filter id="filter1_d_386:133" x="-10.3488" y="-4.53489" width="134.698" height="134.698" filterUnits="userSpaceOnUse" color-interpolation-filters="sRGB">
<feFlood flood-opacity="0" result="BackgroundImageFix"/>
<feColorMatrix in="SourceAlpha" type="matrix" values="0 0 0 0 0 0 0 0 0 0 0 0 0 0 0 0 0 0 127 0" result="hardAlpha"/>
<feOffset dy="5.81395"/>
<feGaussianBlur stdDeviation="10.1744"/>
<feComposite in2="hardAlpha" operator="out"/>
<feColorMatrix type="matrix" values="0 0 0 0 0.0880208 0 0 0 0 0.104406 0 0 0 0 0.1625 0 0 0 0.8 0"/>
<feBlend mode="normal" in2="BackgroundImageFix" result="effect1_dropShadow_386:133"/>
<feBlend mode="normal" in="SourceGraphic" in2="effect1_dropShadow_386:133" result="shape"/>
</filter>
<linearGradient id="paint0_linear_386:133" x1="37.7065" y1="44.5645" x2="73.2219" y2="78.9053" gradientUnits="userSpaceOnUse">
<stop stop-color="#FFED48"/>
<stop offset="0.203125" stop-color="#FFC155"/>
<stop offset="0.609375" stop-color="#FF9E21"/>
<stop offset="1" stop-color="#FF8800"/>
</linearGradient>
<linearGradient id="paint1_linear_386:133" x1="10" y1="10" x2="122.154" y2="87.0749" gradientUnits="userSpaceOnUse">
<stop stop-color="#FFED48"/>
<stop offset="0.203125" stop-color="#FFC155"/>
<stop offset="0.609375" stop-color="#FF9E21"/>
<stop offset="1" stop-color="#FF8800"/>
</linearGradient>
<clipPath id="clip0_386:133">
<rect width="114" height="114" fill="white"/>
</clipPath>
</defs>
</svg>
