<svg width="40" height="40" viewBox="0 0 40 40" fill="none" xmlns="http://www.w3.org/2000/svg">
<path d="M31.6667 7.5H8.33337C7.00729 7.5 5.73552 8.02678 4.79784 8.96447C3.86016 9.90215 3.33337 11.1739 3.33337 12.5V27.5C3.33337 28.8261 3.86016 30.0979 4.79784 31.0355C5.73552 31.9732 7.00729 32.5 8.33337 32.5H31.6667C32.9928 32.5 34.2646 31.9732 35.2022 31.0355C36.1399 30.0979 36.6667 28.8261 36.6667 27.5V12.5C36.6667 11.1739 36.1399 9.90215 35.2022 8.96447C34.2646 8.02678 32.9928 7.5 31.6667 7.5ZM33.3334 27.5C33.3334 27.942 33.1578 28.366 32.8452 28.6785C32.5327 28.9911 32.1087 29.1667 31.6667 29.1667H8.33337C7.89135 29.1667 7.46742 28.9911 7.15486 28.6785C6.8423 28.366 6.66671 27.942 6.66671 27.5V12.5C6.66671 12.058 6.8423 11.634 7.15486 11.3215C7.46742 11.0089 7.89135 10.8333 8.33337 10.8333H31.6667C32.1087 10.8333 32.5327 11.0089 32.8452 11.3215C33.1578 11.634 33.3334 12.058 33.3334 12.5V27.5ZM26.6667 17.5C25.7806 17.5062 24.9121 17.7478 24.15 18.2C23.3909 17.7495 22.526 17.5081 21.6433 17.5002C20.7606 17.4923 19.8915 17.7182 19.1244 18.155C18.3573 18.5918 17.7196 19.2239 17.2759 19.9871C16.8323 20.7503 16.5986 21.6173 16.5986 22.5C16.5986 23.3827 16.8323 24.2497 17.2759 25.0129C17.7196 25.7761 18.3573 26.4082 19.1244 26.845C19.8915 27.2818 20.7606 27.5077 21.6433 27.4998C22.526 27.4919 23.3909 27.2505 24.15 26.8C24.813 27.1934 25.558 27.4281 26.3268 27.4858C27.0955 27.5436 27.8672 27.4228 28.5815 27.1329C29.2958 26.843 29.9335 26.3919 30.4445 25.8147C30.9556 25.2376 31.3263 24.5501 31.5277 23.806C31.7291 23.0618 31.7557 22.2812 31.6054 21.5251C31.4551 20.769 31.132 20.0578 30.6613 19.4473C30.1907 18.8367 29.5852 18.3433 28.8922 18.0055C28.1993 17.6677 27.4376 17.4947 26.6667 17.5ZM21.95 24.1667C21.8558 24.1747 21.761 24.1747 21.6667 24.1667C21.2247 24.1667 20.8008 23.9911 20.4882 23.6785C20.1756 23.3659 20 22.942 20 22.5C20 22.058 20.1756 21.634 20.4882 21.3215C20.8008 21.0089 21.2247 20.8333 21.6667 20.8333C21.761 20.8253 21.8558 20.8253 21.95 20.8333C21.5729 21.8667 21.5729 23 21.95 24.0333V24.1667ZM26.6667 24.1667C26.3371 24.1667 26.0148 24.0689 25.7408 23.8858C25.4667 23.7026 25.2531 23.4423 25.1269 23.1378C25.0008 22.8333 24.9678 22.4982 25.0321 22.1748C25.0964 21.8515 25.2551 21.5546 25.4882 21.3215C25.7213 21.0884 26.0183 20.9297 26.3416 20.8654C26.6649 20.801 27 20.8341 27.3045 20.9602C27.6091 21.0863 27.8694 21.3 28.0525 21.574C28.2356 21.8481 28.3334 22.1704 28.3334 22.5C28.3334 22.942 28.1578 23.3659 27.8452 23.6785C27.5327 23.9911 27.1087 24.1667 26.6667 24.1667Z" fill="#2E095C"/>
</svg>
