<svg width="50" height="59" viewBox="0 0 50 59" fill="none" xmlns="http://www.w3.org/2000/svg">
<path d="M45.4072 21.89L44.4791 23.0392C43.0396 21.4194 42.5567 19.1143 43.2851 17.0262L43.2852 17.0259C43.473 16.4848 43.3012 15.8802 42.8547 15.5196C41.4137 14.3559 40.6461 12.6616 40.6084 10.9403L44.5837 14.1507C46.9442 16.057 47.3139 19.529 45.4072 21.89ZM46.6625 24.603C46.5242 24.5444 46.3876 24.4816 46.2537 24.4132L47.1529 23.2997C49.8371 19.976 49.3169 15.089 45.9935 12.4051L41.0865 8.44229C41.4344 7.62389 41.8596 7.11651 42.0775 6.85644C42.1065 6.82189 42.1318 6.7917 42.1528 6.76573C42.6225 6.18405 42.5301 5.3294 41.9488 4.85996L39.8325 3.15086C35.3308 -0.484647 28.7106 0.220093 25.0751 4.72183L9.60064 23.8833C9.21166 24.365 9.28698 25.0718 9.76894 25.461C10.2506 25.85 10.9574 25.7747 11.3463 25.2931L26.8207 6.13159C29.6786 2.5927 34.8839 2.03859 38.4228 4.89652L39.858 6.05558C37.4958 9.42857 37.9814 14.0562 40.9879 16.8679C40.0335 20.421 41.5496 24.238 44.7592 26.1494L27.5691 47.4353C24.7112 50.9742 19.506 51.5283 15.9667 48.6701L8.16217 42.3673C4.62327 39.5094 4.06916 34.3042 6.92709 30.7653L8.90974 28.3102C9.29965 27.8274 9.22371 27.1214 8.74213 26.7325C8.26021 26.3433 7.55402 26.4176 7.16407 26.9005L5.18143 29.3555C1.54592 33.8572 2.25066 40.4775 6.75241 44.113L7.16303 44.4446L1.89576 50.9669C0.341059 52.892 0.64252 55.7239 2.56766 57.2786C4.49281 58.8333 7.32469 58.5319 8.8794 56.6067L10.0439 55.1647C10.4332 54.6827 10.3579 53.9759 9.87592 53.5867C9.39299 53.1967 8.68737 53.2731 8.29824 53.755L7.13373 55.197C6.3566 56.1593 4.93973 56.3101 3.97742 55.533C3.01512 54.7558 2.86429 53.339 3.64143 52.3767L8.9087 45.8543L12.401 48.6747L10.7351 50.7375C10.346 51.2193 10.4198 51.9252 10.9027 52.3152C11.3847 52.7045 12.0915 52.6292 12.4808 52.1472L14.1467 50.0844L14.5569 50.4157C19.0586 54.0512 25.6792 53.3468 29.3148 48.8451L47.1939 26.7059C47.7635 26.0005 47.4917 24.947 46.6625 24.603ZM29.5564 12.2341C30.427 12.9372 31.7031 12.8017 32.4065 11.9307C33.11 11.0596 32.9738 9.78361 32.1031 9.0805C31.2321 8.37706 29.9564 8.51286 29.253 9.38391C28.5495 10.255 28.6853 11.5306 29.5564 12.2341ZM32.636 23.0292C33.5071 23.7327 34.7828 23.5969 35.4862 22.7258C36.1893 21.8552 36.0539 20.5791 35.1828 19.8757C34.3121 19.1725 33.0357 19.3084 32.3326 20.1791C31.6292 21.0501 31.7654 22.3261 32.636 23.0292ZM22.2428 26.434C23.1139 27.1375 24.3899 27.0012 25.0933 26.1302C25.7964 25.2596 25.6609 23.9835 24.7899 23.2801C23.9188 22.5766 22.6428 22.7128 21.9397 23.5835C21.2363 24.4545 21.3717 25.7306 22.2428 26.434ZM29.4882 35.7749C30.3589 36.478 31.6353 36.3421 32.3387 35.4711C33.0419 34.6004 32.906 33.324 32.0353 32.6209C31.1642 31.9174 29.8883 32.0537 29.1851 32.9243C28.4817 33.7953 28.6172 35.0714 29.4882 35.7749ZM12.0627 31.8385C12.9334 32.5416 14.2098 32.4057 14.9129 31.535C15.6163 30.664 15.4805 29.3876 14.6098 28.6845C13.7387 27.981 12.4627 28.1173 11.7593 28.9883C11.0562 29.8589 11.1916 31.135 12.0627 31.8385ZM13.403 41.6223C13.9446 43.064 15.8827 43.3999 16.873 42.1737C17.5764 41.3027 17.4406 40.027 16.5696 39.3236C14.9614 38.0248 12.6698 39.6989 13.403 41.6223ZM23.9267 46.5706C24.7978 47.2741 26.0738 47.1379 26.7772 46.2668C27.4803 45.3962 27.3449 44.1201 26.4738 43.4167C25.6031 42.7135 24.3268 42.8494 23.6236 43.7201C22.9202 44.5911 23.056 45.8675 23.9267 46.5706Z" fill="#1EE3BC" stroke="#1EE3BC" stroke-width="0.304762"/>
</svg>
