<svg width="62" height="62" viewBox="0 0 62 62" fill="none" xmlns="http://www.w3.org/2000/svg">
<path d="M58.6856 20.0192C57.5348 18.5761 56.0622 17.4928 54.4318 16.8699C54.93 15.8342 55.1913 14.7016 55.1913 13.523C55.1913 9.81703 52.2448 6.78645 48.5715 6.65049C47.1626 2.55201 42.5544 0.963783 39.0444 2.51993C38.9663 2.43131 37.1172 0.19043 33.8041 0.19043C31.9168 0.19043 30.1425 0.925284 28.808 2.25989C27.1049 3.96301 26.0077 6.43028 26.1896 9.28205C25.6457 9.19428 25.1112 9.51086 24.8882 9.99765L19.237 22.9309C18.3641 24.9296 17.8073 27.0434 17.5845 29.2139L16.9327 35.5611C16.0757 34.4077 14.8865 33.9396 13.7174 34.0023C12.5233 34.0658 11.4117 34.6863 10.7896 35.6913C10.1208 36.7717 9.99116 38.3112 10.8455 39.6519L8.3384 41.1313C6.76627 42.0589 5.31945 43.1885 4.03835 44.4888L1.47411 47.0913C0.417589 48.1635 0.0471354 49.7155 0.507176 51.1415C2.0632 55.9638 5.34693 59.2417 10.2529 60.9255C11.8707 61.4807 13.4719 60.9027 14.3752 59.9685L16.9843 57.3788C18.2629 56.1098 19.3753 54.6792 20.2905 53.1271L21.7404 50.6683C23.0861 51.4868 24.5853 51.3167 25.7336 50.512C26.7501 49.7997 27.2949 48.7388 27.3319 47.614C27.3675 46.5346 26.9492 45.4781 25.7743 44.5163C25.7743 44.5163 32.7556 43.7754 33.0189 43.7573C34.511 43.6539 34.3439 41.2436 32.8518 41.347C32.795 41.3509 24.9754 42.1642 24.9754 42.1642C24.2502 42.2279 23.1842 42.1224 22.2321 41.1895L20.2491 39.2065C19.3824 38.303 19.1968 37.354 19.2745 36.4632L19.9937 29.4609C20.191 27.5396 20.6825 25.6693 21.4561 23.9004L23.1631 19.9936C24.8253 23.1014 27.0186 25.8585 29.5831 28.2926C33.8963 32.3865 40.0549 35.3857 46.0368 36.2683C45.7365 36.3996 42.5805 37.779 42.5805 37.779C41.1242 38.4155 42.0939 40.6346 43.5502 39.9981L51.2134 36.6485C56.6234 36.529 60.9985 32.1012 61.0188 26.6588C61.0277 24.275 60.1992 21.9171 58.6856 20.0192ZM24.4343 46.5636C25.088 47.1367 25.0991 48.0023 24.2822 48.5741C23.4653 49.1459 22.446 48.4606 22.3752 47.657L21.9908 44.3742C22.7533 45.0908 23.5775 45.8123 24.4343 46.5636ZM12.8262 37.0008C13.2577 36.3008 14.3309 36.2099 14.8713 36.8697C15.559 37.7094 16.2695 38.5485 17.0195 39.3639L13.7141 38.9054C12.8392 38.7756 12.4135 37.6704 12.8262 37.0008ZM19.6049 44.7558L20.0796 48.718L18.2049 51.8973C17.3949 53.2711 16.4104 54.5372 15.2788 55.6603L12.6698 58.25C12.2412 58.6754 11.5984 58.8258 11.0325 58.6332C6.82741 57.2032 4.13835 54.5095 2.81174 50.3982C2.62966 49.8339 2.77808 49.2181 3.19914 48.7908L5.76326 46.1883C6.89726 45.0375 8.17763 44.0376 9.56913 43.2166L12.9112 41.2445L16.774 41.7765L8.56612 46.6196C7.99035 46.9594 7.79894 47.7016 8.13877 48.2774C8.47859 48.8533 9.22095 49.0447 9.79661 48.7048L16.9567 44.4799L12.7335 51.6424C12.3939 52.2184 12.5845 52.9624 13.1614 53.3001C13.7139 53.6234 14.4792 53.4594 14.8192 52.8721L19.6049 44.7558ZM40.0028 13.284C40.9272 11.5003 41.0593 9.36945 40.3013 7.45702C40.5087 6.53367 40.4806 5.5677 40.2169 4.65597C42.4044 3.81591 45.1004 4.76142 46.1433 7.09576C44.2091 7.93691 42.8532 9.8663 42.8532 12.1065C42.8532 14.5316 44.8262 16.5046 47.2513 16.5046C49.2371 16.5046 50.8527 14.889 50.8527 12.9033C50.8527 12.2348 50.3107 11.6927 49.6421 11.6927C48.9734 11.6927 48.4314 12.2348 48.4314 12.9033C48.4314 13.554 47.902 14.0833 47.2513 14.0833C46.1613 14.0833 45.2745 13.1965 45.2745 12.1065C45.2745 10.4305 46.638 9.06704 48.3139 9.06704C50.771 9.06704 52.77 11.066 52.77 13.5231C52.77 17.0372 49.5096 19.2658 46.3496 19.4374C45.3051 18.6998 44.0844 18.2629 42.7956 18.1715C40.5788 17.8708 39.0967 15.4587 40.0028 13.284ZM30.5201 3.97197C32.0114 2.43034 35.0133 1.93326 37.088 3.97197C38.339 5.20112 38.3281 7.22978 37.088 8.46983C36.276 9.28156 34.9544 9.28193 34.1426 8.46983C33.6514 7.9788 33.6514 7.17978 34.1426 6.68875C34.6153 6.216 34.6153 5.44942 34.1426 4.97655C33.6698 4.50392 32.9033 4.50392 32.4304 4.97655C30.9953 6.41163 30.9953 8.74683 32.4304 10.1819C34.0406 11.7919 36.5768 11.9258 38.3407 10.5831C38.2219 11.5888 37.7735 12.552 37.0258 13.2997C35.2323 15.0933 32.2922 15.1146 30.5199 13.2997C27.7417 10.4545 28.1478 6.42435 30.5201 3.97197ZM24.4307 17.0918L26.4828 12.3958C28.2649 14.1568 29.6341 16.2856 30.1062 18.7735C30.4403 20.5434 30.9428 22.2891 31.6001 23.9622C32.2636 25.6534 33.094 27.2902 34.0662 28.8253C29.875 25.8302 26.5433 21.7734 24.4307 17.0918ZM32.4851 18.3243C32.3928 17.8328 32.2744 17.3497 32.1311 16.8766C33.9394 17.2966 35.89 17.0153 37.4731 16.0178C37.6894 17.0478 38.3891 18.244 39.099 18.9085C38.4383 19.2429 37.8277 19.6841 37.289 20.2228C35.936 21.5759 35.0659 23.2831 34.7654 25.1355C33.7041 22.9942 32.9352 20.707 32.4851 18.3243ZM45.5068 31.2628C43.7132 33.0565 40.7946 33.0565 39.0008 31.2628C37.7551 30.0171 37.0689 28.3607 37.0689 26.599C37.0689 24.8372 37.7551 23.1807 39.0008 21.935C40.8452 20.0906 43.8625 20.2022 45.5687 21.935C46.7991 23.1846 46.7939 25.1782 45.5687 26.4329C44.8172 27.2023 43.4876 27.302 42.6233 26.4329C42.1878 25.9948 42.0875 25.199 42.6233 24.6519C43.0911 24.1743 43.0961 23.4126 42.6233 22.9397C42.1506 22.4671 41.384 22.4671 40.9111 22.9397C39.476 24.3748 39.4766 26.7092 40.9111 28.1449C42.9174 30.1528 45.6745 29.5122 46.8214 28.5469C46.7027 29.5522 46.2545 30.5152 45.5068 31.2628ZM56.473 31.8731C55.0771 33.3247 53.1141 34.2297 50.9545 34.2297C49.338 34.2297 47.7414 34.0993 46.1723 33.8401C47.0662 33.276 48.0161 32.1762 48.3945 31.4169C49.8392 32.6502 52.0195 32.5841 53.3852 31.2186C53.858 30.7459 53.858 29.9793 53.3852 29.5064C52.9125 29.0338 52.1388 29.0268 51.673 29.5064C51.2143 29.9789 50.4016 30.0126 49.8919 29.5064C49.088 28.7078 49.082 27.3546 49.8919 26.5611C50.5206 25.9451 51.8388 25.4188 53.1875 25.2676C54.5207 25.1179 55.7087 25.3475 56.2134 25.8525C57.9458 27.5849 58.0319 30.062 56.473 31.8731ZM52.9178 22.8616C51.3861 23.0333 49.9595 23.5327 48.9214 24.2409C48.9216 24.2219 48.9217 24.2029 48.9217 24.1839C48.9217 23.2664 48.7026 22.3828 48.2893 21.5925C49.9861 21.2176 51.7826 20.2334 52.9927 18.941C55.5538 19.6709 57.6103 21.8976 58.3257 24.5703C57.1168 23.0388 55.0327 22.6241 52.9178 22.8616ZM39.2843 41.0703C39.2843 41.7391 38.742 42.2814 38.0731 42.2814C37.4043 42.2814 36.862 41.7391 36.862 41.0703C36.862 40.4014 37.4043 39.8591 38.0731 39.8591C38.742 39.8591 39.2843 40.4014 39.2843 41.0703Z" fill="#FF8CCA"/>
</svg>
