<svg width="100" height="95" viewBox="0 0 100 95" fill="none" xmlns="http://www.w3.org/2000/svg">
<path fill-rule="evenodd" clip-rule="evenodd" d="M50.0005 0.00012207C51.8525 0.00012207 53.5529 1.02387 54.4194 2.66068L99.4194 87.6607C100.24 89.2105 100.189 91.0769 99.284 92.5792C98.3795 94.0815 96.7541 95.0001 95.0005 95.0001H5.00049C3.2469 95.0001 1.62148 94.0815 0.716964 92.5792C-0.187548 91.0769 -0.238932 89.2105 0.581551 87.6607L45.5815 2.66068C46.4481 1.02387 48.1484 0.00012207 50.0005 0.00012207ZM13.305 85.0001H86.696L50.0005 15.6864L13.305 85.0001Z" fill="white"/>
<path fill-rule="evenodd" clip-rule="evenodd" d="M50.0005 35C52.7619 35 55.0005 37.2386 55.0005 40V60C55.0005 62.7614 52.7619 65 50.0005 65C47.2391 65 45.0005 62.7614 45.0005 60V40C45.0005 37.2386 47.2391 35 50.0005 35Z" fill="white"/>
<path d="M50.0005 79.9999C52.7619 79.9999 55.0005 77.7613 55.0005 74.9999C55.0005 72.2385 52.7619 69.9999 50.0005 69.9999C47.2391 69.9999 45.0005 72.2385 45.0005 74.9999C45.0005 77.7613 47.2391 79.9999 50.0005 79.9999Z" fill="white"/>
</svg>
