<svg viewBox="0 0 64 64" fill="none" xmlns="http://www.w3.org/2000/svg">
<path d="M34 42.2998L41.8 43.7998L48.2 10.8998C48.6 8.69979 47.2 6.49979 45.1 6.09979C42.9 5.69979 40.8 7.19979 40.4 9.39979L34 42.2998Z" fill="#FED0AC"/>
<path d="M45.1994 6.1C44.8994 6 44.6994 6 44.3994 6C46.1994 6.7 47.1994 8.6 46.7994 10.6L40.3994 43.5L41.7994 43.8L48.1994 10.9C48.6994 8.6 47.2994 6.5 45.1994 6.1Z" fill="#E0A372"/>
<path d="M26 43.3H35.4V7C35.4 4.3 33.3 2 30.7 2C28.2 2 26 4.2 26 7V43.3Z" fill="#FED0AC"/>
<path d="M30.8006 2C30.6006 2 30.3006 2 30.1006 2.1C32.4006 2.5 34.1006 4.5 34.1006 7V43.4H35.5006V7C35.5006 4.2 33.4006 2 30.8006 2Z" fill="#E0A372"/>
<path d="M21.0001 43.1998L29.0001 41.0998L20.3001 7.99982C19.7001 5.69982 17.4001 4.29982 15.2001 4.79982C13.0001 5.39982 11.7001 7.69982 12.3001 9.99982L21.0001 43.1998Z" fill="#FED0AC"/>
<path d="M15.2006 4.79982L14.6006 5.09982C16.6006 4.99982 18.4006 6.29982 19.0006 8.39982L27.7006 41.4998L29.1006 41.0998L20.3006 7.99982C19.7006 5.69982 17.4006 4.29982 15.2006 4.79982Z" fill="#E0A372"/>
<path d="M3.99982 13.4004C2.09982 14.3004 1.49982 16.7004 2.49982 18.7004L15.6998 45.0004L22.3998 41.6004L9.19982 15.3004C8.19982 13.3004 5.89982 12.5004 3.99982 13.4004Z" fill="#FED0AC"/>
<path d="M3.99941 13.4004C3.79941 13.5004 3.59941 13.6004 3.39941 13.8004C5.09941 13.3004 6.99941 14.2004 7.89941 16.0004L21.0994 42.3004L22.3994 41.7004L9.19941 15.3004C8.19941 13.3004 5.89941 12.5004 3.99941 13.4004Z" fill="#E0A372"/>
<path d="M61.6999 29.3003C60.0999 26.2003 55.0999 26.4003 49.9999 32.0003C46.3999 35.9003 45.6999 37.2003 42.0999 37.1003V33.0003C42.0999 33.0003 34.3999 27.3003 19.0999 29.9003C19.0999 29.9003 10.3999 31.1003 10.3999 35.7003C10.3999 35.7003 8.89992 46.8003 11.9999 53.8003C16.5999 64.2003 40.1999 66.9003 47.5999 49.2003C49.0999 45.7003 52.0999 43.1003 54.7999 39.8003C57.8999 35.8003 63.3999 32.6003 61.6999 29.3003Z" fill="#FED0AC"/>
<path d="M61.7006 29.2994C61.4006 28.6994 61.0006 28.2994 60.5006 27.8994C60.6006 27.9994 60.7006 28.0994 60.7006 28.2994C62.4006 31.6994 56.9006 34.7994 53.6006 38.7994C50.9006 42.0994 47.9006 44.6994 46.4006 48.1994C40.0006 63.4994 21.4006 63.4994 13.6006 56.4994C20.7006 64.4994 40.7006 65.2994 47.4006 49.1994C48.9006 45.6994 51.9006 43.0994 54.6006 39.7994C57.9006 35.7994 63.4006 32.5994 61.7006 29.2994Z" fill="#E0A372"/>
<path d="M43.1005 37.0994C36.6005 34.6994 25.0005 39.0994 26.6005 50.7994C26.6005 39.8994 36.5005 37.1994 41.9005 37.1994C42.7005 37.0994 43.1005 37.0994 43.1005 37.0994Z" fill="#E0A372"/>
</svg>
