<svg width="40" height="40" viewBox="0 0 40 40" fill="none" xmlns="http://www.w3.org/2000/svg">
<path d="M9.99996 18.3333C9.67032 18.3333 9.34809 18.431 9.07401 18.6141C8.79993 18.7973 8.58631 19.0576 8.46016 19.3621C8.33401 19.6667 8.30101 20.0018 8.36532 20.3251C8.42963 20.6484 8.58836 20.9453 8.82145 21.1784C9.05453 21.4115 9.35151 21.5703 9.67481 21.6346C9.99811 21.6989 10.3332 21.6659 10.6378 21.5397C10.9423 21.4136 11.2026 21.2 11.3857 20.9259C11.5689 20.6518 11.6666 20.3296 11.6666 19.9999C11.6666 19.5579 11.491 19.134 11.1785 18.8214C10.8659 18.5088 10.442 18.3333 9.99996 18.3333ZM30 18.3333C29.6703 18.3333 29.3481 18.431 29.074 18.6141C28.7999 18.7973 28.5863 19.0576 28.4602 19.3621C28.334 19.6667 28.301 20.0018 28.3653 20.3251C28.4296 20.6484 28.5884 20.9453 28.8214 21.1784C29.0545 21.4115 29.3515 21.5703 29.6748 21.6346C29.9981 21.6989 30.3332 21.6659 30.6378 21.5397C30.9423 21.4136 31.2026 21.2 31.3857 20.9259C31.5689 20.6518 31.6666 20.3296 31.6666 19.9999C31.6666 19.5579 31.491 19.134 31.1785 18.8214C30.8659 18.5088 30.442 18.3333 30 18.3333ZM33.3333 8.33325H6.66663C5.34054 8.33325 4.06877 8.86004 3.13109 9.79772C2.19341 10.7354 1.66663 12.0072 1.66663 13.3333V26.6666C1.66663 27.9927 2.19341 29.2644 3.13109 30.2021C4.06877 31.1398 5.34054 31.6666 6.66663 31.6666H33.3333C34.6594 31.6666 35.9311 31.1398 36.8688 30.2021C37.8065 29.2644 38.3333 27.9927 38.3333 26.6666V13.3333C38.3333 12.0072 37.8065 10.7354 36.8688 9.79772C35.9311 8.86004 34.6594 8.33325 33.3333 8.33325ZM35 26.6666C35 27.1086 34.8244 27.5325 34.5118 27.8451C34.1992 28.1577 33.7753 28.3333 33.3333 28.3333H6.66663C6.2246 28.3333 5.80067 28.1577 5.48811 27.8451C5.17555 27.5325 4.99996 27.1086 4.99996 26.6666V13.3333C4.99996 12.8912 5.17555 12.4673 5.48811 12.1547C5.80067 11.8422 6.2246 11.6666 6.66663 11.6666H33.3333C33.7753 11.6666 34.1992 11.8422 34.5118 12.1547C34.8244 12.4673 35 12.8912 35 13.3333V26.6666ZM20 14.9999C19.0111 14.9999 18.0444 15.2932 17.2221 15.8426C16.3999 16.392 15.759 17.1729 15.3806 18.0865C15.0021 19.0001 14.9031 20.0055 15.096 20.9754C15.289 21.9453 15.7652 22.8362 16.4644 23.5355C17.1637 24.2347 18.0546 24.7109 19.0245 24.9038C19.9944 25.0968 20.9997 24.9978 21.9134 24.6193C22.827 24.2409 23.6079 23.6 24.1573 22.7778C24.7067 21.9555 25 20.9888 25 19.9999C25 18.6738 24.4732 17.4021 23.5355 16.4644C22.5978 15.5267 21.326 14.9999 20 14.9999ZM20 21.6666C19.6703 21.6666 19.3481 21.5688 19.074 21.3857C18.7999 21.2026 18.5863 20.9423 18.4602 20.6377C18.334 20.3332 18.301 19.9981 18.3653 19.6748C18.4296 19.3515 18.5884 19.0545 18.8214 18.8214C19.0545 18.5883 19.3515 18.4296 19.6748 18.3653C19.9981 18.301 20.3332 18.334 20.6378 18.4601C20.9423 18.5863 21.2026 18.7999 21.3857 19.074C21.5689 19.3481 21.6666 19.6703 21.6666 19.9999C21.6666 20.4419 21.491 20.8659 21.1785 21.1784C20.8659 21.491 20.442 21.6666 20 21.6666Z" fill="#2E095C"/>
</svg>
