<?xml version="1.0" encoding="UTF-8"?>
<svg width="100px" height="101px" viewBox="0 0 100 101" version="1.1" xmlns="http://www.w3.org/2000/svg" xmlns:xlink="http://www.w3.org/1999/xlink">
    <title>Promo</title>
    <defs>
        <path d="M35.772,0.991 C34.216,1.408 32.757,2.128 31.481,3.11 L31.481,3.11 C30.204,4.093 29.134,5.319 28.332,6.716 L28.332,6.716 L25.582,11.479 C23.961,14.27 21.301,16.306 18.184,17.143 L18.184,17.143 L12.817,18.581 C9.685,19.421 7.015,21.469 5.395,24.277 L5.395,24.277 C3.773,27.085 3.333,30.421 4.173,33.553 L4.173,33.553 L5.611,38.92 C6.445,42.038 6.011,45.359 4.405,48.159 L4.405,48.159 L1.655,52.923 C0.846,54.316 0.319,55.855 0.107,57.451 L0.107,57.451 C-0.105,59.049 0.000477928474,60.672 0.417,62.228 L0.417,62.228 C0.833,63.784 1.554,65.243 2.536,66.519 L2.536,66.519 C3.519,67.796 4.745,68.866 6.141,69.667 L6.141,69.667 L10.905,72.418 C13.696,74.039 15.732,76.699 16.569,79.816 L16.569,79.816 L18.007,85.183 C18.847,88.315 20.895,90.985 23.703,92.605 L23.703,92.605 C26.51,94.227 29.847,94.666 32.979,93.827 L32.979,93.827 L38.345,92.389 C41.464,91.555 44.785,91.989 47.585,93.595 L47.585,93.595 L52.348,96.345 C53.742,97.155 55.281,97.681 56.877,97.893 L56.877,97.893 C58.475,98.106 60.097,98.0001909 61.654,97.583 L61.654,97.583 C63.21,97.167 64.669,96.446 65.945,95.464 L65.945,95.464 C67.222,94.481 68.292,93.256 69.094,91.858 L69.094,91.858 L71.843,87.095 C73.465,84.304 76.125,82.268 79.242,81.431 L79.242,81.431 L84.609,79.993 C87.741,79.153 90.41,77.105 92.031,74.297 L92.031,74.297 C93.653,71.49 94.091,68.153 93.253,65.021 L93.253,65.021 L91.814,59.655 C90.981,56.536 91.415,53.215 93.02,50.415 L93.02,50.415 L95.771,45.652 C96.581,44.258 97.106,42.719 97.319,41.123 L97.319,41.123 C97.532,39.525 97.4262288,37.903 97.01,36.346 L97.01,36.346 C96.592,34.79 95.872,33.331 94.89,32.055 L94.89,32.055 C93.907,30.778 92.682,29.708 91.283,28.906 L91.283,28.906 L86.521,26.157 C83.73,24.535 81.694,21.875 80.857,18.758 L80.857,18.758 L79.419,13.391 C78.579,10.259 76.531,7.59 73.723,5.969 L73.723,5.969 C70.915,4.347 67.579,3.908 64.447,4.747 L64.447,4.747 L59.08,6.186 C55.962,7.019 52.641,6.585 49.841,4.98 L49.841,4.98 L45.077,2.229 C43.684,1.42 42.145,0.894 40.549,0.681 L40.549,0.681 C40.013,0.61 39.474,0.575 38.936,0.575 L38.936,0.575 C37.87,0.575 36.806,0.714 35.772,0.991" id="path-1"></path>
        <linearGradient x1="50%" y1="0%" x2="50%" y2="100%" id="linearGradient-3">
            <stop stop-color="#9C3BFC" offset="0%"></stop>
            <stop stop-color="#3B1E46" offset="100%"></stop>
        </linearGradient>
        <polygon id="path-4" points="0.000402827395 0.574402827 99.425 0.574402827 99.425 100 0.000402827395 100"></polygon>
    </defs>
    <g id="Page-1" stroke="none" stroke-width="1" fill="none" fill-rule="evenodd">
        <g id="Artboard" transform="translate(-12.000000, -11.000000)">
            <g id="Group-10" transform="translate(12.000000, 11.000000)">
                <g id="Group-3" transform="translate(1.000000, 1.425700)">
                    <mask id="mask-2" fill="white">
                        <use xlink:href="#path-1"></use>
                    </mask>
                    <g id="Clip-2"></g>
                    <path d="M35.772,0.991 C34.216,1.408 32.757,2.128 31.481,3.11 L31.481,3.11 C30.204,4.093 29.134,5.319 28.332,6.716 L28.332,6.716 L25.582,11.479 C23.961,14.27 21.301,16.306 18.184,17.143 L18.184,17.143 L12.817,18.581 C9.685,19.421 7.015,21.469 5.395,24.277 L5.395,24.277 C3.773,27.085 3.333,30.421 4.173,33.553 L4.173,33.553 L5.611,38.92 C6.445,42.038 6.011,45.359 4.405,48.159 L4.405,48.159 L1.655,52.923 C0.846,54.316 0.319,55.855 0.107,57.451 L0.107,57.451 C-0.105,59.049 0.000477928474,60.672 0.417,62.228 L0.417,62.228 C0.833,63.784 1.554,65.243 2.536,66.519 L2.536,66.519 C3.519,67.796 4.745,68.866 6.141,69.667 L6.141,69.667 L10.905,72.418 C13.696,74.039 15.732,76.699 16.569,79.816 L16.569,79.816 L18.007,85.183 C18.847,88.315 20.895,90.985 23.703,92.605 L23.703,92.605 C26.51,94.227 29.847,94.666 32.979,93.827 L32.979,93.827 L38.345,92.389 C41.464,91.555 44.785,91.989 47.585,93.595 L47.585,93.595 L52.348,96.345 C53.742,97.155 55.281,97.681 56.877,97.893 L56.877,97.893 C58.475,98.106 60.097,98.0001909 61.654,97.583 L61.654,97.583 C63.21,97.167 64.669,96.446 65.945,95.464 L65.945,95.464 C67.222,94.481 68.292,93.256 69.094,91.858 L69.094,91.858 L71.843,87.095 C73.465,84.304 76.125,82.268 79.242,81.431 L79.242,81.431 L84.609,79.993 C87.741,79.153 90.41,77.105 92.031,74.297 L92.031,74.297 C93.653,71.49 94.091,68.153 93.253,65.021 L93.253,65.021 L91.814,59.655 C90.981,56.536 91.415,53.215 93.02,50.415 L93.02,50.415 L95.771,45.652 C96.581,44.258 97.106,42.719 97.319,41.123 L97.319,41.123 C97.532,39.525 97.4262288,37.903 97.01,36.346 L97.01,36.346 C96.592,34.79 95.872,33.331 94.89,32.055 L94.89,32.055 C93.907,30.778 92.682,29.708 91.283,28.906 L91.283,28.906 L86.521,26.157 C83.73,24.535 81.694,21.875 80.857,18.758 L80.857,18.758 L79.419,13.391 C78.579,10.259 76.531,7.59 73.723,5.969 L73.723,5.969 C70.915,4.347 67.579,3.908 64.447,4.747 L64.447,4.747 L59.08,6.186 C55.962,7.019 52.641,6.585 49.841,4.98 L49.841,4.98 L45.077,2.229 C43.684,1.42 42.145,0.894 40.549,0.681 L40.549,0.681 C40.013,0.61 39.474,0.575 38.936,0.575 L38.936,0.575 C37.87,0.575 36.806,0.714 35.772,0.991" id="Fill-1" fill="url(#linearGradient-3)" mask="url(#mask-2)"></path>
                </g>
                <g id="Group-9" transform="translate(0.000000, 0.425700)">
                    <g id="Group-6">
                        <mask id="mask-5" fill="white">
                            <use xlink:href="#path-4"></use>
                        </mask>
                        <g id="Clip-5"></g>
                        <path d="M7.577,39.661 L6.139,34.294 L4.207,34.812 L5.645,40.179 L7.577,39.661 Z M6.273,49.657 C8.01,46.628 8.479,43.035 7.577,39.662 L5.645,40.178 C6.41,43.041 6.012,46.091 4.538,48.661 L6.273,49.657 Z M3.521,54.423 L6.271,49.659 L4.539,48.659 L1.789,53.423 L3.521,54.423 Z M2.098,58.584 C2.293,57.117 2.776,55.704 3.52,54.425 L1.79,53.42 C0.915,54.927 0.345,56.592 0.116,58.32 L2.098,58.584 Z M2.382,62.969 C2,61.54 1.903,60.05 2.098,58.584 L0.116,58.32 C-0.114,60.047 0,61.803 0.451,63.487 L2.382,62.969 Z M4.329,66.91 C3.427,65.737 2.765,64.398 2.382,62.969 L0.451,63.487 C0.902,65.17 1.681,66.748 2.744,68.129 L4.329,66.91 Z M7.639,69.8 C6.356,69.064 5.231,68.082 4.329,66.91 L2.744,68.129 C3.807,69.51 5.132,70.668 6.644,71.535 L7.639,69.8 Z M12.405,72.552 L7.642,69.802 L6.642,71.534 L11.405,74.284 L12.405,72.552 Z M18.535,80.557 C17.629,77.185 15.427,74.308 12.408,72.553 L11.403,74.283 C13.965,75.772 15.835,78.214 16.603,81.076 L18.535,80.557 Z M19.973,85.925 L18.535,80.557 L16.603,81.075 L18.041,86.442 L19.973,85.925 Z M25.203,92.74 C22.625,91.252 20.744,88.8 19.973,85.925 L18.041,86.442 C18.949,89.83 21.165,92.718 24.203,94.472 L25.203,92.74 Z M33.72,93.861 C30.844,94.632 27.781,94.228 25.203,92.74 L24.203,94.472 C27.24,96.226 30.85,96.701 34.237,95.793 L33.72,93.861 Z M39.087,92.423 L33.72,93.861 L34.237,95.793 L39.604,94.355 L39.087,92.423 Z M49.082,93.728 C46.054,91.99 42.46,91.521 39.087,92.423 L39.604,94.355 C42.467,93.59 45.516,93.988 48.087,95.462 L49.082,93.728 Z M53.848,96.479 L49.085,93.729 L48.085,95.461 L52.848,98.211 L53.848,96.479 Z M58.009,97.902 C56.543,97.707 55.13,97.224 53.851,96.481 L52.846,98.21 C54.353,99.085 56.018,99.655 57.745,99.885 L58.009,97.902 Z M62.395,97.618 C60.966,98.001 59.476,98.097 58.009,97.902 L57.745,99.885 C59.473,100.114 61.229,100.001 62.913,99.55 L62.395,97.618 Z M66.335,95.671 C65.163,96.573 63.824,97.235 62.395,97.618 L62.913,99.55 C64.596,99.098 66.174,98.319 67.555,97.256 L66.335,95.671 Z M69.226,92.361 C68.49,93.644 67.507,94.769 66.335,95.671 L67.555,97.256 C68.936,96.193 70.094,94.868 70.961,93.356 L69.226,92.361 Z M71.978,87.595 L69.227,92.358 L70.959,93.358 L73.71,88.595 L71.978,87.595 Z M79.983,81.465 C76.611,82.371 73.733,84.573 71.979,87.592 L73.708,88.597 C75.197,86.035 77.639,84.165 80.501,83.397 L79.983,81.465 Z M85.35,80.027 L79.983,81.465 L80.501,83.397 L85.868,81.959 L85.35,80.027 Z M92.166,74.797 C90.678,77.375 88.226,79.256 85.35,80.027 L85.868,81.959 C89.256,81.051 92.144,78.835 93.898,75.797 L92.166,74.797 Z M93.287,66.28 C94.058,69.156 93.654,72.219 92.166,74.797 L93.898,75.797 C95.652,72.76 96.127,69.15 95.219,65.763 L93.287,66.28 Z M91.849,60.913 L93.287,66.28 L95.219,65.763 L93.781,60.396 L91.849,60.913 Z M93.153,50.918 C91.416,53.946 90.947,57.539 91.849,60.913 L93.781,60.396 C93.016,57.533 93.414,54.484 94.888,51.913 L93.153,50.918 Z M95.905,46.152 L93.155,50.915 L94.887,51.915 L97.637,47.152 L95.905,46.152 Z M97.328,41.991 C97.133,43.457 96.65,44.87 95.907,46.149 L97.636,47.154 C98.511,45.647 99.081,43.982 99.31,42.254 L97.328,41.991 Z M97.044,37.605 C97.426,39.034 97.523,40.524 97.328,41.991 L99.31,42.254 C99.54,40.527 99.427,38.771 98.975,37.087 L97.044,37.605 Z M95.097,33.665 C95.999,34.837 96.661,36.176 97.044,37.605 L98.975,37.087 C98.524,35.404 97.745,33.826 96.682,32.445 L95.097,33.665 Z M91.787,30.774 C93.07,31.51 94.195,32.492 95.097,33.665 L96.682,32.445 C95.619,31.064 94.294,29.906 92.782,29.039 L91.787,30.774 Z M87.02,28.022 L91.784,30.773 L92.784,29.041 L88.02,26.29 L87.02,28.022 Z M80.891,20.017 C81.796,23.389 83.999,26.267 87.018,28.021 L88.023,26.292 C85.46,24.803 83.591,22.361 82.822,19.499 L80.891,20.017 Z M79.452,14.65 L80.891,20.017 L82.822,19.499 L81.384,14.132 L79.452,14.65 Z M74.223,7.834 C76.801,9.323 78.682,11.774 79.452,14.65 L81.384,14.132 C80.477,10.744 78.26,7.856 75.223,6.102 L74.223,7.834 Z M65.706,6.713 C68.581,5.943 71.645,6.346 74.223,7.834 L75.223,6.102 C72.186,4.349 68.576,3.874 65.188,4.781 L65.706,6.713 Z M60.339,8.151 L65.706,6.713 L65.188,4.781 L59.821,6.219 L60.339,8.151 Z M50.343,6.847 C53.372,8.584 56.965,9.053 60.338,8.151 L59.822,6.219 C56.959,6.985 53.909,6.587 51.338,5.112 L50.343,6.847 Z M45.577,4.095 L50.341,6.846 L51.341,5.113 L46.577,2.363 L45.577,4.095 Z M41.416,2.672 C42.883,2.867 44.296,3.351 45.575,4.094 L46.58,2.365 C45.073,1.489 43.408,0.92 41.68,0.69 L41.416,2.672 Z M37.031,2.957 C38.46,2.574 39.95,2.477 41.416,2.672 L41.68,0.69 C39.952,0.46 38.196,0.574 36.513,1.025 L37.031,2.957 Z M33.09,4.903 C34.263,4.001 35.602,3.34 37.031,2.957 L36.513,1.025 C34.83,1.476 33.252,2.255 31.871,3.318 L33.09,4.903 Z M30.2,8.214 C30.936,6.93 31.918,5.805 33.09,4.903 L31.871,3.318 C30.489,4.381 29.332,5.707 28.465,7.218 L30.2,8.214 Z M27.448,12.98 L30.198,8.216 L28.466,7.216 L25.716,11.98 L27.448,12.98 Z M19.443,19.109 C22.815,18.204 25.692,16.001 27.447,12.982 L25.717,11.977 C24.228,14.54 21.786,16.409 18.924,17.178 L19.443,19.109 Z M14.075,20.548 L19.442,19.109 L18.925,17.178 L13.558,18.616 L14.075,20.548 Z M7.26,25.777 C8.748,23.199 11.2,21.318 14.075,20.548 L13.558,18.616 C10.17,19.523 7.282,21.74 5.528,24.777 L7.26,25.777 Z M6.139,34.294 C5.368,31.419 5.772,28.355 7.26,25.777 L5.528,24.777 C3.774,27.814 3.299,31.424 4.207,34.812 L6.139,34.294 Z M6.611,39.92 L7.577,39.662 L7.577,39.661 L6.611,39.92 Z M5.405,49.159 L6.271,49.659 L6.273,49.657 L5.405,49.159 Z M2.655,53.923 L3.52,54.425 L3.521,54.423 L2.655,53.923 Z M1.417,63.228 L0.451,63.487 L1.417,63.228 Z M7.142,70.668 L7.642,69.802 L7.639,69.8 L7.142,70.668 Z M11.905,73.418 L12.408,72.553 L12.405,72.552 L11.905,73.418 Z M17.569,80.816 L18.535,80.557 L18.535,80.557 L17.569,80.816 Z M19.007,86.183 L18.041,86.442 L19.007,86.183 Z M39.345,93.389 L39.087,92.423 L39.087,92.423 L39.345,93.389 Z M48.585,94.595 L49.085,93.729 L49.082,93.728 L48.585,94.595 Z M53.348,97.345 L53.851,96.481 L53.848,96.479 L53.348,97.345 Z M70.093,92.858 L69.227,92.358 L69.226,92.361 L70.093,92.858 Z M72.844,88.095 L71.979,87.592 L71.978,87.595 L72.844,88.095 Z M80.242,82.431 L79.983,81.465 L79.983,81.465 L80.242,82.431 Z M92.815,60.654 L91.849,60.913 L91.849,60.913 L92.815,60.654 Z M94.021,51.415 L93.155,50.915 L93.153,50.918 L94.021,51.415 Z M96.771,46.652 L95.907,46.149 L95.905,46.152 L96.771,46.652 Z M92.284,29.907 L91.784,30.773 L91.787,30.774 L92.284,29.907 Z M87.52,27.156 L87.018,28.021 L87.02,28.022 L87.52,27.156 Z M81.856,19.758 L80.891,20.017 L80.891,20.017 L81.856,19.758 Z M65.447,5.747 L65.188,4.781 L65.447,5.747 Z M60.08,7.185 L60.338,8.151 L60.339,8.151 L60.08,7.185 Z M50.841,5.979 L50.341,6.846 L50.343,6.847 L50.841,5.979 Z M46.077,3.229 L45.575,4.094 L45.577,4.095 L46.077,3.229 Z M36.772,1.991 L36.513,1.025 L36.772,1.991 Z M29.332,7.716 L30.198,8.216 L30.2,8.214 L29.332,7.716 Z M26.582,12.48 L27.447,12.982 L27.448,12.98 L26.582,12.48 Z M19.184,18.143 L19.442,19.109 L19.443,19.109 L19.184,18.143 Z M13.817,19.582 L13.558,18.616 L13.817,19.582 Z" id="Fill-4" fill="#BF89F5" mask="url(#mask-5)"></path>
                    </g>
                    <path d="M79.0008,49.6863 C80.5258,49.2773 81.4588,49.7123 81.8018,50.9893 C82.1498,52.2883 81.5608,53.1413 80.0358,53.5503 L68.5378,56.6313 C67.8988,56.8023 67.3338,56.7543 66.8428,56.4883 C66.3678,56.1963 66.0518,55.7623 65.8978,55.1853 C65.6988,54.4433 65.8148,53.6833 66.2468,52.9053 L71.1178,43.8813 C72.2118,41.8653 72.5768,40.1773 72.2128,38.8173 C71.9858,37.9723 71.5778,37.3973 70.9878,37.0913 C70.3928,36.7643 69.6418,36.7233 68.7348,36.9663 C67.9518,37.1753 67.2668,37.5033 66.6788,37.9473 C66.0908,38.3923 65.4338,38.9883 64.7058,39.7353 C64.4108,40.0353 64.1818,40.2513 64.0188,40.3833 C63.8548,40.5153 63.6498,40.6143 63.4028,40.6803 C62.9698,40.7963 62.5468,40.7003 62.1328,40.3913 C61.7128,40.0623 61.4308,39.6293 61.2878,39.0943 C61.1828,38.7023 61.1588,38.3663 61.2168,38.0863 C61.2888,37.7793 61.4518,37.4813 61.7058,37.1933 C62.4508,36.2643 63.3688,35.4443 64.4588,34.7323 C65.5648,33.9943 66.7248,33.4623 67.9408,33.1373 C69.4038,32.7453 70.7478,32.6503 71.9718,32.8513 C73.2178,33.0483 74.2628,33.5303 75.1088,34.2973 C75.9498,35.0433 76.5298,36.0143 76.8508,37.2093 C77.1868,38.4663 77.2308,39.7033 76.9828,40.9183 C76.7548,42.1273 76.1988,43.5573 75.3158,45.2073 L71.8298,51.6083 L79.0008,49.6863 Z M60.7228,55.0143 C61.2358,55.3633 61.5588,55.7843 61.6918,56.2793 C61.8518,56.8763 61.7558,57.4653 61.4028,58.0463 C61.0658,58.6003 60.5978,58.9573 60.0008,59.1173 C59.3828,59.2833 58.7878,59.1663 58.2168,58.7673 L50.5008,53.2153 L46.5328,61.8973 C46.2178,62.5343 45.7618,62.9323 45.1638,63.0923 C44.5868,63.2473 44.0038,63.1723 43.4138,62.8663 C42.8388,62.5343 42.4718,62.0693 42.3108,61.4723 C42.1728,60.9563 42.2318,60.4333 42.4868,59.9013 L46.8018,50.6613 L38.7188,44.9753 C38.2058,44.6273 37.8838,44.2053 37.7508,43.7113 C37.5908,43.1133 37.6798,42.5373 38.0168,41.9833 C38.3688,41.4033 38.8338,41.0353 39.4108,40.8813 C40.0288,40.7153 40.6368,40.8393 41.2338,41.2543 L48.7208,46.5693 L52.4848,38.2393 C52.7948,37.5823 53.2588,37.1703 53.8768,37.0053 C54.4538,36.8503 55.0298,36.9393 55.6048,37.2703 C56.1938,37.5763 56.5688,38.0283 56.7298,38.6253 C56.8678,39.1403 56.8088,39.6643 56.5538,40.1963 L52.3968,49.1623 L60.7228,55.0143 Z M31.6108,54.5003 C32.9878,54.5283 34.1398,54.9153 35.0688,55.6603 C36.0128,56.3793 36.6608,57.3983 37.0138,58.7173 C37.3508,59.9743 37.3138,61.1543 36.9028,62.2583 C36.5128,63.3573 35.7788,64.3263 34.7008,65.1673 C33.6178,65.9883 32.2718,66.6133 30.6648,67.0443 C29.3258,67.4033 27.9848,67.5523 26.6438,67.4923 C25.3228,67.4263 24.1258,67.1613 23.0518,66.6983 C22.6828,66.5543 22.3898,66.3683 22.1738,66.1393 C21.9778,65.9043 21.8338,65.6113 21.7398,65.2613 C21.5958,64.7253 21.6288,64.2313 21.8388,63.7773 C22.0428,63.3023 22.3618,63.0073 22.7938,62.8913 C23.0418,62.8253 23.2788,62.8063 23.5078,62.8333 C23.7298,62.8393 24.0208,62.8943 24.3798,62.9973 C25.4238,63.2693 26.3118,63.4513 27.0428,63.5423 C27.7748,63.6333 28.5828,63.5603 29.4688,63.3223 C30.7258,62.9863 31.5828,62.5133 32.0378,61.9053 C32.4878,61.2773 32.5798,60.4683 32.3148,59.4793 C32.0558,58.5103 31.5688,57.8903 30.8558,57.6173 C30.1418,57.3453 29.1258,57.3853 27.8068,57.7383 L25.9838,58.2273 C25.4478,58.3713 24.9758,58.2983 24.5668,58.0103 C24.1588,57.7223 23.8858,57.3203 23.7478,56.8053 C23.6148,56.3113 23.6538,55.8373 23.8628,55.3833 C24.0728,54.9293 24.4458,54.6303 24.9818,54.4873 L26.2798,54.1393 C27.5368,53.8023 28.4058,53.3373 28.8878,52.7453 C29.3898,52.1463 29.5198,51.3943 29.2768,50.4873 C29.0448,49.6213 28.6078,49.0213 27.9658,48.6853 C27.3178,48.3283 26.5298,48.2743 25.6028,48.5233 C24.8408,48.7273 24.1658,49.0523 23.5778,49.4963 C22.9898,49.9413 22.3328,50.5363 21.6048,51.2843 C21.3458,51.5523 21.1238,51.7553 20.9398,51.8923 C20.7508,52.0093 20.5318,52.1013 20.2848,52.1673 C19.8528,52.2833 19.4318,52.1973 19.0228,51.9093 C18.6088,51.6003 18.3308,51.1783 18.1868,50.6423 C18.0878,50.2723 18.0668,49.9463 18.1238,49.6653 C18.1958,49.3593 18.3568,49.0513 18.6048,48.7413 C19.2828,47.8093 20.1668,46.9873 21.2568,46.2753 C22.3678,45.5583 23.5518,45.0313 24.8088,44.6943 C26.2718,44.3023 27.6258,44.2043 28.8718,44.4003 C30.1108,44.5763 31.1488,45.0273 31.9838,45.7533 C32.8188,46.4793 33.3938,47.4293 33.7078,48.6043 C34.0228,49.7783 33.9898,50.8913 33.6088,51.9433 C33.2428,52.9693 32.5768,53.8213 31.6108,54.5003 L31.6108,54.5003 Z" id="Fill-7" fill="#FFFFFF"></path>
                </g>
            </g>
        </g>
    </g>
</svg>