<svg width="84" height="84" viewBox="0 0 84 84" fill="none" xmlns="http://www.w3.org/2000/svg">
<path d="M36.481 81.5391C36.481 80.1799 37.5828 79.0781 38.9419 79.0781C40.301 79.0781 41.4028 80.1799 41.4028 81.5391C41.4028 82.8982 40.301 84 38.9419 84C37.5828 84 36.481 82.8982 36.481 81.5391Z" fill="#FCDC4C"/>
<path d="M0 45.0581C0 43.699 1.1018 42.5972 2.46094 42.5972C3.82008 42.5972 4.92188 43.699 4.92188 45.0581C4.92188 46.4172 3.82008 47.519 2.46094 47.519C1.1018 47.519 0 46.4172 0 45.0581Z" fill="#FCEB65"/>
<path d="M41.4028 71.6953C41.4028 70.3362 42.5046 69.2344 43.8638 69.2344C45.2229 69.2344 46.3247 70.3362 46.3247 71.6953C46.3247 73.0544 45.2229 74.1562 43.8638 74.1562C42.5046 74.1562 41.4028 73.0544 41.4028 71.6953Z" fill="#FCDC4C"/>
<path d="M5.42781 83.3769C11.5682 77.4387 18.0829 83.9995 18.0829 83.9995C35.27 79.3489 34.6565 61.9348 34.6565 61.9348L28.3606 50.9985L3.41821 80.5815C4.3432 82.3212 5.42781 83.3769 5.42781 83.3769Z" fill="#FCDC4C"/>
<path d="M0.123901 65.7934L4.92847 68.9138C0.930761 73.5266 1.98191 77.8795 3.41828 80.5818L30.6809 53.3192L22.0648 49.3435C22.065 49.3435 4.77442 48.6063 0.123901 65.7934Z" fill="#FCEB65"/>
<path d="M34.6566 61.9353L28.3607 50.999L17.8932 66.1071C28.0309 68.5609 34.6566 61.9353 34.6566 61.9353Z" fill="#F02972"/>
<path d="M34.657 61.9353L28.3611 50.999L17.8936 66.1071C28.0313 68.5609 34.657 61.9353 34.657 61.9353Z" fill="black" fill-opacity="0.2"/>
<path d="M17.8931 66.1067L30.6808 53.319L22.0647 49.3433C22.0649 49.3433 15.4391 55.9689 17.8931 66.1067Z" fill="#F02972"/>
<path d="M28.3607 55.639L34.6566 61.9349L38.3677 58.2238L32.0718 47.2876L28.3607 55.639Z" fill="#CFCFE6"/>
<path d="M25.7759 45.6323L22.0649 49.3434L28.3607 55.6393L34.3919 49.608L25.7759 45.6323Z" fill="#ECE6F2"/>
<path d="M42.0786 54.5129L35.7827 43.5767L32.0718 51.9279L38.3677 58.2238L42.0786 54.5129Z" fill="#A3AACC"/>
<path d="M29.4868 41.9214L25.7759 45.6323L32.0718 51.9282L38.1029 45.8971L29.4868 41.9214Z" fill="#CFCFE6"/>
<path d="M64.7719 42.1938C67.2591 51.8286 53.3264 65.7611 53.3264 65.7611L45.7896 58.2242L53.775 44.0097L64.7719 42.1938Z" fill="#F02972"/>
<path d="M64.7714 42.1934C67.2586 51.8281 53.3259 65.7606 53.3259 65.7606L45.7891 58.2237L53.7745 44.0092L64.7714 42.1934Z" fill="black" fill-opacity="0.2"/>
<path d="M41.8063 19.228C32.1715 16.7408 18.239 30.6735 18.239 30.6735L25.7759 38.2104L39.9904 30.225L41.8063 19.228Z" fill="#F02972"/>
<path d="M82.4168 1.58301L56.624 22.7354L73.4137 34.8846C82.7912 26.6024 86.3566 13.5049 82.4168 1.58301Z" fill="#F02972"/>
<path d="M82.4168 1.58301L56.624 22.7354L73.4137 34.8846C82.7912 26.6024 86.3566 13.5049 82.4168 1.58301Z" fill="black" fill-opacity="0.2"/>
<path d="M49.1152 10.5863L58.9442 25.0556L82.4168 1.58318C70.4949 -2.35661 57.3974 1.20879 49.1152 10.5863Z" fill="#F02972"/>
<path d="M61.2643 22.7354L46.2032 33.1561L35.7825 48.2172L45.7893 58.224L72.8854 35.3417C73.0637 35.1911 73.2393 35.0384 73.4135 34.8845L61.2643 22.7354Z" fill="#ECE6F2"/>
<path d="M49.1152 10.5859C48.9613 10.7602 48.8086 10.9359 48.658 11.1141L25.7759 38.2101L35.7827 48.217L61.2646 22.7351L49.1152 10.5859Z" fill="#FFF5F5"/>
<path d="M67.6433 29.1141C71.1606 25.5968 71.1606 19.8738 67.6433 16.3564L58.9442 20.415L54.8856 29.1141C58.403 32.6315 64.1261 32.6315 67.6433 29.1141Z" fill="#101040"/>
<path d="M54.8857 16.3567C51.3683 19.874 51.3683 25.597 54.8857 29.1144L67.6433 16.3567C64.126 12.8394 58.403 12.8395 54.8857 16.3567Z" fill="#283366"/>
<path d="M64.1631 25.6341C65.7614 24.0358 65.7614 21.4352 64.1631 19.8369L60.1045 21.5753L58.3661 25.6339C59.9642 27.2324 62.5648 27.2324 64.1631 25.6341Z" fill="#CFCFE6"/>
<path d="M58.3658 19.8369C56.7675 21.4352 56.7675 24.0356 58.3658 25.6339L64.163 19.8368C62.5647 18.2386 59.9641 18.2386 58.3658 19.8369Z" fill="#ECE6F2"/>
</svg>
