<svg viewBox="0 0 956 1212" fill="none" xmlns="http://www.w3.org/2000/svg">
<g filter="url(#filter0_d_392:715)">
<path fill-rule="evenodd" clip-rule="evenodd" d="M492.368 56.7633C499.538 54.8716 506.95 52.913 513.729 48.8952C523.373 43.1839 531.871 31.8114 529.116 19.2838C528.467 16.3431 525.562 14.4793 522.623 15.1294C519.687 15.7795 517.83 18.6896 518.479 21.6331C519.983 28.4717 514.437 35.8013 508.184 39.5065C502.719 42.7444 496.365 44.4238 489.635 46.2024L489.634 46.2025L489.591 46.2139C487.17 46.8529 484.666 47.5141 482.196 48.2563C468.99 52.2155 460.308 58.1695 455.653 66.4562C451.69 73.5095 451.046 81.4837 450.425 89.1927L450.424 89.2007C449.72 97.9192 449.112 105.449 443.968 109.75C439.62 113.386 433.331 113.55 426.047 113.74C419.966 113.899 413.68 114.064 407.663 116.349C399 119.638 391.619 127.431 387.413 137.729C383.852 146.453 382.801 155.564 381.785 164.377L381.785 164.379L381.784 164.389C381.441 167.38 383.583 170.086 386.572 170.432C386.784 170.457 386.993 170.468 387.201 170.468C389.931 170.468 392.285 168.421 392.605 165.639C393.536 157.556 394.499 149.197 397.494 141.859C400.56 134.353 405.674 128.773 411.524 126.549C415.812 124.923 420.919 124.789 426.326 124.647L426.331 124.647L426.333 124.647C434.469 124.435 443.69 124.194 450.946 118.126C459.603 110.891 460.494 99.8314 461.28 90.0744L461.284 90.026C461.837 83.2054 462.359 76.7623 465.143 71.8104C468.349 66.1046 474.948 61.819 485.321 58.708C487.619 58.0189 489.925 57.4078 492.368 56.7633ZM835.534 142.343C832.846 129.707 820.383 121.613 807.751 124.3C795.116 126.987 787.022 139.453 789.709 152.088C792.395 164.72 804.86 172.811 817.496 170.125C830.129 167.438 838.22 154.975 835.534 142.343ZM824.897 144.605C826.337 151.372 822.002 158.049 815.234 159.489C808.463 160.928 801.784 156.594 800.345 149.826C798.905 143.055 803.242 136.376 810.013 134.936C816.78 133.497 823.458 137.834 824.897 144.605ZM516.098 193.883C521.239 190.686 522.723 184.103 523.876 178.584C524.018 177.901 524.158 177.217 524.297 176.533C525.405 171.083 526.512 165.637 529.43 160.793C537.258 147.799 553.469 148.012 566.709 149.414C571.834 149.957 571.399 157.992 566.231 157.446C554.72 156.227 539.711 155.187 534.693 168.257C533.406 171.607 532.712 175.112 532.017 178.619C531.558 180.934 531.099 183.251 530.469 185.523C528.705 191.889 525.511 197.474 519.804 201.024C517.959 202.171 515.323 201.127 514.38 199.306C513.315 197.247 514.247 195.034 516.098 193.883ZM258.489 185.735L273.804 162.147C274.617 160.894 275.895 160.016 277.356 159.706C278.817 159.395 280.342 159.678 281.594 160.491L305.176 175.807C307.784 177.501 308.525 180.988 306.832 183.597L291.522 207.178C290.675 208.482 289.38 209.32 287.97 209.619C286.56 209.919 285.037 209.681 283.732 208.835L260.146 193.525C258.893 192.712 258.014 191.434 257.704 189.973C257.393 188.512 257.676 186.987 258.489 185.735ZM281.786 194.144C283.639 195.346 286.116 194.819 287.319 192.967L292.141 185.541C293.344 183.688 292.817 181.211 290.965 180.008L283.538 175.184C281.685 173.981 279.208 174.508 278.005 176.361L273.182 183.789C271.978 185.642 272.505 188.119 274.359 189.322L281.786 194.144ZM104.916 196.28C118.093 193.477 131.094 201.916 133.896 215.091C136.698 228.268 128.257 241.269 115.079 244.072C101.904 246.873 88.906 238.432 86.1036 225.254C83.302 212.079 91.7405 199.081 104.916 196.28ZM112.72 232.978C119.781 231.477 124.304 224.51 122.803 217.449C121.302 210.391 114.336 205.87 107.275 207.372C100.216 208.873 95.6953 215.837 97.1961 222.894C98.6978 229.956 105.661 234.48 112.72 232.978ZM212.495 250.607C223.155 248.34 226.695 264.904 216.018 267.175C205.357 269.441 201.816 252.878 212.495 250.607ZM241.52 260.403C252.18 258.136 255.721 274.699 245.043 276.97C234.383 279.237 230.843 262.673 241.52 260.403ZM763.514 352.072L747.806 376.265C746.972 377.55 746.682 379.114 747.001 380.612C747.32 382.111 748.221 383.422 749.506 384.256L773.698 399.958C775.035 400.826 776.598 401.07 778.044 400.763C779.49 400.455 780.819 399.596 781.687 398.258L797.39 374.072C799.127 371.397 798.367 367.82 795.692 366.083L771.505 350.374C770.22 349.539 768.656 349.249 767.158 349.568C765.66 349.887 764.348 350.787 763.514 352.072ZM781.202 370.447C783.054 371.65 783.581 374.127 782.378 375.98L777.321 383.769C776.118 385.621 773.641 386.148 771.788 384.946L763.997 379.889C762.144 378.686 761.617 376.208 762.82 374.355L767.879 366.564C769.082 364.711 771.559 364.185 773.412 365.388L781.202 370.447ZM640.948 383.918C652.874 381.382 664.64 389.019 667.176 400.943C669.712 412.869 662.073 424.635 650.146 427.171C638.222 429.707 626.458 422.067 623.922 410.141C621.387 398.217 629.024 386.454 640.948 383.918ZM648.011 417.132C654.401 415.773 658.495 409.468 657.136 403.077C655.778 396.689 649.473 392.598 643.083 393.957C636.695 395.315 632.603 401.618 633.961 408.005C635.32 414.396 641.622 418.49 648.011 417.132ZM499.45 460.999C488.362 464.936 476.347 462.566 465.571 458.821C458.693 456.431 455.185 467.148 462.03 469.527C478.735 475.33 498.069 477.102 513.246 466.364C515.429 464.819 517.429 462.984 519.2 460.936C520.074 459.926 521.349 459.342 522.685 459.366C529.441 459.489 536.219 458.145 542.55 455.252C549.155 452.232 543.943 442.231 537.357 445.242C535.626 446.033 533.826 446.662 531.982 447.133C529.265 447.826 527.092 445.177 527.357 442.386C527.841 437.285 526.976 432.089 524.381 427.322C517.713 415.07 499.415 408.474 488.403 419.261C475.765 431.641 490.394 448.428 502.184 454.306C504.432 455.426 504.87 458.527 502.623 459.649C501.59 460.164 500.529 460.616 499.45 460.999ZM515.818 443.831C515.409 445.777 513.358 446.807 511.484 446.14C509.898 445.576 508.356 444.897 506.878 444.099C501.975 441.453 488.036 429.904 498.852 425.695C506.992 422.529 515.436 430.502 516.14 438.309C516.313 440.221 516.19 442.067 515.818 443.831ZM538.016 737.065C535.894 747.222 533.163 759.337 523.702 765.221C520.295 767.34 518.579 771.413 520.54 775.202C522.276 778.553 527.126 780.475 530.522 778.364C541.025 771.831 546.905 761.552 550.151 749.835C551.31 745.653 552.155 741.39 552.999 737.128C554.278 730.674 555.557 724.223 557.924 718.057C567.161 694.003 594.784 695.916 615.969 698.16C625.481 699.166 626.282 684.377 616.849 683.378C592.481 680.798 562.645 680.406 548.239 704.32C542.869 713.236 540.831 723.259 538.791 733.29C538.535 734.549 538.279 735.808 538.016 737.065ZM731.867 450.154C742.421 447.909 745.926 464.308 735.355 466.556C724.801 468.801 721.295 452.402 731.867 450.154ZM703.129 440.456C713.683 438.211 717.188 454.61 706.617 456.858C696.063 459.103 692.557 442.704 703.129 440.456ZM708.81 470.867C719.366 468.622 722.871 485.021 712.299 487.269C701.745 489.514 698.239 473.115 708.81 470.867ZM870.743 556.685C881.297 554.44 884.802 570.839 874.231 573.087C863.677 575.332 860.172 558.933 870.743 556.685ZM842.005 546.986C852.559 544.741 856.065 561.14 845.493 563.388C834.939 565.633 831.433 549.234 842.005 546.986ZM847.687 577.397C858.242 575.152 861.748 591.551 851.175 593.8C840.621 596.044 837.116 579.645 847.687 577.397ZM610.007 505.161C620.561 502.917 624.066 519.316 613.495 521.564C602.94 523.808 599.434 507.409 610.007 505.161ZM581.268 495.463C591.822 493.218 595.327 509.617 584.756 511.865C574.202 514.11 570.697 497.711 581.268 495.463ZM586.95 525.874C597.504 523.63 601.01 540.029 590.438 542.277C579.885 544.52 576.378 528.122 586.95 525.874ZM518.266 667.672C528.82 665.427 532.326 681.826 521.754 684.074C511.199 686.319 507.694 669.92 518.266 667.672ZM489.528 657.973C500.082 655.729 503.587 672.128 493.016 674.376C482.462 676.62 478.957 660.221 489.528 657.973ZM495.21 688.384C505.764 686.14 509.27 702.539 498.698 704.787C488.144 707.031 484.639 690.632 495.21 688.384ZM766.615 635.455C777.899 633.338 789.461 635.559 799.352 641.002C800.603 641.691 802.113 641.721 803.409 641.123C810.993 637.624 819.988 636.771 828.022 638.779C849.629 644.179 861.418 665.075 867.167 684.959C867.986 687.789 865.703 690.841 862.971 691.422C859.914 692.072 857.329 690.064 856.508 687.225C852.525 673.449 845.698 659.646 832.774 652.333C826.35 648.697 818.432 647.476 811.49 649.5C811.25 649.569 811.181 649.867 811.357 650.045C816.987 655.718 821.269 662.912 823.307 670.658C825.648 679.556 822.823 690.058 812.628 692.001C794.76 695.408 783.011 674.687 787.282 659.323C787.837 657.327 788.597 655.464 789.532 653.735C790.755 651.473 790.115 648.473 787.684 647.634C781.678 645.564 775.203 644.928 768.882 646.114C761.999 647.406 759.706 636.751 766.615 635.455ZM806.235 680.892C808.153 681.553 811.126 682.009 812.552 680.184C813.878 678.487 813.281 675.587 812.829 673.649C811.501 667.957 808.294 662.732 804.349 658.479C803.474 657.535 802.55 656.636 801.587 655.78C801.551 655.748 801.495 655.751 801.462 655.787L801.422 655.831L801.414 655.839C801.322 655.939 801.229 656.04 801.14 656.145C794.758 663.63 796.279 677.46 806.235 680.892ZM855.177 485.44C853.114 475.742 843.548 469.529 833.852 471.591C824.154 473.654 817.942 483.222 820.004 492.92C822.066 502.616 831.634 508.826 841.332 506.764C851.028 504.702 857.239 495.136 855.177 485.44ZM847.013 487.176C848.118 492.371 844.79 497.496 839.596 498.6C834.399 499.706 829.272 496.379 828.168 491.184C827.063 485.987 830.392 480.86 835.588 479.755C840.783 478.65 845.909 481.98 847.013 487.176ZM535.354 574.338C531.21 554.851 511.986 542.37 492.499 546.514C473.018 550.656 460.541 569.879 464.684 589.366C468.827 608.848 488.046 621.327 507.527 617.184C527.015 613.04 539.497 593.819 535.354 574.338ZM518.951 577.825C521.171 588.261 514.48 598.56 504.039 600.78C493.603 603 483.306 596.315 481.086 585.877C478.866 575.436 485.551 565.135 495.987 562.916C506.429 560.695 516.731 567.383 518.951 577.825ZM681.031 705.775C694.187 702.978 707.166 711.407 709.965 724.566C712.763 737.725 704.337 750.706 691.181 753.503C678.022 756.301 665.041 747.873 662.242 734.714C659.444 721.555 667.873 708.574 681.031 705.775ZM688.825 742.427C695.874 740.928 700.388 733.972 698.888 726.921C697.389 719.87 690.434 715.353 683.387 716.852C676.336 718.351 671.819 725.308 673.319 732.359C674.818 739.409 681.775 743.926 688.825 742.427ZM638.617 594.857L653.494 571.944C654.284 570.727 655.526 569.873 656.945 569.571C658.364 569.269 659.845 569.544 661.062 570.334L683.971 585.213C686.504 586.859 687.224 590.246 685.58 592.781L670.706 615.688C669.883 616.956 668.625 617.769 667.256 618.06C665.886 618.352 664.406 618.12 663.139 617.298L640.227 602.426C639.01 601.636 638.156 600.394 637.854 598.975C637.552 597.556 637.826 596.074 638.617 594.857ZM661.153 602.964C663.006 604.166 665.483 603.639 666.686 601.787L671.245 594.765C672.448 592.912 671.921 590.435 670.069 589.232L663.046 584.671C661.193 583.467 658.716 583.994 657.513 585.847L652.952 592.871C651.749 594.724 652.276 597.202 654.129 598.405L661.153 602.964ZM507.933 773.923C517.25 771.942 520.345 786.419 511.012 788.403C501.696 790.384 498.602 775.908 507.933 773.923ZM218.233 281.324C228.894 279.057 232.434 295.62 221.756 297.891C211.097 300.158 207.556 283.594 218.233 281.324ZM381.789 368.002C392.45 365.735 395.99 382.299 385.312 384.57C374.652 386.837 371.112 370.273 381.789 368.002ZM352.764 358.206C363.424 355.939 366.964 372.503 356.287 374.773C345.627 377.04 342.086 360.477 352.764 358.206ZM358.503 388.922C369.163 386.655 372.704 403.219 362.026 405.489C351.366 407.756 347.825 391.193 358.503 388.922ZM118.438 315.962C129.098 313.695 132.638 330.258 121.961 332.529C111.301 334.796 107.76 318.233 118.438 315.962ZM89.4113 306.167C100.071 303.9 103.612 320.463 92.9344 322.734C82.2742 325.001 78.7339 308.437 89.4113 306.167ZM95.1501 336.883C105.81 334.616 109.351 351.179 98.6732 353.45C88.0137 355.716 84.4719 339.153 95.1501 336.883ZM311.802 450.222C310.511 450.831 308.999 450.8 307.753 450.105C296.267 443.696 282.796 441.063 269.653 443.529C261.678 445.025 264.325 457.324 272.27 455.833C279.823 454.415 287.567 455.251 294.704 457.846C297.121 458.725 297.763 461.721 296.483 463.952C295.23 466.135 294.222 468.512 293.509 471.08C288.578 488.814 302.14 512.732 322.766 508.8C334.534 506.556 337.795 494.435 335.093 484.163C332.74 475.222 327.797 466.918 321.298 460.37C321.095 460.165 321.175 459.821 321.452 459.74C329.465 457.405 338.605 458.814 346.02 463.011C360.938 471.453 368.818 487.385 373.416 503.287C374.363 506.564 377.348 508.881 380.876 508.131C384.03 507.46 386.665 503.938 385.72 500.671C379.084 477.719 365.475 453.599 340.534 447.365C331.147 445.019 320.623 446.057 311.802 450.222ZM322.678 495.159C321.032 497.266 317.6 496.739 315.386 495.976C303.894 492.015 302.138 476.051 309.505 467.411C309.741 467.134 310.165 467.116 310.435 467.362C311.397 468.237 312.324 469.152 313.209 470.105C317.762 475.014 321.464 481.045 322.998 487.616C323.519 489.853 324.209 493.201 322.678 495.159ZM-27.1758 398.486C-28.5187 387.643 -25.7377 376.793 -20.0011 367.709C-19.2388 366.502 -19.1149 364.997 -19.627 363.665C-22.4751 356.252 -22.7408 347.673 -20.361 340.171C-13.9312 319.903 6.67987 309.91 25.9681 305.613C28.7137 305.001 31.486 307.358 31.8773 309.996C32.3151 312.947 30.2486 315.291 27.4948 315.905C14.1307 318.882 0.573242 324.567 -7.16327 336.447C-11.0673 342.442 -12.6918 350.051 -11.0566 356.865C-11.0341 356.959 -10.9199 356.994 -10.8485 356.929L-10.776 356.863C-10.723 356.815 -10.6697 356.767 -10.6157 356.719C-4.87531 351.692 2.2337 348.038 9.73566 346.557C18.354 344.854 28.1926 348.17 29.4387 358C31.6234 375.229 11.181 385.194 -3.20496 380.211C-4.9986 379.59 -6.66449 378.796 -8.20258 377.854C-10.3963 376.512 -13.4319 376.963 -14.4057 379.344C-16.6733 384.887 -17.6295 390.942 -16.8843 396.959C-16.0621 403.594 -26.351 405.146 -27.1758 398.486ZM18.4731 363.432C19.2172 361.644 19.8286 358.838 18.1742 357.371C16.6362 356.006 13.8373 356.403 11.9638 356.719C6.46045 357.646 1.29132 360.392 -2.9953 363.898C-3.92877 364.661 -4.8241 365.472 -5.68176 366.32C-5.74237 366.38 -5.74316 366.478 -5.68408 366.539C-5.59412 366.633 -5.50433 366.726 -5.41016 366.817C1.34332 373.343 14.6119 372.715 18.4731 363.432ZM345.217 297.434C341.475 279.84 324.122 268.57 306.532 272.31C288.939 276.051 277.669 293.409 281.41 311.002C285.15 328.592 302.507 339.858 320.101 336.117C337.691 332.376 348.958 315.023 345.217 297.434ZM330.407 300.583C332.411 310.006 326.375 319.303 316.951 321.307C307.523 323.312 298.224 317.277 296.22 307.853C294.215 298.426 300.254 289.125 309.681 287.12C319.105 285.116 328.403 291.156 330.407 300.583ZM226.541 536.048C222.877 518.819 205.883 507.782 188.657 511.445C171.428 515.109 160.392 532.106 164.056 549.336C167.719 566.566 184.717 577.601 201.946 573.938C219.172 570.274 230.205 553.278 226.541 536.048ZM212.038 539.132C214.001 548.364 208.091 557.472 198.862 559.435C189.63 561.398 180.522 555.484 178.559 546.252C176.595 537.02 182.509 527.911 191.741 525.948C200.969 523.986 210.075 529.9 212.038 539.132ZM143.404 385.613L120.792 420.439C119.591 422.289 119.174 424.54 119.633 426.698C120.092 428.855 121.39 430.742 123.239 431.943L158.064 454.546C159.99 455.796 162.239 456.148 164.32 455.705C166.401 455.263 168.314 454.026 169.565 452.1L192.171 417.283C194.671 413.431 193.577 408.282 189.726 405.781L154.907 383.167C153.057 381.966 150.807 381.548 148.649 382.007C146.493 382.466 144.605 383.763 143.404 385.613ZM170.34 413.021C172.193 414.225 172.719 416.702 171.516 418.554L162.322 432.715C161.119 434.568 158.642 435.095 156.789 433.892L142.625 424.698C140.772 423.495 140.245 421.018 141.448 419.165L150.645 405C151.848 403.147 154.326 402.62 156.179 403.824L170.34 413.021ZM500.346 887.242C511.342 891.063 523.603 893.482 534.919 889.465C536.019 889.074 537.102 888.613 538.156 888.087C540.449 886.942 540.002 883.778 537.709 882.634C525.677 876.636 510.748 859.505 523.645 846.872C534.882 835.864 553.556 842.595 560.36 855.097C563.029 860 563.905 865.346 563.386 870.589C563.109 873.379 565.282 876.028 568.001 875.344C569.923 874.86 571.8 874.209 573.602 873.385C580.323 870.312 585.642 880.518 578.901 883.6C572.427 886.559 565.495 887.929 558.585 887.797C557.25 887.772 555.975 888.356 555.102 889.368C553.288 891.47 551.236 893.354 548.997 894.939C533.509 905.897 513.78 904.09 496.733 898.167C489.747 895.74 493.327 884.803 500.346 887.242ZM542.499 872.218C544.028 873.044 545.624 873.745 547.266 874.325C549.142 874.988 551.191 873.959 551.607 872.014C551.998 870.194 552.129 868.286 551.951 866.31C551.232 858.343 542.615 850.207 534.309 853.438C523.271 857.733 537.496 869.518 542.499 872.218ZM758.483 881.59C767.68 879.634 770.734 893.924 761.523 895.883C752.326 897.838 749.272 883.549 758.483 881.59ZM733.443 873.139C742.639 871.183 745.694 885.473 736.482 887.432C727.285 889.388 724.231 875.098 733.443 873.139ZM738.393 899.639C747.59 897.683 750.645 911.972 741.432 913.931C732.236 915.887 729.182 901.597 738.393 899.639ZM858.374 970.218C867.57 968.263 870.625 982.552 861.413 984.511C852.217 986.467 849.162 972.177 858.374 970.218ZM833.333 961.767C842.53 959.811 845.584 974.101 836.372 976.06C827.176 978.015 824.121 963.726 833.333 961.767ZM838.284 988.266C847.481 986.31 850.536 1000.6 841.324 1002.56C832.127 1004.51 829.073 990.225 838.284 988.266ZM631.178 925.322C640.375 923.366 643.429 937.656 634.218 939.615C625.021 941.57 621.966 927.281 631.178 925.322ZM606.137 916.872C615.333 914.916 618.388 929.205 609.176 931.164C599.98 933.12 596.925 918.83 606.137 916.872ZM611.088 943.371C620.285 941.415 623.339 955.705 614.127 957.663C604.931 959.618 601.876 945.33 611.088 943.371ZM742.368 996.797C755.506 994.004 768.468 1002.42 771.262 1015.56C774.056 1028.7 765.641 1041.66 752.503 1044.45C739.362 1047.25 726.398 1038.83 723.605 1025.7C720.81 1012.56 729.228 999.592 742.368 996.797ZM750.15 1033.39C757.189 1031.9 761.697 1024.95 760.201 1017.91C758.704 1010.87 751.759 1006.36 744.72 1007.86C737.679 1009.36 733.169 1016.3 734.666 1023.34C736.163 1030.38 743.109 1034.89 750.15 1033.39ZM684.938 833.671C682.266 821.106 669.868 813.058 657.3 815.73C644.734 818.403 636.686 830.799 639.358 843.364C642.031 855.932 654.427 863.983 666.993 861.311C679.561 858.638 687.611 846.239 684.938 833.671ZM674.359 835.92C675.791 842.655 671.477 849.299 664.743 850.731C658.01 852.163 651.369 847.848 649.937 841.114C648.506 834.382 652.818 827.741 659.549 826.309C666.284 824.877 672.927 829.188 674.359 835.92ZM521.042 999.667C531.282 997.49 541.384 1004.05 543.562 1014.29C545.739 1024.53 539.18 1034.63 528.939 1036.8C518.702 1038.98 508.602 1032.42 506.425 1022.19C504.248 1011.95 510.805 1001.84 521.042 999.667ZM527.106 1028.18C532.593 1027.02 536.109 1021.61 534.942 1016.12C533.775 1010.63 528.362 1007.12 522.875 1008.29C517.391 1009.45 513.878 1014.87 515.045 1020.35C516.211 1025.84 521.622 1029.35 527.106 1028.18ZM830.934 790.466L815.968 813.516C815.174 814.739 814.897 816.23 815.201 817.657C815.505 819.085 816.363 820.334 817.588 821.128L840.636 836.089C841.911 836.916 843.399 837.148 844.777 836.856C846.155 836.563 847.421 835.744 848.248 834.469L863.209 811.426C864.864 808.877 864.14 805.469 861.591 803.814L838.547 788.847C837.323 788.052 835.833 787.776 834.405 788.08C832.978 788.383 831.729 789.241 830.934 790.466ZM847.627 807.869C849.48 809.072 850.006 811.549 848.803 813.402L844.191 820.506C842.988 822.359 840.511 822.885 838.658 821.683L831.553 817.071C829.7 815.868 829.173 813.39 830.376 811.537L834.989 804.432C836.193 802.579 838.67 802.052 840.523 803.255L847.627 807.869ZM2.22272 752.883C-3.50507 747.15 -13.5673 749.476 -16.2228 757.124L-159.389 1170.17C-162.388 1178.81 -153.827 1187.39 -145.181 1184.39L267.484 1041.09C275.125 1038.44 277.449 1028.36 271.721 1022.63L2.22272 752.883ZM129.522 1065.34C129.034 1065.51 128.517 1065.58 128.001 1065.56L-90.1233 1054.14C-92.7822 1054 -94.5656 1051.35 -93.6937 1048.84L-81.6298 1014.02C-81.0464 1012.34 -79.4203 1011.24 -77.6412 1011.34L94.6957 1020.35C100.829 1020.66 106.106 1015.94 106.425 1009.78C106.745 1003.61 102.017 998.354 95.8607 998.034L-67.7137 989.475C-70.3729 989.336 -72.1563 986.686 -71.2841 984.17L-65.3717 967.117C-64.7882 965.434 -63.1622 964.34 -61.3834 964.433L193.892 977.793C194.88 977.845 195.813 978.261 196.512 978.961L214.81 997.275C217.4 999.868 215.431 1004.29 211.771 1004.1L148.799 1000.8C142.625 1000.49 137.383 1005.22 137.063 1011.38C136.743 1017.55 141.472 1022.8 147.634 1023.13L217.12 1026.76C221.505 1026.99 222.371 1033.1 218.223 1034.54L129.522 1065.34ZM10.0319 1106.83C9.54364 1107 9.0271 1107.07 8.51099 1107.05L-106.381 1101.04C-109.04 1100.9 -110.824 1098.25 -109.952 1095.73L-104.044 1078.69C-103.461 1077 -101.835 1075.91 -100.056 1076L52.3587 1083.98C56.7435 1084.21 57.6096 1090.31 53.4616 1091.75L10.0319 1106.83ZM-42.9573 902.458C-42.3738 900.775 -40.7478 899.681 -38.9689 899.774L124.484 908.328C125.472 908.379 126.406 908.795 127.105 909.495L164.471 946.895C167.061 949.488 165.091 953.909 161.432 953.717L-51.4556 942.576C-54.1147 942.437 -55.8981 939.787 -55.0259 937.271L-42.9573 902.458ZM-26.7003 855.556C-26.116 853.875 -24.4906 852.782 -22.7127 852.875L74.1506 857.947C75.1383 857.999 76.0718 858.415 76.7709 859.114L95.0671 877.424C97.6575 880.016 95.6884 884.437 92.0287 884.246L-29.0419 877.911C-31.7008 877.772 -33.4842 875.123 -32.6124 872.607L-28.0039 859.308L-26.7003 855.556ZM-3.05652 787.345C-2.08923 784.555 1.4649 783.739 3.55249 785.828L44.7288 827.038C47.3189 829.63 45.3499 834.051 41.6904 833.86L-12.783 831.012C-15.442 830.873 -17.2255 828.223 -16.3535 825.707L-3.05652 787.345ZM-120.297 1125.59C-119.714 1123.9 -118.088 1122.81 -116.309 1122.9L-67.1359 1125.47C-62.751 1125.7 -61.8847 1131.81 -66.0325 1133.25L-122.95 1153.01C-126.107 1154.11 -129.136 1151.08 -128.042 1147.92L-120.297 1125.59ZM133.402 793.222C132.685 784.426 134.299 775.557 138.067 767.574C140.703 761.999 143.937 757.999 147.961 755.346C154.908 750.768 162.867 750.92 169.89 751.059L170.943 751.076C180.695 751.249 204.116 749.957 210.984 734.356C213.925 727.669 213.305 719.33 212.647 710.494L212.646 710.477C211.759 698.62 210.759 685.179 219.513 674.662C225.801 667.11 234.869 664.107 242.867 661.458L242.872 661.457L242.928 661.438C248.21 659.686 253.192 658.032 257.12 655.317C260.195 653.19 264.413 653.956 266.539 657.031C268.666 660.11 267.897 664.328 264.822 666.454C259.289 670.281 253.118 672.327 247.149 674.306L247.132 674.312L247.126 674.314C240.237 676.595 233.732 678.749 229.92 683.326C224.67 689.632 225.356 698.826 226.149 709.467L226.149 709.47C226.904 719.575 227.683 730.027 223.378 739.81C216.237 756.035 197.013 765.06 170.707 764.617C170.141 764.606 169.571 764.591 168.998 764.575L168.994 764.575C165.509 764.482 161.925 764.385 158.562 765.292C154.441 766.404 152.065 769.649 150.313 773.358C147.556 779.197 146.375 785.687 146.898 792.125C147.203 795.851 144.426 799.117 140.699 799.421C140.512 799.439 140.329 799.446 140.142 799.446C136.651 799.446 133.69 796.762 133.402 793.222ZM392.545 777.399C401.46 775.051 410.675 772.62 419.104 767.633C431.094 760.544 441.66 746.428 438.235 730.879C437.428 727.229 433.816 724.915 430.162 725.722C426.512 726.529 424.202 730.141 425.009 733.795C426.879 742.283 419.984 751.381 412.209 755.98C405.415 759.999 397.515 762.083 389.147 764.291L389.146 764.291L389.093 764.305C386.083 765.098 382.97 765.919 379.898 766.84C363.479 771.754 352.685 779.145 346.898 789.43C341.97 798.185 341.17 808.083 340.398 817.651L340.397 817.661C339.521 828.483 338.764 837.829 332.37 843.168C326.964 847.68 319.144 847.885 310.088 848.12C302.528 848.317 294.712 848.522 287.231 851.358C276.461 855.441 267.284 865.114 262.054 877.896C257.627 888.725 256.32 900.034 255.057 910.974L255.055 910.986C254.629 914.699 257.292 918.058 261.008 918.488C261.272 918.519 261.531 918.533 261.791 918.533C265.185 918.533 268.111 915.991 268.51 912.538C269.666 902.505 270.865 892.13 274.587 883.022C278.4 873.706 284.759 866.779 292.031 864.019C297.363 862.001 303.712 861.834 310.435 861.658L310.441 861.657H310.443C320.559 861.394 332.024 861.096 341.045 853.564C351.809 844.584 352.917 830.856 353.893 818.746L353.898 818.686C354.586 810.22 355.235 802.222 358.697 796.076C362.683 788.994 370.887 783.674 383.784 779.813C386.641 778.958 389.508 778.199 392.545 777.399ZM305.987 742.338C302.832 742.338 300.01 740.122 299.359 736.911C294.431 712.6 308.311 685.626 330.957 675.503C334.376 673.971 337.879 672.819 341.265 671.706L341.266 671.705L341.28 671.701C347.313 669.716 353.013 667.839 356.979 664.21C361.318 660.234 363.76 654.007 366.34 647.41C369.546 639.223 373.183 629.949 381.363 623.923C389.562 617.884 399.631 617.07 407.724 616.415H407.725L407.728 616.415C411.457 616.107 414.72 618.891 415.024 622.617C415.326 626.347 412.548 629.613 408.818 629.914C400.704 630.569 394.117 631.348 389.394 634.825C384.363 638.53 381.734 645.244 378.954 652.345L378.953 652.346L378.952 652.349C375.919 660.092 372.781 668.099 366.125 674.194C360.017 679.787 352.653 682.211 345.527 684.558L345.512 684.563L345.491 684.57C342.292 685.623 339.269 686.619 336.484 687.863C319.39 695.506 308.914 715.869 312.633 734.221C313.378 737.888 311.005 741.459 307.341 742.203C306.888 742.293 306.434 742.338 305.987 742.338ZM22.5187 654.303C24.3843 656.996 27.8526 657.918 30.7512 656.672C31.1617 656.496 31.5607 656.275 31.942 656.013C35.0143 653.883 35.7841 649.666 33.652 646.59C22.9893 631.198 24.5743 608.353 37.262 594.582C39.3278 592.341 41.7098 590.235 44.2302 588.006L44.2339 588.003L44.2348 588.002L44.2355 588.001L44.2538 587.985L44.2654 587.975C49.886 583.005 55.6941 577.87 59.098 570.32C62.8069 562.093 62.5284 553.497 62.2583 545.185L62.2581 545.182C62.0087 537.559 61.773 530.353 64.9327 524.963C67.8998 519.903 73.644 516.587 80.8405 512.782C84.1483 511.032 85.4107 506.935 83.6613 503.627C81.91 500.324 77.8134 499.054 74.5084 500.81L74.506 500.811C67.329 504.608 58.399 509.332 53.2498 518.117C48.1135 526.883 48.4344 536.84 48.7204 545.628C48.9547 552.708 49.17 559.393 46.7529 564.758C44.5427 569.659 40.0466 573.634 35.2874 577.839L35.275 577.85L35.274 577.851C32.6033 580.21 29.8406 582.651 27.3038 585.408C10.4948 603.65 8.39233 633.913 22.5187 654.303ZM132.377 691.849L108.121 676.154C104.983 674.125 104.083 669.931 106.116 666.79L121.811 642.534C123.844 639.396 128.034 638.499 131.172 640.529L155.427 656.224C158.569 658.253 159.466 662.447 157.436 665.588L141.741 689.844C139.736 692.94 135.476 693.854 132.377 691.849ZM140.213 667.273C141.413 665.418 140.882 662.942 139.028 661.742L132.861 657.75C131.006 656.549 128.529 657.08 127.329 658.935L123.337 665.104C122.136 666.958 122.667 669.435 124.522 670.635L130.691 674.626C132.546 675.826 135.022 675.295 136.222 673.44L140.213 667.273ZM251.19 757.05C247.505 756.873 244.278 759.807 244.101 763.488L242.705 792.343C242.522 796.08 245.403 799.255 249.14 799.435L277.998 800.831C281.68 801.011 284.907 798.078 285.087 794.397L286.483 765.538C286.663 761.805 283.785 758.629 280.048 758.449L251.19 757.05ZM272.082 782.983C271.976 785.19 270.101 786.892 267.894 786.785L260.554 786.431C258.347 786.324 256.645 784.448 256.752 782.241L257.109 774.9C257.216 772.694 259.091 770.992 261.297 771.099L268.635 771.454C270.842 771.561 272.544 773.436 272.437 775.642L272.082 782.983ZM298.812 652.691C295.505 654.336 291.38 652.944 289.735 649.64L276.88 623.767C275.238 620.46 276.634 616.332 279.931 614.69L305.804 601.835C309.111 600.194 313.243 601.586 314.881 604.886L327.736 630.759C329.402 634.108 328.034 638.174 324.685 639.836L298.812 652.691ZM309.013 632.501C310.991 631.518 311.798 629.117 310.815 627.139L307.546 620.558C306.563 618.58 304.162 617.773 302.184 618.756L295.603 622.026C293.625 623.009 292.818 625.409 293.801 627.388L297.07 633.968C298.053 635.947 300.454 636.754 302.432 635.771L309.013 632.501ZM428.295 908.219L406.63 889.106C403.824 886.63 399.544 886.897 397.071 889.702L377.958 911.367C375.486 914.172 375.752 918.449 378.557 920.926L400.223 940.039C401.508 941.175 403.108 941.732 404.697 941.732C406.574 941.732 408.441 940.956 409.778 939.44L428.891 917.774C430.079 916.427 430.685 914.664 430.574 912.87C430.46 911.08 429.642 909.404 428.295 908.219ZM406.751 922.404C405.29 924.06 402.762 924.219 401.105 922.757L395.593 917.895C393.937 916.434 393.778 913.906 395.24 912.25L400.101 906.738C401.563 905.081 404.09 904.923 405.747 906.384L411.259 911.246C412.916 912.707 413.074 915.235 411.613 916.892L406.751 922.404ZM444.631 782.618L455.63 809.333C457.053 812.789 455.405 816.747 451.949 818.171L425.234 829.173C421.819 830.579 417.795 828.896 416.393 825.488L405.394 798.774C403.988 795.362 405.671 791.338 409.075 789.936L435.79 778.937C439.249 777.513 443.208 779.158 444.631 782.618ZM424.192 798.355C422.149 799.196 421.175 801.535 422.017 803.578L424.815 810.373C425.657 812.415 427.994 813.389 430.037 812.548L436.831 809.751C438.874 808.91 439.848 806.572 439.007 804.529L436.208 797.734C435.367 795.692 433.029 794.718 430.987 795.558L424.192 798.355ZM675.243 169.521C673.187 159.85 663.648 153.655 653.979 155.711C644.308 157.767 638.114 167.308 640.17 176.979C642.227 186.65 651.768 192.844 661.438 190.788C671.107 188.732 677.3 179.192 675.243 169.521ZM667.103 171.252C668.205 176.434 664.887 181.546 659.707 182.647C654.525 183.749 649.413 180.43 648.311 175.248C647.209 170.066 650.528 164.953 655.71 163.851C660.89 162.75 666.001 166.07 667.103 171.252ZM507.53 198.611C512.593 197.535 514.274 205.4 509.203 206.479C504.141 207.555 502.46 199.689 507.53 198.611ZM505.64 302.149C513.816 299.246 522.676 300.994 530.622 303.755C535.694 305.517 538.281 297.615 533.233 295.861C520.915 291.581 506.659 290.275 495.467 298.193C494.008 299.225 492.66 300.434 491.448 301.775C490.552 302.766 489.281 303.35 487.945 303.348C483.149 303.339 478.351 304.333 473.858 306.387C468.987 308.614 472.831 315.989 477.687 313.769C478.501 313.397 479.335 313.074 480.185 312.798C482.852 311.934 485.034 314.594 484.972 317.397C484.899 320.663 485.6 323.941 487.256 326.983C492.173 336.017 505.666 340.881 513.786 332.927C523.106 323.798 512.318 311.419 503.624 307.085C501.966 306.259 501.643 303.972 503.3 303.145C504.062 302.765 504.845 302.431 505.64 302.149ZM493.412 315.705C493.692 313.736 495.769 312.693 497.618 313.426C498.489 313.772 499.339 314.167 500.163 314.611C503.778 316.562 514.057 325.079 506.081 328.182C500.078 330.517 493.852 324.638 493.333 318.881C493.234 317.792 493.266 316.731 493.412 315.705ZM708.966 321.001C718.162 319.045 721.217 333.335 712.005 335.294C702.809 337.249 699.754 322.96 708.966 321.001ZM683.925 312.55C693.122 310.595 696.176 324.884 686.964 326.843C677.768 328.799 674.713 314.509 683.925 312.55ZM688.876 339.05C698.073 337.094 701.127 351.383 691.915 353.342C682.719 355.298 679.664 341.008 688.876 339.05ZM871.696 202.243C880.893 200.288 883.947 214.577 874.736 216.536C865.539 218.492 862.485 204.202 871.696 202.243ZM846.655 193.792C855.852 191.836 858.906 206.126 849.695 208.085C840.498 210.04 837.443 195.751 846.655 193.792ZM851.607 220.291C860.803 218.335 863.858 232.625 854.646 234.584C845.449 236.539 842.395 222.25 851.607 220.291ZM851.495 282.304C860.772 280.563 870.275 282.341 878.444 286.744C879.701 287.422 881.208 287.451 882.513 286.87C888.759 284.087 896.104 283.432 902.677 285.074C920.686 289.576 930.513 306.992 935.305 323.565C935.987 325.924 934.084 328.468 931.807 328.952C929.259 329.494 927.104 327.821 926.42 325.454C923.1 313.972 917.41 302.467 906.638 296.372C901.203 293.296 894.484 292.294 888.636 294.089C888.556 294.113 888.531 294.215 888.592 294.273C888.657 294.337 888.723 294.4 888.787 294.465C893.479 299.193 897.049 305.189 898.748 311.645C900.699 319.062 898.344 327.815 889.847 329.435C874.953 332.274 865.161 315.004 868.721 302.198C869.105 300.817 869.607 299.512 870.212 298.284C871.349 295.977 870.713 292.97 868.261 292.193C863.481 290.678 858.375 290.252 853.385 291.189C847.648 292.265 845.737 283.385 851.495 282.304ZM884.518 320.175C886.117 320.727 888.595 321.107 889.783 319.586C890.889 318.171 890.391 315.754 890.014 314.139C888.907 309.394 886.234 305.039 882.946 301.495C882.221 300.712 881.455 299.967 880.658 299.258C880.62 299.223 880.561 299.227 880.527 299.264L880.499 299.294C880.422 299.378 880.346 299.462 880.271 299.549C874.952 305.788 876.22 317.315 884.518 320.175ZM629.225 265.242C638.538 262.747 648.145 268.292 650.64 277.603C653.135 286.916 647.589 296.523 638.276 299.019C628.964 301.513 619.359 295.967 616.864 286.653C614.369 277.342 619.914 267.737 629.225 265.242ZM636.175 291.179C641.165 289.842 644.137 284.693 642.8 279.703C641.464 274.715 636.316 271.744 631.326 273.082C626.337 274.418 623.367 279.564 624.703 284.552C626.04 289.543 631.186 292.515 636.175 291.179ZM736.027 234.227L721.449 256.68C720.675 257.872 720.406 259.324 720.702 260.714C720.997 262.105 721.834 263.322 723.027 264.096L745.478 278.668C746.72 279.474 748.17 279.701 749.512 279.415C750.854 279.13 752.087 278.333 752.893 277.091L767.467 254.645C769.079 252.162 768.373 248.842 765.891 247.23L743.443 232.65C742.251 231.876 740.8 231.607 739.409 231.903C738.018 232.198 736.802 233.034 736.027 234.227ZM752.201 251.123C754.054 252.326 754.58 254.803 753.378 256.656L748.997 263.402C747.795 265.255 745.318 265.782 743.465 264.579L736.717 260.199C734.864 258.997 734.337 256.519 735.54 254.666L739.921 247.918C741.124 246.065 743.602 245.538 745.455 246.742L752.201 251.123ZM408.446 238.103L413.408 249.948C414.05 251.481 413.307 253.236 411.747 253.867L399.694 258.745C398.153 259.369 396.338 258.623 395.705 257.112L390.742 245.266C390.108 243.754 390.867 241.969 392.403 241.348L404.456 236.471C406.017 235.84 407.803 236.569 408.446 238.103ZM400.757 244.461C398.995 245.174 398.155 247.189 398.89 248.942C399.612 250.664 401.584 251.486 403.316 250.785L403.394 250.754C405.156 250.041 405.995 248.026 405.26 246.273C404.539 244.551 402.566 243.729 400.835 244.429L400.757 244.461Z" fill="#290E43"/>
</g>
<defs>
<filter id="filter0_d_392:715" x="-180.349" y="0.465115" width="1136.14" height="1210.7" filterUnits="userSpaceOnUse" color-interpolation-filters="sRGB">
<feFlood flood-opacity="0" result="BackgroundImageFix"/>
<feColorMatrix in="SourceAlpha" type="matrix" values="0 0 0 0 0 0 0 0 0 0 0 0 0 0 0 0 0 0 127 0" result="hardAlpha"/>
<feOffset dy="5.81395"/>
<feGaussianBlur stdDeviation="10.1744"/>
<feComposite in2="hardAlpha" operator="out"/>
<feColorMatrix type="matrix" values="0 0 0 0 0.0880208 0 0 0 0 0.104406 0 0 0 0 0.1625 0 0 0 0.8 0"/>
<feBlend mode="normal" in2="BackgroundImageFix" result="effect1_dropShadow_392:715"/>
<feBlend mode="normal" in="SourceGraphic" in2="effect1_dropShadow_392:715" result="shape"/>
</filter>
</defs>
</svg>
