<svg viewBox="0 0 956 1212" fill="none" xmlns="http://www.w3.org/2000/svg">
<g filter="url(#filter0_d_392:636)">
<path fill-rule="evenodd" clip-rule="evenodd" d="M464.077 56.7633C456.908 54.8716 449.496 52.913 442.716 48.8952C433.073 43.1839 424.574 31.8114 427.329 19.2838C427.978 16.3431 430.883 14.4793 433.822 15.1294C436.758 15.7795 438.616 18.6896 437.967 21.6331C436.463 28.4717 442.008 35.8013 448.262 39.5065C453.726 42.7444 460.081 44.4238 466.811 46.2024L466.811 46.2025L466.854 46.2139C469.275 46.8529 471.779 47.5141 474.25 48.2563C487.455 52.2155 496.138 58.1695 500.792 66.4562C504.756 73.5095 505.399 81.4837 506.02 89.1927L506.021 89.2007C506.725 97.9192 507.334 105.449 512.477 109.75C516.825 113.386 523.114 113.55 530.398 113.74C536.479 113.899 542.766 114.064 548.782 116.349C557.445 119.638 564.826 127.431 569.032 137.729C572.593 146.453 573.644 155.564 574.66 164.377L574.66 164.379L574.661 164.389C575.004 167.38 572.862 170.086 569.873 170.432C569.662 170.457 569.453 170.468 569.244 170.468C566.514 170.468 564.16 168.421 563.84 165.639C562.91 157.556 561.946 149.197 558.952 141.859C555.885 134.353 550.771 128.773 544.922 126.549C540.633 124.923 535.527 124.789 530.119 124.647L530.114 124.647L530.113 124.647C521.977 124.435 512.755 124.194 505.499 118.126C496.842 110.891 495.951 99.8314 495.165 90.0744L495.161 90.026C494.609 83.2054 494.086 76.7623 491.302 71.8104C488.096 66.1046 481.497 61.819 471.124 58.708C468.826 58.0189 466.52 57.4078 464.077 56.7633ZM120.912 142.343C123.599 129.707 136.062 121.613 148.695 124.3C161.33 126.987 169.424 139.453 166.737 152.088C164.05 164.72 151.585 172.811 138.95 170.125C126.317 167.438 118.225 154.975 120.912 142.343ZM131.548 144.605C130.109 151.372 134.444 158.049 141.212 159.489C147.983 160.928 154.661 156.594 156.101 149.826C157.54 143.055 153.203 136.376 146.433 134.936C139.665 133.497 132.987 137.834 131.548 144.605ZM440.347 193.883C435.207 190.686 433.723 184.103 432.57 178.584C432.427 177.901 432.288 177.217 432.149 176.533C431.04 171.083 429.933 165.637 427.015 160.793C419.188 147.799 402.976 148.012 389.736 149.414C384.611 149.957 385.046 157.992 390.215 157.446C401.725 156.227 416.734 155.187 421.753 168.257C423.039 171.607 423.734 175.112 424.429 178.619C424.888 180.934 425.347 183.251 425.976 185.523C427.74 191.889 430.935 197.474 436.642 201.024C438.487 202.171 441.122 201.127 442.065 199.306C443.131 197.247 442.198 195.034 440.347 193.883ZM697.957 185.735L682.642 162.147C681.828 160.894 680.55 160.016 679.089 159.706C677.628 159.395 676.104 159.678 674.851 160.491L651.269 175.807C648.661 177.501 647.92 180.988 649.613 183.597L664.924 207.178C665.77 208.482 667.066 209.32 668.476 209.619C669.885 209.919 671.409 209.681 672.713 208.835L696.299 193.525C697.552 192.712 698.431 191.434 698.742 189.973C699.052 188.512 698.77 186.987 697.957 185.735ZM674.659 194.144C672.806 195.346 670.329 194.819 669.126 192.967L664.305 185.541C663.102 183.688 663.628 181.211 665.481 180.008L672.907 175.184C674.76 173.981 677.238 174.508 678.441 176.361L683.264 183.789C684.467 185.642 683.94 188.119 682.087 189.322L674.659 194.144ZM851.529 196.28C838.352 193.477 825.351 201.916 822.55 215.091C819.748 228.268 828.188 241.269 841.366 244.072C854.541 246.873 867.539 238.432 870.342 225.254C873.143 212.079 864.705 199.081 851.529 196.28ZM843.725 232.978C836.665 231.477 832.141 224.51 833.643 217.449C835.143 210.391 842.11 205.87 849.171 207.372C856.229 208.873 860.75 215.837 859.249 222.894C857.747 229.956 850.784 234.48 843.725 232.978ZM743.951 250.607C733.291 248.34 729.75 264.904 740.428 267.175C751.088 269.441 754.629 252.878 743.951 250.607ZM714.925 260.403C704.265 258.136 700.725 274.699 711.402 276.97C722.062 279.237 725.602 262.673 714.925 260.403ZM192.931 352.072L208.639 376.265C209.473 377.55 209.763 379.114 209.444 380.612C209.126 382.111 208.224 383.422 206.939 384.256L182.748 399.958C181.41 400.826 179.848 401.07 178.402 400.763C176.956 400.455 175.627 399.596 174.759 398.258L159.055 374.072C157.319 371.397 158.079 367.82 160.753 366.083L184.941 350.374C186.225 349.539 187.789 349.249 189.288 349.568C190.786 349.887 192.097 350.787 192.931 352.072ZM175.244 370.447C173.391 371.65 172.865 374.127 174.068 375.98L179.125 383.769C180.328 385.621 182.805 386.148 184.657 384.946L192.448 379.889C194.301 378.686 194.828 376.208 193.625 374.355L188.567 366.564C187.363 364.711 184.886 364.185 183.033 365.388L175.244 370.447ZM315.497 383.918C303.571 381.382 291.805 389.019 289.27 400.943C286.734 412.869 294.373 424.635 306.299 427.171C318.223 429.707 329.987 422.067 332.523 410.141C335.059 398.217 327.422 386.454 315.497 383.918ZM308.434 417.132C302.044 415.773 297.95 409.468 299.309 403.077C300.668 396.689 306.972 392.598 313.363 393.957C319.751 395.315 323.842 401.618 322.484 408.005C321.125 414.396 314.823 418.49 308.434 417.132ZM456.995 460.999C468.083 464.936 480.099 462.566 490.874 458.821C497.752 456.431 501.26 467.148 494.415 469.527C477.71 475.33 458.377 477.102 443.2 466.364C441.017 464.819 439.016 462.984 437.245 460.936C436.371 459.926 435.096 459.342 433.761 459.366C427.004 459.489 420.226 458.145 413.896 455.252C407.29 452.232 412.503 442.231 419.089 445.242C420.819 446.033 422.62 446.662 424.464 447.133C427.18 447.826 429.353 445.177 429.088 442.386C428.604 437.285 429.469 432.089 432.064 427.322C438.732 415.07 457.031 408.474 468.043 419.261C480.681 431.641 466.051 448.428 454.261 454.306C452.013 455.426 451.576 458.527 453.823 459.649C454.855 460.164 455.917 460.616 456.995 460.999ZM440.627 443.831C441.037 445.777 443.087 446.807 444.961 446.14C446.547 445.576 448.089 444.897 449.567 444.099C454.47 441.453 468.41 429.904 457.593 425.695C449.453 422.529 441.009 430.502 440.305 438.309C440.133 440.221 440.256 442.067 440.627 443.831ZM418.429 737.065C420.551 747.222 423.282 759.337 432.743 765.221C436.15 767.34 437.866 771.413 435.905 775.202C434.169 778.553 429.319 780.475 425.924 778.364C415.42 771.831 409.54 761.552 406.294 749.835C405.136 745.653 404.291 741.39 403.446 737.128C402.167 730.674 400.888 724.223 398.521 718.057C389.285 694.003 361.661 695.916 340.476 698.16C330.965 699.166 330.163 684.377 339.596 683.378C363.964 680.798 393.8 680.406 408.206 704.32C413.576 713.236 415.615 723.259 417.654 733.29C417.91 734.549 418.167 735.808 418.429 737.065ZM224.579 450.154C214.024 447.909 210.519 464.308 221.09 466.556C231.645 468.801 235.15 452.402 224.579 450.154ZM253.316 440.456C242.762 438.211 239.257 454.61 249.828 456.858C260.383 459.103 263.889 442.704 253.316 440.456ZM247.635 470.867C237.08 468.622 233.575 485.021 244.147 487.269C254.7 489.514 258.206 473.115 247.635 470.867ZM85.7023 556.685C75.148 554.44 71.6428 570.839 82.2142 573.087C92.7685 575.332 96.2737 558.933 85.7023 556.685ZM114.44 546.986C103.886 544.741 100.381 561.14 110.952 563.388C121.506 565.633 125.012 549.234 114.44 546.986ZM108.758 577.397C98.2036 575.152 94.6977 591.551 105.27 593.8C115.824 596.044 119.329 579.645 108.758 577.397ZM346.439 505.161C335.884 502.917 332.379 519.316 342.951 521.564C353.505 523.808 357.011 507.409 346.439 505.161ZM375.177 495.463C364.623 493.218 361.118 509.617 371.689 511.865C382.243 514.11 385.749 497.711 375.177 495.463ZM369.495 525.874C358.941 523.63 355.436 540.029 366.007 542.277C376.561 544.52 380.067 528.122 369.495 525.874ZM438.18 667.672C427.626 665.427 424.12 681.826 434.692 684.074C445.246 686.319 448.751 669.92 438.18 667.672ZM466.917 657.973C456.363 655.729 452.858 672.128 463.429 674.376C473.984 676.62 477.489 660.221 466.917 657.973ZM461.235 688.384C450.681 686.14 447.176 702.539 457.747 704.787C468.301 707.031 471.806 690.632 461.235 688.384ZM189.83 635.455C178.546 633.338 166.984 635.559 157.093 641.002C155.842 641.691 154.332 641.721 153.036 641.123C145.452 637.624 136.457 636.771 128.424 638.779C106.817 644.179 95.0269 665.075 89.2778 684.959C88.459 687.789 90.7422 690.841 93.4741 691.422C96.5308 692.072 99.1165 690.064 99.9371 687.225C103.921 673.449 110.748 659.646 123.671 652.333C130.095 648.697 138.013 647.476 144.955 649.5C145.195 649.569 145.265 649.867 145.089 650.045C139.458 655.718 135.176 662.912 133.138 670.658C130.797 679.556 133.622 690.058 143.817 692.001C161.686 695.408 173.435 674.687 169.163 659.323C168.608 657.327 167.848 655.464 166.913 653.735C165.69 651.473 166.33 648.473 168.761 647.634C174.767 645.564 181.242 644.928 187.563 646.114C194.446 647.406 196.739 636.751 189.83 635.455ZM150.21 680.892C148.292 681.553 145.319 682.009 143.893 680.184C142.567 678.487 143.164 675.587 143.616 673.649C144.945 667.957 148.152 662.732 152.096 658.479C152.972 657.535 153.896 656.636 154.858 655.78C154.894 655.748 154.95 655.751 154.983 655.787L155.024 655.831L155.031 655.839C155.124 655.939 155.216 656.04 155.305 656.145C161.688 663.63 160.166 677.46 150.21 680.892ZM101.268 485.44C103.331 475.742 112.897 469.529 122.593 471.591C132.291 473.654 138.504 483.222 136.441 492.92C134.379 502.616 124.812 508.826 115.113 506.764C105.417 504.702 99.2061 495.136 101.268 485.44ZM109.432 487.176C108.328 492.371 111.655 497.496 116.85 498.6C122.047 499.706 127.173 496.379 128.278 491.184C129.383 485.987 126.054 480.86 120.857 479.755C115.662 478.65 110.537 481.98 109.432 487.176ZM421.091 574.338C425.235 554.851 444.46 542.37 463.946 546.514C483.427 550.656 495.904 569.879 491.761 589.366C487.619 608.848 468.399 621.327 448.918 617.184C429.431 613.04 416.948 593.819 421.091 574.338ZM437.494 577.825C435.275 588.261 441.965 598.56 452.406 600.78C462.843 603 473.139 596.315 475.359 585.877C477.579 575.436 470.895 565.135 460.458 562.916C450.016 560.695 439.715 567.383 437.494 577.825ZM275.414 705.775C262.258 702.978 249.279 711.407 246.481 724.566C243.682 737.725 252.108 750.706 265.264 753.503C278.423 756.301 291.405 747.873 294.203 734.714C297.001 721.555 288.572 708.574 275.414 705.775ZM267.62 742.427C260.572 740.928 256.058 733.972 257.557 726.921C259.057 719.87 266.011 715.353 273.058 716.852C280.109 718.351 284.626 725.308 283.127 732.359C281.627 739.409 274.671 743.926 267.62 742.427ZM317.829 594.857L302.951 571.944C302.161 570.727 300.919 569.873 299.501 569.571C298.081 569.269 296.601 569.544 295.383 570.334L272.474 585.213C269.941 586.859 269.221 590.246 270.866 592.781L285.739 615.688C286.562 616.956 287.821 617.769 289.19 618.06C290.559 618.352 292.039 618.12 293.306 617.298L316.219 602.426C317.436 601.636 318.289 600.394 318.591 598.975C318.893 597.556 318.619 596.074 317.829 594.857ZM295.292 602.964C293.439 604.166 290.963 603.639 289.76 601.787L285.2 594.765C283.997 592.912 284.524 590.435 286.376 589.232L293.399 584.671C295.252 583.467 297.729 583.994 298.933 585.847L303.493 592.871C304.696 594.724 304.169 597.202 302.316 598.405L295.292 602.964ZM448.512 773.923C439.195 771.942 436.1 786.419 445.433 788.403C454.749 790.384 457.844 775.908 448.512 773.923ZM738.212 281.324C727.551 279.057 724.011 295.62 734.689 297.891C745.348 300.158 748.89 283.594 738.212 281.324ZM574.656 368.002C563.996 365.735 560.455 382.299 571.133 384.57C581.793 386.837 585.333 370.273 574.656 368.002ZM603.682 358.206C593.021 355.939 589.481 372.503 600.159 374.773C610.819 377.04 614.36 360.477 603.682 358.206ZM597.943 388.922C587.283 386.655 583.741 403.219 594.42 405.489C605.08 407.756 608.62 391.193 597.943 388.922ZM838.008 315.962C827.347 313.695 823.807 330.258 834.484 332.529C845.145 334.796 848.686 318.233 838.008 315.962ZM867.034 306.167C856.374 303.9 852.834 320.463 863.511 322.734C874.171 325.001 877.711 308.437 867.034 306.167ZM861.295 336.883C850.635 334.616 847.095 351.179 857.772 353.45C868.432 355.716 871.973 339.153 861.295 336.883ZM644.644 450.222C645.935 450.831 647.446 450.8 648.693 450.105C660.179 443.696 673.649 441.063 686.793 443.529C694.767 445.025 692.12 457.324 684.175 455.833C676.622 454.415 668.878 455.251 661.742 457.846C659.325 458.725 658.682 461.721 659.962 463.952C661.215 466.135 662.223 468.512 662.937 471.08C667.867 488.814 654.305 512.732 633.68 508.8C621.912 506.556 618.65 494.435 621.353 484.163C623.705 475.222 628.648 466.918 635.147 460.37C635.351 460.165 635.271 459.821 634.993 459.74C626.98 457.405 617.84 458.814 610.425 463.011C595.508 471.453 587.627 487.385 583.029 503.287C582.082 506.564 579.097 508.881 575.569 508.131C572.416 507.46 569.78 503.938 570.725 500.671C577.361 477.719 590.97 453.599 615.911 447.365C625.298 445.019 635.822 446.057 644.644 450.222ZM633.767 495.159C635.413 497.266 638.845 496.739 641.059 495.976C652.551 492.015 654.307 476.051 646.94 467.411C646.704 467.134 646.28 467.116 646.011 467.362C645.048 468.237 644.121 469.152 643.236 470.105C638.683 475.014 634.981 481.045 633.448 487.616C632.926 489.853 632.236 493.201 633.767 495.159ZM983.621 398.486C984.964 387.643 982.183 376.793 976.446 367.709C975.684 366.502 975.56 364.997 976.072 363.665C978.92 356.252 979.186 347.673 976.806 340.171C970.377 319.903 949.765 309.91 930.477 305.613C927.732 305.001 924.959 307.358 924.568 309.996C924.13 312.947 926.197 315.291 928.951 315.905C942.315 318.882 955.872 324.567 963.609 336.447C967.513 342.442 969.137 350.051 967.502 356.865C967.479 356.959 967.365 356.994 967.294 356.929L967.221 356.863C967.168 356.815 967.115 356.767 967.061 356.719C961.321 351.692 954.212 348.038 946.71 346.557C938.091 344.854 928.253 348.17 927.007 358C924.822 375.229 945.264 385.194 959.65 380.211C961.444 379.59 963.11 378.796 964.648 377.854C966.842 376.512 969.877 376.963 970.851 379.344C973.119 384.887 974.075 390.942 973.33 396.959C972.507 403.594 982.796 405.146 983.621 398.486ZM937.972 363.432C937.228 361.644 936.617 358.838 938.271 357.371C939.809 356.006 942.608 356.403 944.482 356.719C949.985 357.646 955.154 360.392 959.441 363.898C960.374 364.661 961.269 365.472 962.127 366.32C962.188 366.38 962.188 366.478 962.129 366.539C962.039 366.633 961.95 366.726 961.855 366.817C955.102 373.343 941.833 372.715 937.972 363.432ZM611.229 297.434C614.97 279.84 632.324 268.57 649.913 272.31C667.507 276.051 678.777 293.409 675.035 311.002C671.295 328.592 653.938 339.858 636.345 336.117C618.754 332.376 607.487 315.023 611.229 297.434ZM626.038 300.583C624.034 310.006 630.07 319.303 639.494 321.307C648.922 323.312 658.222 317.277 660.226 307.853C662.23 298.426 656.191 289.125 646.764 287.12C637.34 285.116 628.042 291.156 626.038 300.583ZM729.904 536.048C733.568 518.819 750.563 507.782 767.788 511.445C785.017 515.109 796.053 532.106 792.39 549.336C788.726 566.566 771.728 577.601 754.499 573.938C737.273 570.274 726.241 553.278 729.904 536.048ZM744.407 539.132C742.444 548.364 748.355 557.472 757.583 559.435C766.815 561.398 775.924 555.484 777.887 546.252C779.85 537.02 773.936 527.911 764.704 525.948C755.476 523.986 746.371 529.9 744.407 539.132ZM813.041 385.613L835.653 420.439C836.854 422.289 837.271 424.54 836.812 426.698C836.353 428.855 835.056 430.742 833.206 431.943L798.381 454.546C796.455 455.796 794.206 456.148 792.125 455.705C790.044 455.263 788.131 454.026 786.881 452.1L764.274 417.283C761.774 413.431 762.869 408.282 766.719 405.781L801.538 383.167C803.388 381.966 805.639 381.548 807.796 382.007C809.953 382.466 811.84 383.763 813.041 385.613ZM786.105 413.021C784.253 414.225 783.726 416.702 784.929 418.554L794.123 432.715C795.326 434.568 797.803 435.095 799.656 433.892L813.82 424.698C815.673 423.495 816.2 421.018 814.997 419.165L805.8 405C804.597 403.147 802.12 402.62 800.267 403.824L786.105 413.021ZM456.1 887.242C445.103 891.063 432.842 893.482 421.527 889.465C420.426 889.074 419.343 888.613 418.289 888.087C415.996 886.942 416.443 883.778 418.737 882.634C430.768 876.636 445.697 859.505 432.8 846.872C421.563 835.864 402.89 842.595 396.085 855.097C393.417 860 392.541 865.346 393.06 870.589C393.336 873.379 391.163 876.028 388.444 875.344C386.522 874.86 384.646 874.209 382.844 873.385C376.123 870.312 370.804 880.518 377.545 883.6C384.018 886.559 390.95 887.929 397.86 887.797C399.195 887.772 400.471 888.356 401.343 889.368C403.158 891.47 405.209 893.354 407.449 894.939C422.937 905.897 442.666 904.09 459.713 898.167C466.698 895.74 463.118 884.803 456.1 887.242ZM413.947 872.218C412.418 873.044 410.821 873.745 409.179 874.325C407.304 874.988 405.255 873.959 404.838 872.014C404.448 870.194 404.317 868.286 404.495 866.31C405.214 858.343 413.83 850.207 422.137 853.438C433.175 857.733 418.95 869.518 413.947 872.218ZM197.962 881.59C188.765 879.634 185.711 893.924 194.922 895.883C204.119 897.838 207.173 883.549 197.962 881.59ZM223.003 873.139C213.806 871.183 210.752 885.473 219.963 887.432C229.16 889.388 232.215 875.098 223.003 873.139ZM218.052 899.639C208.855 897.683 205.801 911.972 215.013 913.931C224.209 915.887 227.264 901.597 218.052 899.639ZM98.0714 970.218C88.8748 968.263 85.8206 982.552 95.0321 984.511C104.229 986.467 107.283 972.177 98.0714 970.218ZM123.112 961.767C113.916 959.811 110.861 974.101 120.073 976.06C129.269 978.015 132.324 963.726 123.112 961.767ZM118.161 988.266C108.964 986.31 105.909 1000.6 115.122 1002.56C124.318 1004.51 127.372 990.225 118.161 988.266ZM325.267 925.322C316.07 923.366 313.016 937.656 322.228 939.615C331.424 941.57 334.479 927.281 325.267 925.322ZM350.309 916.872C341.112 914.916 338.058 929.205 347.269 931.164C356.466 933.12 359.52 918.83 350.309 916.872ZM345.357 943.371C336.161 941.415 333.107 955.705 342.318 957.663C351.514 959.618 354.57 945.33 345.357 943.371ZM214.077 996.797C200.939 994.004 187.978 1002.42 185.183 1015.56C182.389 1028.7 190.804 1041.66 203.943 1044.45C217.083 1047.25 230.047 1038.83 232.841 1025.7C235.635 1012.56 227.218 999.592 214.077 996.797ZM206.295 1033.39C199.256 1031.9 194.748 1024.95 196.245 1017.91C197.742 1010.87 204.686 1006.36 211.725 1007.86C218.766 1009.36 223.277 1016.3 221.779 1023.34C220.282 1030.38 213.337 1034.89 206.295 1033.39ZM271.507 833.671C274.179 821.106 286.578 813.058 299.146 815.73C311.711 818.403 319.759 830.799 317.087 843.364C314.415 855.932 302.018 863.983 289.453 861.311C276.884 858.638 268.834 846.239 271.507 833.671ZM282.086 835.92C280.654 842.655 284.969 849.299 291.703 850.731C298.435 852.163 305.076 847.848 306.508 841.114C307.939 834.382 303.628 827.741 296.896 826.309C290.162 824.877 283.518 829.188 282.086 835.92ZM435.403 999.667C425.163 997.49 415.061 1004.05 412.883 1014.29C410.706 1024.53 417.266 1034.63 427.506 1036.8C437.743 1038.98 447.843 1032.42 450.02 1022.19C452.197 1011.95 445.64 1001.84 435.403 999.667ZM429.339 1028.18C423.852 1027.02 420.337 1021.61 421.503 1016.12C422.67 1010.63 428.083 1007.12 433.57 1008.29C439.055 1009.45 442.567 1014.87 441.401 1020.35C440.234 1025.84 434.823 1029.35 429.339 1028.18ZM125.512 790.466L140.477 813.516C141.272 814.739 141.548 816.23 141.244 817.657C140.941 819.085 140.082 820.334 138.858 821.128L115.809 836.089C114.534 836.916 113.046 837.148 111.668 836.856C110.291 836.563 109.025 835.744 108.197 834.469L93.2359 811.426C91.5814 808.877 92.3055 805.469 94.8541 803.814L117.898 788.847C119.122 788.052 120.612 787.776 122.04 788.08C123.467 788.383 124.717 789.241 125.512 790.466ZM108.818 807.869C106.966 809.072 106.439 811.549 107.642 813.402L112.254 820.506C113.457 822.359 115.934 822.885 117.787 821.683L124.892 817.071C126.746 815.868 127.273 813.39 126.07 811.537L121.456 804.432C120.253 802.579 117.775 802.052 115.922 803.255L108.818 807.869ZM954.223 752.883C959.95 747.15 970.013 749.476 972.668 757.124L1115.83 1170.17C1118.83 1178.81 1110.27 1187.39 1101.63 1184.39L688.962 1041.09C681.321 1038.44 678.997 1028.36 684.724 1022.63L954.223 752.883ZM826.923 1065.34C827.411 1065.51 827.928 1065.58 828.444 1065.56L1046.57 1054.14C1049.23 1054 1051.01 1051.35 1050.14 1048.84L1038.08 1014.02C1037.49 1012.34 1035.87 1011.24 1034.09 1011.34L861.75 1020.35C855.616 1020.66 850.34 1015.94 850.02 1009.78C849.7 1003.61 854.429 998.354 860.585 998.034L1024.16 989.475C1026.82 989.336 1028.6 986.686 1027.73 984.17L1021.82 967.117C1021.23 965.434 1019.61 964.34 1017.83 964.433L762.554 977.793C761.566 977.845 760.632 978.261 759.933 978.961L741.635 997.275C739.045 999.868 741.015 1004.29 744.674 1004.1L807.647 1000.8C813.82 1000.49 819.062 1005.22 819.382 1011.38C819.702 1017.55 814.973 1022.8 808.812 1023.13L739.325 1026.76C734.94 1026.99 734.074 1033.1 738.222 1034.54L826.923 1065.34ZM946.413 1106.83C946.902 1107 947.418 1107.07 947.934 1107.05L1062.83 1101.04C1065.49 1100.9 1067.27 1098.25 1066.4 1095.73L1060.49 1078.69C1059.91 1077 1058.28 1075.91 1056.5 1076L904.087 1083.98C899.702 1084.21 898.836 1090.31 902.984 1091.75L946.413 1106.83ZM999.403 902.458C998.819 900.775 997.193 899.681 995.414 899.774L831.961 908.328C830.973 908.379 830.04 908.795 829.34 909.495L791.975 946.895C789.385 949.488 791.354 953.909 795.013 953.717L1007.9 942.576C1010.56 942.437 1012.34 939.787 1011.47 937.271L999.403 902.458ZM983.146 855.556C982.561 853.875 980.936 852.782 979.158 852.875L882.295 857.947C881.307 857.999 880.374 858.415 879.674 859.114L861.378 877.424C858.788 880.016 860.757 884.437 864.417 884.246L985.487 877.911C988.146 877.772 989.93 875.123 989.058 872.607L984.449 859.308L983.146 855.556ZM959.502 787.345C958.535 784.555 954.98 783.739 952.893 785.828L911.716 827.038C909.126 829.63 911.095 834.051 914.755 833.86L969.228 831.012C971.887 830.873 973.671 828.223 972.799 825.707L959.502 787.345ZM1076.74 1125.59C1076.16 1123.9 1074.53 1122.81 1072.75 1122.9L1023.58 1125.47C1019.2 1125.7 1018.33 1131.81 1022.48 1133.25L1079.4 1153.01C1082.55 1154.11 1085.58 1151.08 1084.49 1147.92L1076.74 1125.59ZM823.043 793.222C823.76 784.426 822.146 775.557 818.378 767.574C815.743 761.999 812.508 757.999 808.484 755.346C801.537 750.768 793.579 750.92 786.555 751.059L785.503 751.076C775.75 751.249 752.329 749.957 745.462 734.356C742.52 727.669 743.141 719.33 743.798 710.494L743.799 710.477C744.686 698.62 745.687 685.179 736.932 674.662C730.644 667.11 721.577 664.107 713.578 661.458L713.573 661.457L713.517 661.438C708.236 659.686 703.253 658.032 699.326 655.317C696.25 653.19 692.032 653.956 689.906 657.031C687.78 660.11 688.548 664.328 691.624 666.454C697.156 670.281 703.328 672.327 709.296 674.306L709.313 674.312L709.319 674.314C716.208 676.595 722.713 678.749 726.525 683.326C731.775 689.632 731.09 698.826 730.297 709.467L730.297 709.47C729.542 719.575 728.762 730.027 733.067 739.81C740.208 756.035 759.432 765.06 785.738 764.617C786.304 764.606 786.874 764.591 787.447 764.575L787.451 764.575C790.936 764.482 794.521 764.385 797.883 765.292C802.004 766.404 804.38 769.649 806.132 773.358C808.889 779.197 810.07 785.687 809.547 792.125C809.242 795.851 812.02 799.117 815.746 799.421C815.933 799.439 816.117 799.446 816.304 799.446C819.795 799.446 822.756 796.762 823.043 793.222ZM563.9 777.399C554.986 775.051 545.77 772.62 537.341 767.633C525.352 760.544 514.786 746.428 518.211 730.879C519.018 727.229 522.63 724.915 526.283 725.722C529.933 726.529 532.243 730.141 531.436 733.795C529.566 742.283 536.461 751.381 544.236 755.98C551.03 759.999 558.931 762.083 567.298 764.291L567.299 764.291L567.353 764.305C570.362 765.098 573.475 765.919 576.547 766.84C592.966 771.754 603.761 779.145 609.547 789.43C614.476 798.185 615.276 808.083 616.048 817.651L616.049 817.661C616.924 828.483 617.681 837.829 624.075 843.168C629.481 847.68 637.301 847.885 646.357 848.12C653.917 848.317 661.734 848.522 669.214 851.358C679.984 855.441 689.162 865.114 694.391 877.896C698.819 888.725 700.125 900.034 701.389 910.974L701.39 910.986C701.816 914.699 699.153 918.058 695.437 918.488C695.174 918.519 694.914 918.533 694.654 918.533C691.26 918.533 688.334 915.991 687.936 912.538C686.779 902.505 685.581 892.13 681.858 883.022C678.045 873.706 671.687 866.779 664.414 864.019C659.083 862.001 652.734 861.834 646.011 861.658L646.004 861.657H646.002C635.887 861.394 624.421 861.096 615.4 853.564C604.637 844.584 603.529 830.856 602.552 818.746L602.547 818.686C601.86 810.22 601.21 802.222 597.749 796.076C593.763 788.994 585.558 783.674 572.662 779.813C569.805 778.958 566.937 778.199 563.9 777.399ZM650.458 742.338C653.613 742.338 656.435 740.122 657.086 736.911C662.014 712.6 648.134 685.626 625.489 675.503C622.069 673.971 618.566 672.819 615.181 671.706L615.179 671.705L615.165 671.701C609.132 669.716 603.432 667.839 599.467 664.21C595.127 660.234 592.686 654.007 590.106 647.41C586.899 639.223 583.263 629.949 575.083 623.923C566.883 617.884 556.814 617.07 548.721 616.415H548.721L548.718 616.415C544.988 616.107 541.726 618.891 541.421 622.617C541.12 626.347 543.897 629.613 547.627 629.914C555.741 630.569 562.328 631.348 567.052 634.825C572.083 638.53 574.711 645.244 577.492 652.345L577.492 652.346L577.493 652.349C580.527 660.092 583.664 668.099 590.32 674.194C596.429 679.787 603.792 682.211 610.918 684.558L610.933 684.563L610.955 684.57C614.154 685.623 617.177 686.619 619.961 687.863C637.056 695.506 647.532 715.869 643.812 734.221C643.068 737.888 645.44 741.459 649.104 742.203C649.558 742.293 650.011 742.338 650.458 742.338ZM933.927 654.303C932.061 656.996 928.593 657.918 925.694 656.672C925.284 656.496 924.885 656.275 924.503 656.013C921.431 653.883 920.661 649.666 922.793 646.59C933.456 631.198 931.871 608.353 919.183 594.582C917.118 592.341 914.736 590.235 912.215 588.006L912.211 588.003L912.211 588.002L912.21 588.001L912.191 587.985L912.18 587.975C906.559 583.005 900.751 577.87 897.347 570.32C893.638 562.093 893.917 553.497 894.187 545.185L894.187 545.182C894.437 537.559 894.672 530.353 891.513 524.963C888.545 519.903 882.801 516.587 875.605 512.782C872.297 511.032 871.035 506.935 872.784 503.627C874.535 500.324 878.632 499.054 881.937 500.81L881.939 500.811C889.116 504.608 898.046 509.332 903.196 518.117C908.332 526.883 908.011 536.84 907.725 545.628C907.491 552.708 907.275 559.393 909.692 564.758C911.903 569.659 916.399 573.634 921.158 577.839L921.17 577.85L921.171 577.851C923.842 580.21 926.605 582.651 929.141 585.408C945.951 603.65 948.053 633.913 933.927 654.303ZM824.068 691.849L848.324 676.154C851.462 674.125 852.362 669.931 850.33 666.79L834.635 642.534C832.602 639.396 828.411 638.499 825.274 640.529L801.018 656.224C797.877 658.253 796.98 662.447 799.009 665.588L814.704 689.844C816.709 692.94 820.969 693.854 824.068 691.849ZM816.233 667.273C815.033 665.418 815.563 662.942 817.417 661.742L823.585 657.75C825.439 656.549 827.916 657.08 829.116 658.935L833.109 665.104C834.309 666.958 833.778 669.435 831.923 670.635L825.754 674.626C823.899 675.826 821.423 675.295 820.223 673.44L816.233 667.273ZM705.255 757.05C708.94 756.873 712.168 759.807 712.344 763.488L713.74 792.343C713.923 796.08 711.042 799.255 707.305 799.435L678.447 800.831C674.766 801.011 671.538 798.078 671.358 794.397L669.962 765.538C669.782 761.805 672.66 758.629 676.397 758.449L705.255 757.05ZM684.363 782.983C684.47 785.19 686.345 786.892 688.551 786.785L695.891 786.431C698.098 786.324 699.8 784.448 699.693 782.241L699.337 774.9C699.23 772.694 697.354 770.992 695.148 771.099L687.81 771.454C685.604 771.561 683.901 773.436 684.008 775.642L684.363 782.983ZM657.633 652.691C660.941 654.336 665.065 652.944 666.71 649.64L679.565 623.767C681.207 620.46 679.811 616.332 676.514 614.69L650.641 601.835C647.334 600.194 643.203 601.586 641.564 604.886L628.709 630.759C627.043 634.108 628.411 638.174 631.76 639.836L657.633 652.691ZM647.432 632.501C645.454 631.518 644.647 629.117 645.63 627.139L648.9 620.558C649.883 618.58 652.283 617.773 654.262 618.756L660.842 622.026C662.821 623.009 663.628 625.409 662.645 627.388L659.375 633.968C658.392 635.947 655.991 636.754 654.013 635.771L647.432 632.501ZM528.15 908.219L549.816 889.106C552.621 886.63 556.901 886.897 559.374 889.702L578.487 911.367C580.96 914.172 580.693 918.449 577.888 920.926L556.223 940.039C554.938 941.175 553.338 941.732 551.748 941.732C549.871 941.732 548.004 940.956 546.668 939.44L527.555 917.774C526.367 916.427 525.761 914.664 525.872 912.87C525.986 911.08 526.803 909.404 528.15 908.219ZM549.694 922.404C551.156 924.06 553.683 924.219 555.34 922.757L560.852 917.895C562.509 916.434 562.667 913.906 561.206 912.25L556.344 906.738C554.883 905.081 552.355 904.923 550.698 906.384L545.186 911.246C543.529 912.707 543.371 915.235 544.832 916.892L549.694 922.404ZM511.814 782.618L500.815 809.333C499.392 812.789 501.041 816.747 504.497 818.171L531.211 829.173C534.626 830.579 538.65 828.896 540.053 825.488L551.052 798.774C552.458 795.362 550.775 791.338 547.37 789.936L520.656 778.937C517.196 777.513 513.238 779.158 511.814 782.618ZM532.253 798.355C534.296 799.196 535.27 801.535 534.429 803.578L531.63 810.373C530.789 812.415 528.451 813.389 526.409 812.548L519.614 809.751C517.571 808.91 516.597 806.572 517.439 804.529L520.237 797.734C521.079 795.692 523.416 794.718 525.459 795.558L532.253 798.355ZM281.202 169.521C283.259 159.85 292.798 153.655 302.466 155.711C312.137 157.767 318.331 167.308 316.275 176.979C314.219 186.65 304.678 192.844 295.007 190.788C285.338 188.732 279.146 179.192 281.202 169.521ZM289.343 171.252C288.241 176.434 291.558 181.546 296.738 182.647C301.92 183.749 307.033 180.43 308.135 175.248C309.237 170.066 305.917 164.953 300.735 163.851C295.556 162.75 290.445 166.07 289.343 171.252ZM448.915 198.611C443.853 197.535 442.171 205.4 447.242 206.479C452.304 207.555 453.985 199.689 448.915 198.611ZM450.805 302.149C442.629 299.246 433.769 300.994 425.823 303.755C420.751 305.517 418.164 297.615 423.212 295.861C435.53 291.581 449.787 290.275 460.978 298.193C462.437 299.225 463.785 300.434 464.998 301.775C465.893 302.766 467.164 303.35 468.5 303.348C473.296 303.339 478.094 304.333 482.587 306.387C487.458 308.614 483.615 315.989 478.758 313.769C477.945 313.397 477.11 313.074 476.26 312.798C473.593 311.934 471.411 314.594 471.474 317.397C471.546 320.663 470.845 323.941 469.19 326.983C464.273 336.017 450.779 340.881 442.659 332.927C433.34 323.798 444.128 311.419 452.822 307.085C454.479 306.259 454.802 303.972 453.145 303.145C452.383 302.765 451.601 302.431 450.805 302.149ZM463.033 315.705C462.753 313.736 460.676 312.693 458.828 313.426C457.957 313.772 457.106 314.167 456.283 314.611C452.668 316.562 442.388 325.079 450.365 328.182C456.367 330.517 462.593 324.638 463.113 318.881C463.211 317.792 463.179 316.731 463.033 315.705ZM247.479 321.001C238.283 319.045 235.229 333.335 244.44 335.294C253.637 337.249 256.691 322.96 247.479 321.001ZM272.52 312.55C263.324 310.595 260.269 324.884 269.481 326.843C278.677 328.799 281.732 314.509 272.52 312.55ZM267.57 339.05C258.372 337.094 255.318 351.383 264.53 353.342C273.726 355.298 276.781 341.008 267.57 339.05ZM84.7491 202.243C75.5525 200.288 72.4983 214.577 81.7098 216.536C90.9064 218.492 93.9606 204.202 84.7491 202.243ZM109.79 193.792C100.593 191.836 97.5391 206.126 106.751 208.085C115.947 210.04 119.002 195.751 109.79 193.792ZM104.839 220.291C95.642 218.335 92.5871 232.625 101.799 234.584C110.996 236.539 114.05 222.25 104.839 220.291ZM104.95 282.304C95.6734 280.563 86.1708 282.341 78.0014 286.744C76.7446 287.422 75.2369 287.451 73.9327 286.87C67.6858 284.087 60.341 283.432 53.7684 285.074C35.7593 289.576 25.9325 306.992 21.1407 323.565C20.4582 325.924 22.3612 328.468 24.6383 328.952C27.186 329.494 29.3412 327.821 30.0251 325.454C33.3453 313.972 39.0357 302.467 49.8072 296.372C55.2424 293.296 61.9609 292.294 67.809 294.089C67.8896 294.113 67.9139 294.215 67.8533 294.273C67.7879 294.337 67.7226 294.4 67.6585 294.465C62.9658 299.193 59.3964 305.189 57.6977 311.645C55.7465 319.062 58.1013 327.815 66.5987 329.435C81.4921 332.274 91.2847 315.004 87.7246 302.198C87.3406 300.817 86.8387 299.512 86.2334 298.284C85.0963 295.977 85.7325 292.97 88.1841 292.193C92.964 290.678 98.07 290.252 103.061 291.189C108.798 292.265 110.709 283.385 104.95 282.304ZM71.9272 320.175C70.3286 320.727 67.8507 321.107 66.6619 319.586C65.5566 318.171 66.0545 315.754 66.4312 314.139C67.5386 309.394 70.2116 305.039 73.4995 301.495C74.2248 300.712 74.99 299.967 75.7871 299.258C75.8254 299.223 75.8839 299.227 75.9185 299.264L75.9459 299.294C76.0228 299.378 76.0996 299.462 76.174 299.549C81.4936 305.788 80.2256 317.315 71.9272 320.175ZM327.22 265.242C317.907 262.747 308.3 268.292 305.805 277.603C303.31 286.916 308.856 296.523 318.17 299.019C327.481 301.513 337.086 295.967 339.582 286.653C342.077 277.342 336.532 267.737 327.22 265.242ZM320.27 291.179C315.28 289.842 312.308 284.693 313.645 279.703C314.982 274.715 320.129 271.744 325.12 273.082C330.108 274.418 333.079 279.564 331.742 284.552C330.405 289.543 325.259 292.515 320.27 291.179ZM220.418 234.227L234.996 256.68C235.77 257.872 236.039 259.324 235.744 260.714C235.448 262.105 234.611 263.322 233.419 264.096L210.967 278.668C209.725 279.474 208.275 279.701 206.933 279.415C205.591 279.13 204.358 278.333 203.552 277.091L188.978 254.645C187.367 252.162 188.072 248.842 190.555 247.23L213.002 232.65C214.194 231.876 215.646 231.607 217.037 231.903C218.427 232.198 219.644 233.034 220.418 234.227ZM204.244 251.123C202.391 252.326 201.865 254.803 203.068 256.656L207.448 263.402C208.651 265.255 211.128 265.782 212.981 264.579L219.728 260.199C221.581 258.997 222.108 256.519 220.905 254.666L216.524 247.918C215.321 246.065 212.843 245.538 210.99 246.742L204.244 251.123ZM548 238.103L543.037 249.948C542.395 251.481 543.139 253.236 544.698 253.867L556.751 258.745C558.292 259.369 560.108 258.623 560.74 257.112L565.703 245.266C566.337 243.754 565.578 241.969 564.042 241.348L551.989 236.471C550.428 235.84 548.642 236.569 548 238.103ZM555.688 244.461C557.45 245.174 558.29 247.189 557.555 248.942C556.833 250.664 554.861 251.486 553.13 250.785L553.052 250.754C551.29 250.041 550.45 248.026 551.185 246.273C551.907 244.551 553.879 243.729 555.61 244.429L555.688 244.461Z" fill="#290E43"/>
</g>
<defs>
<filter id="filter0_d_392:636" x="0.651161" y="0.465115" width="1136.14" height="1210.7" filterUnits="userSpaceOnUse" color-interpolation-filters="sRGB">
<feFlood flood-opacity="0" result="BackgroundImageFix"/>
<feColorMatrix in="SourceAlpha" type="matrix" values="0 0 0 0 0 0 0 0 0 0 0 0 0 0 0 0 0 0 127 0" result="hardAlpha"/>
<feOffset dy="5.81395"/>
<feGaussianBlur stdDeviation="10.1744"/>
<feComposite in2="hardAlpha" operator="out"/>
<feColorMatrix type="matrix" values="0 0 0 0 0.0880208 0 0 0 0 0.104406 0 0 0 0 0.1625 0 0 0 0.8 0"/>
<feBlend mode="normal" in2="BackgroundImageFix" result="effect1_dropShadow_392:636"/>
<feBlend mode="normal" in="SourceGraphic" in2="effect1_dropShadow_392:636" result="shape"/>
</filter>
</defs>
</svg>
