<svg width="188" height="169" viewBox="0 0 188 169" fill="none" xmlns="http://www.w3.org/2000/svg">
<g filter="url(#filter0_d)">
<rect x="4.35693" y="2.49561" width="138.447" height="121" rx="10" fill="#290E43"/>
<rect x="4.85693" y="2.99561" width="137.447" height="120" rx="9.5" stroke="#936DB9"/>
</g>
<rect x="19.4258" y="73.2849" width="108.309" height="30.4558" rx="6" fill="url(#paint0_linear)"/>
<rect opacity="0.3" x="19.4258" y="18.958" width="70.6364" height="9.87755" rx="2.16324" fill="#936DB9"/>
<rect opacity="0.3" x="19.4258" y="33.7747" width="92.2982" height="9.87755" rx="2.16324" fill="#936DB9"/>
<rect opacity="0.3" x="19.4258" y="47.7678" width="81.9382" height="9.87755" rx="2.16324" fill="#936DB9"/>
<g clip-path="url(#clip0)">
<path d="M110.824 89.8623C114.236 87.892 117.098 90.2021 117.88 91.5557L123.722 101.723C123.863 101.966 124.111 102.134 124.395 102.17C124.59 102.196 124.786 102.152 124.952 102.057C125.025 102.015 125.096 101.959 125.157 101.897C125.765 101.248 126.412 100.729 127.071 100.349C129.042 99.2112 130.902 99.4859 132.114 99.9203C132.588 100.087 133.092 100.149 133.593 100.101C134.093 100.054 134.577 99.8978 135.011 99.6444C135.332 99.4588 135.619 99.2243 135.863 98.9521C136.169 98.609 136.538 98.3132 136.958 98.0707C137.627 97.6844 138.441 97.4289 139.36 97.3201C140.583 97.1743 141.737 97.4967 142.498 97.7971C143.303 98.1137 144.832 98.5452 145.999 97.8714C146.175 97.7696 146.334 97.6501 146.473 97.5076C146.683 97.2964 146.958 97.0894 147.269 96.9098C148.685 96.0923 150.949 95.7257 153.037 97.1619C154.923 98.452 160.603 108.339 162.464 111.586C167.374 120.127 168.509 135.674 168.518 135.835C168.522 135.888 168.53 135.938 168.541 135.994C168.706 136.639 168.417 137.324 167.842 137.657L147.134 149.377C146.537 149.708 145.784 149.589 145.309 149.089L144.767 148.51C142.092 145.65 138.465 143.823 134.275 143.213C133.376 143.082 132.512 142.806 131.701 142.396C127.347 140.173 124.274 137.785 121.307 135.473C118.501 133.283 115.849 131.218 112.379 129.508C111.605 129.125 110.316 127.587 109.982 125.954C109.764 124.905 109.972 123.996 110.602 123.266C111.106 122.678 111.618 122.237 112.168 121.919C114.123 120.79 116.676 121.26 120.454 123.442C124.486 125.768 125.141 126.614 125.167 126.647C125.425 127.058 125.953 127.182 126.373 126.94L126.383 126.934C126.806 126.683 126.936 126.131 126.696 125.702L109.669 96.0677C109.044 94.9838 107.924 91.5361 110.824 89.8623Z" fill="url(#paint1_linear)"/>
<path d="M168.291 138.434L167.383 136.884L146.693 148.588C146.451 148.72 146.151 148.679 145.965 148.476L145.423 147.896C142.607 144.889 138.797 142.96 134.402 142.331C133.601 142.212 132.829 141.966 132.107 141.602C127.825 139.42 124.794 137.056 121.856 134.769C119.013 132.552 116.325 130.459 112.774 128.706C112.337 128.488 111.157 127.233 110.86 125.773C110.65 124.739 110.997 124.179 111.283 123.847C111.719 123.333 112.153 122.958 112.615 122.692C113.719 122.054 115.56 121.648 120.001 124.215C123.395 126.177 124.294 127.027 124.44 127.184C124.69 127.545 125.063 127.803 125.489 127.908C125.916 128.014 126.366 127.96 126.755 127.756L126.817 127.72C127.626 127.253 127.947 126.239 127.542 125.394C127.523 125.349 127.496 125.303 127.469 125.256L110.442 95.6213C110.424 95.5901 108.618 92.1864 111.274 90.6533C114.38 88.8597 116.696 91.3126 117.1 92.0127L122.945 102.185C123.23 102.678 123.729 103.004 124.294 103.072C124.572 103.105 124.854 103.072 125.117 102.975C125.379 102.879 125.615 102.722 125.806 102.517C126.353 101.932 126.929 101.468 127.515 101.13C128.859 100.354 130.303 100.233 131.808 100.767C132.404 100.978 133.039 101.056 133.669 100.997C134.299 100.938 134.908 100.743 135.455 100.425C135.86 100.192 136.218 99.9017 136.53 99.5557C136.774 99.2835 137.065 99.0459 137.408 98.8483C137.973 98.5219 138.666 98.3086 139.468 98.2122C140.501 98.0858 141.503 98.3718 142.165 98.6325C143.121 99.0071 144.946 99.5093 146.44 98.6469C146.684 98.5062 146.91 98.3343 147.104 98.1321C147.254 97.9837 147.469 97.8178 147.713 97.6771C148.895 96.9943 150.777 96.6963 152.526 97.8926C153.307 98.4306 155.532 101.315 161.686 112.022C166.486 120.384 167.614 135.741 167.626 135.893C167.633 136 167.652 136.106 167.677 136.209C167.744 136.468 167.626 136.744 167.398 136.875L168.291 138.434ZM168.291 138.434C169.22 137.898 169.678 136.811 169.417 135.772C169.417 135.772 168.314 119.957 163.243 111.137C159.794 105.141 155.373 97.6734 153.543 96.4203C151.069 94.7228 148.433 95.2003 146.815 96.1345C146.421 96.3621 146.085 96.6184 145.827 96.878C145.738 96.9638 145.643 97.0393 145.54 97.0992C144.793 97.5304 143.646 97.2933 142.822 96.9672C141.882 96.597 140.61 96.2736 139.251 96.4356C138.1 96.5744 137.202 96.8993 136.507 97.3006C135.947 97.624 135.519 97.9958 135.189 98.359C135.003 98.5634 134.79 98.7344 134.552 98.8722C133.909 99.2435 133.122 99.3309 132.401 99.0764C130.973 98.5665 128.858 98.2802 126.612 99.5768C125.912 99.981 125.202 100.536 124.496 101.29L118.651 91.1174C117.701 89.4733 114.345 86.7985 110.367 89.0952C107.079 90.9936 107.935 94.8837 108.878 96.5174L125.905 126.152L125.914 126.168L125.905 126.152C125.828 126.03 125.17 125.131 120.895 122.661C116.89 120.348 114.014 119.809 111.711 121.139C111.073 121.507 110.474 122.026 109.912 122.682C107.539 125.47 110.357 129.513 111.975 130.315C118.998 133.784 122.725 138.838 131.288 143.202C132.183 143.657 133.147 143.962 134.141 144.106C137.936 144.654 141.486 146.324 144.107 149.126L144.649 149.706C145.018 150.096 145.507 150.351 146.038 150.431C146.57 150.512 147.113 150.413 147.581 150.149L168.27 138.446L168.291 138.434Z" fill="#F3C996"/>
<path d="M129.232 112.476L122.657 101.639L124.437 101.787C124.743 101.61 125.207 101.875 125.434 102.352L130.377 111.835C130.834 112.795 129.811 113.372 129.232 112.476Z" fill="#F3C996"/>
<path d="M128.342 130.29L124.798 127.517L123.571 126.517L125.553 125.975L127.51 125.495L129.703 129.401C130.121 130.114 128.959 130.688 128.342 130.29Z" fill="#F3C996"/>
<path d="M138.226 107.559L133.913 101.011C133.71 100.72 135.145 100.127 135.145 100.127C135.451 99.9504 135.843 100.091 135.986 100.423L139.249 106.996C139.544 107.663 138.643 108.162 138.226 107.559Z" fill="#F3C996"/>
<path d="M146.781 102.46L144.274 99.0397C144.152 98.8888 145.542 98.2177 145.542 98.2177C145.848 98.0411 146.165 98.0516 146.228 98.2437L147.799 101.887C147.921 102.266 147.023 102.771 146.781 102.46Z" fill="#F3C996"/>
</g>
<defs>
<filter id="filter0_d" x="0.356934" y="0.495605" width="146.447" height="129" filterUnits="userSpaceOnUse" color-interpolation-filters="sRGB">
<feFlood flood-opacity="0" result="BackgroundImageFix"/>
<feColorMatrix in="SourceAlpha" type="matrix" values="0 0 0 0 0 0 0 0 0 0 0 0 0 0 0 0 0 0 127 0" result="hardAlpha"/>
<feOffset dy="2"/>
<feGaussianBlur stdDeviation="2"/>
<feComposite in2="hardAlpha" operator="out"/>
<feColorMatrix type="matrix" values="0 0 0 0 1 0 0 0 0 0.760784 0 0 0 0 0.141176 0 0 0 1 0"/>
<feBlend mode="normal" in2="BackgroundImageFix" result="effect1_dropShadow"/>
<feBlend mode="normal" in="SourceGraphic" in2="effect1_dropShadow" result="shape"/>
</filter>
<linearGradient id="paint0_linear" x1="19.4258" y1="73.2849" x2="48.0156" y2="138.623" gradientUnits="userSpaceOnUse">
<stop stop-color="#FFE600"/>
<stop offset="0.473958" stop-color="#FFB331"/>
<stop offset="1" stop-color="#FF8800"/>
</linearGradient>
<linearGradient id="paint1_linear" x1="117.321" y1="86.1233" x2="152.111" y2="146.675" gradientUnits="userSpaceOnUse">
<stop offset="0.5625" stop-color="#F9DDBD"/>
<stop offset="1" stop-color="#EDC391"/>
</linearGradient>
<clipPath id="clip0">
<rect x="187.076" y="130.452" width="76.6555" height="76.6555" rx="10.3596" transform="rotate(150 187.076 130.452)" fill="white"/>
</clipPath>
</defs>
</svg>
