<svg width="1223" height="584" viewBox="0 0 1223 584" fill="none" xmlns="http://www.w3.org/2000/svg">
<path d="M0 25C0 11.1929 11.1929 0 25 0H1198C1211.81 0 1223 11.1929 1223 25V558.572C1223 572.379 1211.81 583.572 1198 583.572H25C11.1929 583.572 0 572.379 0 558.572V25Z" fill="white"/>
<path opacity="0.4" d="M383.984 193.412H444.997C464.406 193.412 480.196 177.144 480.196 157.148C480.196 137.151 464.406 120.883 444.997 120.883C435.453 120.883 426.38 124.894 419.805 131.832C417.018 130.989 414.114 130.553 411.205 130.553C406.428 130.553 401.799 131.683 397.595 133.852C393.39 131.683 388.761 130.553 383.984 130.553C367.163 130.553 353.478 144.653 353.478 161.983C353.478 179.313 367.163 193.412 383.984 193.412Z" fill="#D9F9FF"/>
<path opacity="0.4" d="M937.389 138.39H876.377C856.967 138.39 841.177 122.122 841.177 102.125C841.177 82.1281 856.967 65.8602 876.377 65.8602C885.92 65.8602 894.993 69.8716 901.569 76.8093C904.355 75.966 907.26 75.5308 910.168 75.5308C914.945 75.5308 919.575 76.6604 923.779 78.8295C927.983 76.6604 932.613 75.5308 937.389 75.5308C954.21 75.5308 967.896 89.6306 967.896 106.96C967.896 124.29 954.21 138.39 937.389 138.39Z" fill="#D9F9FF"/>
<ellipse rx="59.1909" ry="76.2973" transform="matrix(-1 0 0 1 156.731 247.2)" fill="#B6EFB9"/>
<ellipse rx="59.1909" ry="76.2973" transform="matrix(-1 0 0 1 156.731 349.421)" fill="#B6EFB9"/>
<path d="M160.065 231.761C160.065 229.92 158.572 228.427 156.731 228.427C154.889 228.427 153.396 229.92 153.396 231.761V523.547H160.065V231.761Z" fill="#D5AC9F"/>
<path d="M141.624 270.395C140.723 268.857 138.644 268.132 136.982 268.777C135.319 269.421 134.702 271.191 135.604 272.729L153.211 302.785L159.232 300.45L141.624 270.395Z" fill="#D5AC9F"/>
<ellipse rx="59.1909" ry="76.2973" transform="matrix(-1 0 0 1 1062.93 262.207)" fill="#B6EFB9"/>
<ellipse rx="59.1909" ry="76.2973" transform="matrix(-1 0 0 1 1062.93 349.421)" fill="#B6EFB9"/>
<path d="M1066.27 240.932C1066.27 239.09 1064.78 237.597 1062.93 237.597C1061.09 237.597 1059.6 239.09 1059.6 240.932V523.547H1066.27V240.932Z" fill="#D5AC9F"/>
<path d="M1077.79 305.75C1078.69 304.211 1080.77 303.487 1082.43 304.131C1084.1 304.776 1084.71 306.546 1083.81 308.084L1066.2 338.139L1060.18 335.805L1077.79 305.75Z" fill="#D5AC9F"/>
<ellipse cx="79.1992" cy="362.829" rx="59.1909" ry="76.2973" fill="#83C996"/>
<path d="M75.8643 350.226C75.8643 348.385 77.3573 346.892 79.199 346.892C81.0407 346.892 82.5337 348.385 82.5337 350.226V532.718H75.8643V350.226Z" fill="#AC897E"/>
<path d="M94.3057 365.954C95.2071 364.416 97.2855 363.691 98.948 364.335C100.611 364.98 101.228 366.75 100.326 368.288L82.7187 398.344L76.6981 396.009L94.3057 365.954Z" fill="#AC897E"/>
<ellipse cx="1132.96" cy="396.946" rx="59.1909" ry="60.9753" fill="#6DAD7F"/>
<path d="M1129.63 387.544C1129.63 385.702 1131.12 384.209 1132.96 384.209C1134.8 384.209 1136.3 385.702 1136.3 387.544V532.718H1129.63V387.544Z" fill="#7D635A"/>
<path d="M1124.17 406.66C1123.14 405.256 1120.96 404.536 1119.3 405.051C1117.64 405.566 1117.12 407.122 1118.15 408.525L1130.47 425.328L1136.49 423.463L1124.17 406.66Z" fill="#7D635A"/>
<path d="M203.989 532.718H135.211C135.211 532.718 134.695 532.577 134.317 532.346C103.996 513.801 84.899 495.71 88.8962 487.743C90.2338 485.077 94.0261 483.806 99.7167 483.79C97.2752 478.65 96.7853 474.681 98.6133 472.324C100.483 469.912 104.591 469.43 110.381 470.616C108.897 464.895 109.164 460.768 111.475 458.775C113.409 457.107 116.611 457.074 120.793 458.462C120.758 454.056 121.772 451.019 123.954 449.691C126.67 448.037 130.91 449.207 136.194 452.7C136.837 446.399 138.617 442.376 141.617 441.321C143.903 440.518 146.715 441.502 149.891 444.012C151.398 440.255 153.349 438.003 155.732 437.564C158.492 437.056 161.577 439.025 164.8 443.033C167.243 438.507 169.92 436.012 172.726 436.012C175.023 436.012 177.234 437.684 179.3 440.773C181.799 438.021 184.231 436.692 186.503 437.029C189.505 437.475 191.929 440.787 193.731 446.361C197.957 442.304 201.66 440.535 204.516 441.563C207.643 442.69 209.412 447.049 209.924 453.854C215.614 450.087 220.143 448.813 222.95 450.593C227.587 453.533 226.689 464.276 221.471 479.456C236.475 473.751 247.184 472.507 250.272 477.047C255.286 484.417 238.744 504.87 211.135 527.254C208.991 529.383 206.907 531.05 203.989 532.718Z" fill="#83C996"/>
<path d="M1068.51 532.718H999.731C999.731 532.718 999.216 532.577 998.837 532.346C968.516 513.801 949.419 495.71 953.417 487.743C954.754 485.077 958.546 483.806 964.237 483.79C961.795 478.65 961.306 474.681 963.134 472.324C965.003 469.912 969.111 469.43 974.902 470.616C973.417 464.895 973.685 460.768 975.995 458.775C977.929 457.107 981.131 457.074 985.313 458.462C985.278 454.056 986.293 451.019 988.474 449.691C991.19 448.037 995.431 449.207 1000.71 452.7C1001.36 446.399 1003.14 442.376 1006.14 441.321C1008.42 440.518 1011.24 441.502 1014.41 444.012C1015.92 440.255 1017.87 438.003 1020.25 437.564C1023.01 437.056 1026.1 439.025 1029.32 443.033C1031.76 438.507 1034.44 436.012 1037.25 436.012C1039.54 436.012 1041.75 437.684 1043.82 440.773C1046.32 438.021 1048.75 436.692 1051.02 437.029C1054.03 437.475 1056.45 440.787 1058.25 446.361C1062.48 442.304 1066.18 440.535 1069.04 441.563C1072.16 442.69 1073.93 447.049 1074.44 453.854C1080.13 450.087 1084.66 448.813 1087.47 450.593C1092.11 453.533 1091.21 464.276 1085.99 479.456C1101 473.751 1111.7 472.507 1114.79 477.047C1119.81 484.417 1103.26 504.87 1075.66 527.254C1073.51 529.383 1071.43 531.05 1068.51 532.718Z" fill="#B6EFB9"/>
<path d="M100.25 532.718H146.743C146.743 532.718 147.091 532.623 147.347 532.468C167.843 519.998 180.752 507.833 178.05 502.476C177.146 500.683 174.582 499.829 170.736 499.818C172.386 496.362 172.717 493.693 171.482 492.108C170.218 490.487 167.441 490.163 163.527 490.96C164.53 487.113 164.349 484.337 162.787 482.997C161.48 481.876 159.316 481.854 156.489 482.787C156.513 479.824 155.827 477.782 154.352 476.889C152.516 475.777 149.65 476.564 146.078 478.913C145.644 474.676 144.44 471.971 142.412 471.262C140.867 470.721 138.966 471.383 136.819 473.071C135.8 470.544 134.481 469.03 132.871 468.735C131.005 468.393 128.92 469.717 126.741 472.412C125.089 469.369 123.28 467.691 121.383 467.691C119.83 467.691 118.336 468.816 116.939 470.893C115.25 469.042 113.606 468.148 112.07 468.375C110.041 468.675 108.403 470.902 107.185 474.651C104.328 471.922 101.825 470.733 99.8942 471.424C97.7804 472.182 96.5843 475.113 96.2381 479.688C92.3919 477.156 89.3306 476.299 87.433 477.496C84.2987 479.473 84.9056 486.696 88.4326 496.904C78.2902 493.068 71.0517 492.231 68.9642 495.284C65.575 500.239 76.7569 513.993 95.4194 529.044C96.869 530.476 98.2779 531.597 100.25 532.718Z" fill="#6DAD7F"/>
<path d="M1113.58 532.718H1067.09C1067.09 532.718 1066.74 532.623 1066.48 532.468C1045.99 519.998 1033.08 507.833 1035.78 502.476C1036.68 500.683 1039.25 499.829 1043.09 499.818C1041.44 496.362 1041.11 493.693 1042.35 492.108C1043.61 490.487 1046.39 490.163 1050.3 490.96C1049.3 487.113 1049.48 484.337 1051.04 482.997C1052.35 481.876 1054.51 481.854 1057.34 482.787C1057.32 479.824 1058 477.782 1059.48 476.889C1061.31 475.777 1064.18 476.564 1067.75 478.913C1068.19 474.676 1069.39 471.971 1071.42 471.262C1072.96 470.721 1074.86 471.383 1077.01 473.071C1078.03 470.544 1079.35 469.03 1080.96 468.735C1082.82 468.393 1084.91 469.717 1087.09 472.412C1088.74 469.369 1090.55 467.691 1092.45 467.691C1094 467.691 1095.49 468.816 1096.89 470.893C1098.58 469.042 1100.22 468.148 1101.76 468.375C1103.79 468.675 1105.43 470.902 1106.64 474.651C1109.5 471.922 1112 470.733 1113.94 471.424C1116.05 472.182 1117.25 475.113 1117.59 479.688C1121.44 477.156 1124.5 476.299 1126.4 477.496C1129.53 479.473 1128.92 486.696 1125.4 496.904C1135.54 493.068 1142.78 492.231 1144.87 495.284C1148.25 500.239 1137.07 513.993 1118.41 529.044C1116.96 530.476 1115.55 531.597 1113.58 532.718Z" fill="#6DAD7F"/>
<path d="M103.176 532.718H70.0679C70.0679 532.718 69.8197 532.65 69.6375 532.538C55.0417 523.586 45.849 514.852 47.7731 511.006C48.417 509.719 50.2425 509.105 52.9819 509.098C51.8066 506.616 51.5708 504.7 52.4507 503.562C53.3508 502.398 55.3283 502.165 58.1156 502.738C57.4009 499.976 57.5298 497.983 58.6421 497.021C59.573 496.216 61.1144 496.2 63.1275 496.87C63.1105 494.743 63.599 493.277 64.6489 492.636C65.9564 491.837 67.9978 492.402 70.5411 494.089C70.8506 491.047 71.7074 489.105 73.1515 488.595C74.252 488.207 75.6057 488.682 77.1345 489.894C77.8601 488.081 78.7993 486.993 79.9465 486.781C81.275 486.536 82.7598 487.487 84.3113 489.421C85.4875 487.237 86.776 486.032 88.1269 486.032C89.2327 486.032 90.2967 486.839 91.2916 488.331C92.4941 487.002 93.6649 486.36 94.7587 486.523C96.204 486.738 97.3707 488.337 98.238 491.028C100.273 489.07 102.055 488.216 103.43 488.712C104.935 489.256 105.787 491.361 106.033 494.645C108.772 492.827 110.952 492.212 112.303 493.071C114.536 494.49 114.103 499.677 111.592 507.005C118.814 504.251 123.969 503.651 125.456 505.842C127.869 509.4 119.906 519.274 106.616 530.08C105.584 531.108 104.581 531.913 103.176 532.718Z" fill="#B6EFB9"/>
<path d="M1105.65 532.718H1138.76C1138.76 532.718 1139.01 532.65 1139.19 532.538C1153.79 523.586 1162.98 514.852 1161.05 511.006C1160.41 509.719 1158.59 509.105 1155.85 509.098C1157.02 506.616 1157.26 504.7 1156.38 503.562C1155.48 502.398 1153.5 502.165 1150.71 502.738C1151.43 499.976 1151.3 497.983 1150.19 497.021C1149.25 496.216 1147.71 496.2 1145.7 496.87C1145.72 494.743 1145.23 493.277 1144.18 492.636C1142.87 491.837 1140.83 492.402 1138.29 494.089C1137.98 491.047 1137.12 489.105 1135.68 488.595C1134.58 488.207 1133.22 488.682 1131.69 489.894C1130.97 488.081 1130.03 486.993 1128.88 486.781C1127.55 486.536 1126.07 487.487 1124.52 489.421C1123.34 487.237 1122.05 486.032 1120.7 486.032C1119.59 486.032 1118.53 486.839 1117.54 488.331C1116.33 487.002 1115.16 486.36 1114.07 486.523C1112.62 486.738 1111.46 488.337 1110.59 491.028C1108.56 489.07 1106.77 488.216 1105.4 488.712C1103.89 489.256 1103.04 491.361 1102.79 494.645C1100.06 492.827 1097.88 492.212 1096.52 493.071C1094.29 494.49 1094.72 499.677 1097.24 507.005C1090.01 504.251 1084.86 503.651 1083.37 505.842C1080.96 509.4 1088.92 519.274 1102.21 530.08C1103.24 531.108 1104.25 531.913 1105.65 532.718Z" fill="#82C996"/>
<rect x="189.486" y="312.538" width="262.203" height="207.998" fill="#D2D5E1"/>
<path d="M454.657 255.812C456.499 255.812 457.992 257.305 457.992 259.146V261.301C457.992 263.143 456.499 264.636 454.657 264.636H452.628H188.547H186.518C184.676 264.636 183.183 263.143 183.183 261.301V259.146C183.183 257.305 184.676 255.812 186.518 255.812H454.657Z" fill="#D2D5E1"/>
<path d="M451.689 281.024V292.369H425.472H399.247H373.03H346.804H320.587H294.37H268.145H241.928H215.703H189.486V281.024H451.689Z" fill="#ABAEBE"/>
<path d="M451.689 264.636H192.007V281.024H451.689V264.636Z" fill="#D2D5E1"/>
<path d="M451.689 264.636H192.007V268.418H451.689V264.636Z" fill="#ABAEBE"/>
<path d="M210.09 318.841V323.192C210.09 332.357 202.665 339.792 193.49 339.792C192.096 339.792 190.751 339.624 189.466 339.307C182.239 337.508 176.88 330.973 176.88 323.202V318.851H210.09V318.841Z" fill="url(#paint0_linear)"/>
<path d="M275.641 318.841V323.192C275.641 332.357 268.216 339.792 259.041 339.792C257.647 339.792 256.302 339.624 255.017 339.307C247.789 337.508 242.431 330.973 242.431 323.202V318.851H275.641V318.841Z" fill="url(#paint1_linear)"/>
<path d="M341.192 318.841V323.192C341.192 332.357 333.767 339.792 324.592 339.792C323.198 339.792 321.853 339.624 320.568 339.307C313.34 337.508 307.981 330.973 307.981 323.202V318.851H341.192V318.841Z" fill="url(#paint2_linear)"/>
<path d="M406.743 318.841V323.192C406.743 332.357 399.317 339.792 390.142 339.792C388.748 339.792 387.404 339.624 386.118 339.307C378.891 337.508 373.532 330.973 373.532 323.202V318.851H406.743V318.841Z" fill="url(#paint3_linear)"/>
<path d="M242.866 318.841V323.192C242.866 332.357 235.441 339.792 226.266 339.792C224.872 339.792 223.527 339.624 222.242 339.307C215.014 337.508 209.656 330.973 209.656 323.202V318.851H242.866V318.841Z" fill="url(#paint4_linear)"/>
<path d="M308.416 318.841V323.192C308.416 332.357 300.991 339.792 291.816 339.792C290.422 339.792 289.077 339.624 287.792 339.307C280.565 337.508 275.206 330.973 275.206 323.202V318.851H308.416V318.841Z" fill="url(#paint5_linear)"/>
<path d="M373.967 318.841V323.192C373.967 332.357 366.542 339.792 357.367 339.792C355.973 339.792 354.628 339.624 353.343 339.307C346.116 337.508 340.757 330.973 340.757 323.202V318.851H373.967V318.841Z" fill="url(#paint6_linear)"/>
<path d="M439.518 318.841V323.192C439.518 332.357 432.093 339.792 422.918 339.792C421.523 339.792 420.179 339.624 418.894 339.307C411.666 337.508 406.307 330.973 406.307 323.202V318.851H439.518V318.841Z" fill="url(#paint7_linear)"/>
<path d="M295.499 344.8V352.205H291.089H217.847H213.437V344.8H295.499Z" fill="#EBEDF8"/>
<path d="M295.499 455.248V462.653H213.437V455.248H217.847H291.089H295.499Z" fill="#ABAEBE"/>
<path d="M295.499 451.54V458.945H213.437V451.54H217.847H291.089H295.499Z" fill="#EBEDF8"/>
<path d="M291.09 352.205V451.54H217.847V352.205H291.09ZM283.654 444.115V359.64H225.272V444.115H283.654Z" fill="#ABAEBE"/>
<path d="M225.408 443.97V359.767H283.519V443.97H225.408Z" fill="#F7F9FF" stroke="#EBEDF8" stroke-width="1.26059"/>
<path d="M189.486 291.739H222.765L210.159 319.219H176.88L189.486 291.739Z" fill="url(#paint8_linear)"/>
<path d="M255.037 291.739H288.316L275.71 319.219H242.431L255.037 291.739Z" fill="url(#paint9_linear)"/>
<path d="M320.587 291.739H353.867L341.261 319.219H307.981L320.587 291.739Z" fill="url(#paint10_linear)"/>
<path d="M386.138 291.739H419.418L406.812 319.219H373.532L386.138 291.739Z" fill="url(#paint11_linear)"/>
<path d="M222.261 291.739H255.541L242.935 319.219H209.656L222.261 291.739Z" fill="#ED78A3"/>
<path d="M287.812 291.739H321.092L308.486 319.219H275.206L287.812 291.739Z" fill="#ED78A3"/>
<path d="M353.363 291.739H386.642L374.036 319.219H340.757L353.363 291.739Z" fill="#ED78A3"/>
<path d="M418.913 291.739H452.193L439.587 319.219H406.307L418.913 291.739Z" fill="#ED78A3"/>
<path d="M428.998 516.124H415.132V500.366H428.998V512.566H419.544V505.449H425.216V510.024" stroke="#C4C7D7" stroke-width="1.26059"/>
<path d="M284.03 516.124H270.164V500.366H284.03V512.566H274.576V505.449H280.249V510.024" stroke="#C4C7D7" stroke-width="1.26059"/>
<path d="M227.304 516.124H213.437V500.366H227.304V512.566H217.849V505.449H223.522V510.024" stroke="#C4C7D7" stroke-width="1.26059"/>
<path d="M307.981 500.367H321.848V516.124H307.981V503.925H317.436V511.041H311.763V506.466" stroke="#C4C7D7" stroke-width="1.26059"/>
<path d="M251.255 500.367H265.121V516.124H251.255V503.925H260.709V511.041H255.037V506.466" stroke="#C4C7D7" stroke-width="1.26059"/>
<path d="M194.528 500.367H208.395V516.124H194.528V503.925H203.983V511.041H198.31V506.466" stroke="#C4C7D7" stroke-width="1.26059"/>
<path d="M434.041 500.367H447.907V516.124H434.041V503.925H443.495V511.041H437.822V506.466" stroke="#C4C7D7" stroke-width="1.26059"/>
<path d="M289.072 500.367H302.939V516.124H289.072V503.925H298.527V511.041H292.854V506.466" stroke="#C4C7D7" stroke-width="1.26059"/>
<path d="M232.346 500.367H246.212V516.124H232.346V503.925H241.8V511.041H236.128V506.466" stroke="#C4C7D7" stroke-width="1.26059"/>
<path d="M427.248 344.8V352.205H423.738H324.097H320.587V344.8H427.248Z" fill="#EBEDF8"/>
<path d="M423.739 496.555V520.492H415.305V359.65H332.531V520.492H324.097V496.555V352.205H423.739V496.555Z" fill="#ABAEBE"/>
<path d="M327.625 520.347V356.005H420.222V520.347H327.625Z" fill="#F7F9FF" stroke="#EBEDF8" stroke-width="1.26059"/>
<path d="M365.205 381.871L375.29 368.635L383.483 383.762" stroke="#ABAEBE" stroke-width="0.378177" stroke-linejoin="round"/>
<path d="M390.31 411.334L354.864 407.896C353.854 407.798 353.108 406.899 353.206 405.883L355.512 382.106C355.61 381.096 356.509 380.35 357.525 380.449L392.972 383.886C393.982 383.984 394.728 384.883 394.629 385.899L392.324 409.677C392.225 410.693 391.327 411.432 390.31 411.334Z" fill="#ABAEBE"/>
<path d="M355.271 405.004L357.396 383.093C357.438 382.662 357.823 382.345 358.254 382.387L391.835 385.644C392.266 385.685 392.583 386.071 392.541 386.502L390.416 408.413C390.375 408.844 389.989 409.161 389.558 409.119L355.977 405.862C355.546 405.827 355.229 405.442 355.271 405.004Z" fill="#EBEDF8" stroke="#F0F5F7" stroke-width="0.618715" stroke-miterlimit="10"/>
<rect width="262.203" height="207.998" transform="matrix(-1 0 0 1 1022.74 312.538)" fill="#D2D5E1"/>
<path d="M916.724 344.8V352.205H921.133H994.376H998.786V344.8H916.724Z" fill="#EBEDF8"/>
<path d="M757.565 255.812C755.724 255.812 754.231 257.305 754.231 259.146V261.301C754.231 263.143 755.724 264.636 757.565 264.636H759.595H1023.68H1025.7C1027.55 264.636 1029.04 263.143 1029.04 261.301V259.146C1029.04 257.305 1027.55 255.812 1025.7 255.812H757.565Z" fill="#D2D5E1"/>
<path d="M760.534 281.024V292.369H786.751H812.976H839.193H865.418H891.635H917.852H944.077H970.294H996.52H1022.74V281.024H760.534Z" fill="#ABAEBE"/>
<path d="M760.534 264.636H1020.22V281.024H760.534V264.636Z" fill="#D2D5E1"/>
<path d="M760.534 264.636H1020.22V268.418H760.534V264.636Z" fill="#ABAEBE"/>
<path d="M1002.13 318.841V323.192C1002.13 332.357 1009.56 339.792 1018.73 339.792C1020.13 339.792 1021.47 339.624 1022.76 339.307C1029.98 337.508 1035.34 330.973 1035.34 323.202V318.851H1002.13V318.841Z" fill="url(#paint12_linear)"/>
<path d="M936.581 318.841V323.192C936.581 332.357 944.006 339.792 953.182 339.792C954.576 339.792 955.92 339.624 957.206 339.307C964.433 337.508 969.792 330.973 969.792 323.202V318.851H936.581V318.841Z" fill="url(#paint13_linear)"/>
<path d="M871.031 318.841V323.192C871.031 332.357 878.456 339.792 887.631 339.792C889.025 339.792 890.37 339.624 891.655 339.307C898.882 337.508 904.241 330.973 904.241 323.202V318.851H871.031V318.841Z" fill="url(#paint14_linear)"/>
<path d="M805.48 318.841V323.192C805.48 332.357 812.905 339.792 822.08 339.792C823.474 339.792 824.819 339.624 826.104 339.307C833.332 337.508 838.69 330.973 838.69 323.202V318.851H805.48V318.841Z" fill="url(#paint15_linear)"/>
<path d="M969.357 318.841V323.192C969.357 332.357 976.782 339.792 985.957 339.792C987.351 339.792 988.696 339.624 989.981 339.307C997.209 337.508 1002.57 330.973 1002.57 323.202V318.851H969.357V318.841Z" fill="url(#paint16_linear)"/>
<path d="M903.806 318.841V323.192C903.806 332.357 911.231 339.792 920.406 339.792C921.801 339.792 923.145 339.624 924.43 339.307C931.658 337.508 937.017 330.973 937.017 323.202V318.851H903.806V318.841Z" fill="url(#paint17_linear)"/>
<path d="M838.255 318.841V323.192C838.255 332.357 845.681 339.792 854.856 339.792C856.25 339.792 857.594 339.624 858.88 339.307C866.107 337.508 871.466 330.973 871.466 323.202V318.851H838.255V318.841Z" fill="url(#paint18_linear)"/>
<path d="M772.705 318.841V323.192C772.705 332.357 780.13 339.792 789.305 339.792C790.699 339.792 792.044 339.624 793.329 339.307C800.556 337.508 805.915 330.973 805.915 323.202V318.851H772.705V318.841Z" fill="url(#paint19_linear)"/>
<path d="M916.724 455.248V462.653H998.786V455.248H994.376H921.133H916.724Z" fill="#ABAEBE"/>
<path d="M916.724 451.54V458.945H998.786V451.54H994.376H921.133H916.724Z" fill="#EBEDF8"/>
<path d="M921.133 352.205V451.54H994.376V352.205H921.133ZM928.568 444.115V359.64H986.951V444.115H928.568Z" fill="#ABAEBE"/>
<path d="M986.814 443.97V359.767H928.703V443.97H986.814Z" fill="#F7F9FF" stroke="#EBEDF8" stroke-width="1.26059"/>
<path d="M1022.74 291.739H989.457L1002.06 319.219H1035.34L1022.74 291.739Z" fill="url(#paint20_linear)"/>
<path d="M957.186 291.739H923.906L936.512 319.219H969.792L957.186 291.739Z" fill="url(#paint21_linear)"/>
<path d="M891.635 291.739H858.356L870.962 319.219H904.241L891.635 291.739Z" fill="url(#paint22_linear)"/>
<path d="M826.085 291.739H792.805L805.411 319.219H838.69L826.085 291.739Z" fill="url(#paint23_linear)"/>
<path d="M989.961 291.739H956.682L969.288 319.219H1002.57L989.961 291.739Z" fill="#756CE7"/>
<path d="M924.411 291.739H891.131L903.737 319.219H937.017L924.411 291.739Z" fill="#756CE7"/>
<path d="M858.86 291.739H825.58L838.186 319.219H871.466L858.86 291.739Z" fill="#756CE7"/>
<path d="M793.309 291.739H760.03L772.635 319.219H805.915L793.309 291.739Z" fill="#756CE7"/>
<path d="M783.224 516.124H797.091V500.366H783.224V512.566H792.679V505.449H787.006V510.024" stroke="#C4C7D7" stroke-width="1.26059"/>
<path d="M928.193 516.124H942.059V500.366H928.193V512.566H937.647V505.449H931.974V510.024" stroke="#C4C7D7" stroke-width="1.26059"/>
<path d="M984.919 516.124H998.786V500.366H984.919V512.566H994.374V505.449H988.701V510.024" stroke="#C4C7D7" stroke-width="1.26059"/>
<path d="M904.241 500.367H890.375V516.124H904.241V503.925H894.787V511.041H900.459V506.466" stroke="#C4C7D7" stroke-width="1.26059"/>
<path d="M960.968 500.367H947.101V516.124H960.968V503.925H951.513V511.041H957.186V506.466" stroke="#C4C7D7" stroke-width="1.26059"/>
<path d="M1017.69 500.367H1003.83V516.124H1017.69V503.925H1008.24V511.041H1013.91V506.466" stroke="#C4C7D7" stroke-width="1.26059"/>
<path d="M778.182 500.367H764.315V516.124H778.182V503.925H768.727V511.041H774.4V506.466" stroke="#C4C7D7" stroke-width="1.26059"/>
<path d="M923.15 500.367H909.283V516.124H923.15V503.925H913.696V511.041H919.368V506.466" stroke="#C4C7D7" stroke-width="1.26059"/>
<path d="M979.877 500.367H966.01V516.124H979.877V503.925H970.422V511.041H976.095V506.466" stroke="#C4C7D7" stroke-width="1.26059"/>
<path d="M784.974 344.8V352.205H788.484H888.125H891.635V344.8H784.974Z" fill="#EBEDF8"/>
<path d="M788.484 496.555V520.492H796.918V359.65H879.692V520.492H888.125V496.555V352.205H788.484V496.555Z" fill="#ABAEBE"/>
<path d="M884.597 520.347V356.005H792.001V520.347H884.597Z" fill="#F7F9FF" stroke="#EBEDF8" stroke-width="1.26059"/>
<path opacity="0.4" d="M847.018 381.871L836.933 368.635L828.739 383.762" stroke="#ABAEBE" stroke-width="0.378177" stroke-linejoin="round"/>
<path d="M821.912 411.334L857.359 407.896C858.369 407.798 859.115 406.899 859.017 405.883L856.711 382.106C856.613 381.096 855.714 380.35 854.698 380.449L819.251 383.886C818.241 383.984 817.495 384.883 817.593 385.899L819.899 409.677C819.998 410.693 820.896 411.432 821.912 411.334Z" fill="#ABAEBE"/>
<path d="M856.951 405.004L854.826 383.093C854.785 382.662 854.399 382.345 853.968 382.387L820.387 385.644C819.956 385.685 819.639 386.071 819.681 386.502L821.806 408.413C821.848 408.844 822.233 409.161 822.664 409.119L856.245 405.862C856.677 405.827 856.994 405.442 856.951 405.004Z" fill="#EBEDF8" stroke="#F0F5F7" stroke-width="0.618715" stroke-miterlimit="10"/>
<path d="M1042.09 520.536C1043.93 520.536 1045.43 522.029 1045.43 523.871V533.142H159.232V523.871C159.232 522.029 160.725 520.536 162.566 520.536H271.011H499.037H516.522H688.137H705.622H933.648H1042.09Z" fill="#484A51"/>
<path d="M655.808 496.555V520.492H647.375V359.65H564.601V520.492H556.167V496.555V352.205H655.808V496.555Z" fill="white" stroke="#C6D6F7" stroke-width="1.25051" stroke-linecap="round" stroke-dasharray="5.84 2.5"/>
<path d="M674.128 240.49H664.765V256.772H656.926V240.49L555.226 240.49V256.772H547.387V240.49L538.024 240.49C531.436 240.49 526.048 235.03 526.048 228.352V205.55C526.048 198.873 531.436 193.412 538.024 193.412H674.138C680.726 193.412 686.114 198.873 686.114 205.55V228.352C686.114 235.03 680.716 240.49 674.128 240.49Z" fill="white" stroke="#C6D6F7" stroke-width="1.25051" stroke-linecap="round" stroke-dasharray="5.84 2.5"/>
<path d="M765.791 264.557V255.283H446.184V264.557H452.423L452.423 272.199H451.689V281.024H452.423V291.737H759.552V280.871H759.273V275.433H759.552V264.557H765.791Z" fill="white" stroke="#C6D6F7" stroke-width="1.25051" stroke-linecap="round" stroke-dasharray="5.84 2.5"/>
<path fill-rule="evenodd" clip-rule="evenodd" d="M759.553 496.556V340.203L759.483 339.718C758.198 340.035 756.853 340.203 755.459 340.203C746.284 340.203 738.859 332.768 738.859 323.602C738.859 332.778 731.414 340.203 722.249 340.203C713.074 340.203 705.639 332.768 705.639 323.602C705.639 332.778 698.214 340.203 689.038 340.203C679.863 340.203 672.428 332.768 672.428 323.602C672.428 332.778 664.993 340.203 655.828 340.203C646.653 340.203 639.218 332.768 639.218 323.602C639.218 332.778 631.783 340.203 622.618 340.203C613.433 340.203 606.008 332.768 606.008 323.602C606.008 332.778 598.582 340.203 589.397 340.203C580.222 340.203 572.797 332.768 572.797 323.602C572.797 332.778 565.352 340.203 556.187 340.203C547.012 340.203 539.587 332.768 539.587 323.602C539.587 332.778 532.152 340.203 522.977 340.203C513.801 340.203 506.376 332.768 506.376 323.602C506.376 332.778 498.931 340.203 489.766 340.203C480.591 340.203 473.156 332.768 473.156 323.602C473.156 332.778 465.721 340.203 456.556 340.203C455.162 340.203 453.817 340.035 452.532 339.718L452.423 340.203V496.556L446.184 496.556V520.492H556.167L556.167 496.556V352.205H552.657V344.8H659.318V352.205H655.808V496.556L655.808 520.492H765.791V496.556L759.553 496.556ZM750.051 451.54V458.945H667.979V451.54H672.399V352.205H667.979V344.8H750.051V352.205H745.632V451.54H750.051ZM543.986 451.54V458.945H461.915V451.54H466.334V352.205H461.915V344.8H543.986V352.205H539.567V451.54H543.986Z" fill="white"/>
<path d="M759.553 340.203V496.556H655.808V352.205H659.318V344.8H552.657V352.205H556.167V496.556H452.423V340.203L452.532 339.718C453.817 340.035 455.162 340.203 456.556 340.203C465.721 340.203 473.156 332.778 473.156 323.602C473.156 332.768 480.591 340.203 489.766 340.203C498.931 340.203 506.376 332.778 506.376 323.602C506.376 332.768 513.801 340.203 522.977 340.203C532.152 340.203 539.587 332.778 539.587 323.602C539.587 332.768 547.012 340.203 556.187 340.203C565.352 340.203 572.797 332.778 572.797 323.602C572.797 332.768 580.222 340.203 589.397 340.203C598.582 340.203 606.008 332.778 606.008 323.602C606.008 332.768 613.433 340.203 622.618 340.203C631.783 340.203 639.218 332.778 639.218 323.602C639.218 332.768 646.653 340.203 655.828 340.203C664.993 340.203 672.428 332.778 672.428 323.602C672.428 332.768 679.863 340.203 689.038 340.203C698.214 340.203 705.639 332.778 705.639 323.602C705.639 332.768 713.074 340.203 722.249 340.203C731.414 340.203 738.859 332.778 738.859 323.602C738.859 332.768 746.284 340.203 755.459 340.203C756.853 340.203 758.198 340.035 759.483 339.718L759.553 340.203ZM750.051 458.945V451.54H745.632V352.205H750.051V344.8H667.979V352.205H672.399V451.54H667.979V458.945H750.051ZM543.986 458.945V451.54H539.567V352.205H543.986V344.8H461.915V352.205H466.334V451.54H461.915V458.945H543.986Z" fill="white"/>
<path d="M759.553 496.556V340.203L759.483 339.718C758.198 340.035 756.853 340.203 755.459 340.203C746.284 340.203 738.859 332.768 738.859 323.602C738.859 332.778 731.414 340.203 722.249 340.203C713.074 340.203 705.639 332.768 705.639 323.602C705.639 332.778 698.214 340.203 689.038 340.203C679.863 340.203 672.428 332.768 672.428 323.602C672.428 332.778 664.993 340.203 655.828 340.203C646.653 340.203 639.218 332.768 639.218 323.602C639.218 332.778 631.783 340.203 622.618 340.203C613.433 340.203 606.008 332.768 606.008 323.602C606.008 332.778 598.582 340.203 589.397 340.203C580.222 340.203 572.797 332.768 572.797 323.602C572.797 332.778 565.352 340.203 556.187 340.203C547.012 340.203 539.587 332.768 539.587 323.602C539.587 332.778 532.152 340.203 522.977 340.203C513.801 340.203 506.376 332.768 506.376 323.602C506.376 332.778 498.931 340.203 489.766 340.203C480.591 340.203 473.156 332.768 473.156 323.602C473.156 332.778 465.721 340.203 456.556 340.203C455.162 340.203 453.817 340.035 452.532 339.718L452.423 340.203V496.556M759.553 496.556L765.791 496.556V520.492H655.808L655.808 496.556M759.553 496.556H655.808M452.423 496.556L446.184 496.556V520.492H556.167L556.167 496.556M452.423 496.556H556.167M556.167 496.556V352.205H552.657V344.8H659.318V352.205H655.808V496.556M750.051 458.945V451.54H745.632V352.205H750.051V344.8H667.979V352.205H672.399V451.54H667.979V458.945H750.051ZM543.986 458.945V451.54H539.567V352.205H543.986V344.8H461.915V352.205H466.334V451.54H461.915V458.945H543.986Z" stroke="#C6D6F7" stroke-width="1.25051" stroke-linecap="round" stroke-dasharray="5.84 2.5"/>
<path d="M750.051 352.205V344.8H667.989V352.205H672.399H745.642H750.051Z" fill="white"/>
<path fill-rule="evenodd" clip-rule="evenodd" d="M750.051 462.653V451.54H745.642L745.642 352.205H672.399L672.399 451.54H667.989V462.653H750.051ZM738.217 359.64V444.115H679.834V359.64H738.217Z" fill="white"/>
<path d="M672.399 352.205H667.989V344.8H750.051V352.205H745.642M672.399 352.205H745.642M672.399 352.205L672.399 451.54H667.989V462.653H750.051V451.54H745.642L745.642 352.205M738.217 444.115V359.64H679.834V444.115H738.217Z" stroke="#C6D6F7" stroke-width="1.25051" stroke-linecap="round" stroke-dasharray="5.84 2.5"/>
<path d="M738.711 359.137H679.34V444.6H738.711V359.137Z" fill="white" stroke="#C6D6F7" stroke-width="1.25051" stroke-linecap="round" stroke-dasharray="5.84 2.5"/>
<path d="M738.711 359.137H679.34V444.6H738.711V359.137Z" fill="white" stroke="#C6D6F7" stroke-width="1.25051" stroke-linecap="round" stroke-dasharray="5.84 2.5"/>
<path d="M647.88 359.157H564.107V520.977H647.88V359.157Z" fill="white" stroke="#C6D6F7" stroke-width="1.25051" stroke-linecap="round" stroke-dasharray="5.84 2.5"/>
<path d="M647.88 359.157H564.107V520.977H647.88V359.157Z" fill="white" stroke="#C6D6F7" stroke-width="1.25051" stroke-linecap="round" stroke-dasharray="5.84 2.5"/>
<path d="M627.244 412.125H584.978C583.774 412.125 582.79 411.147 582.79 409.934V381.541C582.79 380.335 583.767 379.35 584.978 379.35H627.244C628.448 379.35 629.432 380.328 629.432 381.541V409.934C629.432 411.147 628.456 412.125 627.244 412.125Z" fill="white" stroke="#C6D6F7" stroke-width="1.25051" stroke-linecap="round" stroke-dasharray="5.84 2.5"/>
<path d="M543.986 352.205V344.8H461.924V352.205H466.334H539.577H543.986Z" fill="white"/>
<path fill-rule="evenodd" clip-rule="evenodd" d="M543.986 462.653V451.54H539.577V352.205H466.334L466.334 451.54H461.924V462.653H543.986ZM532.142 359.64V444.115H473.759V359.64H532.142Z" fill="white"/>
<path d="M466.334 352.205H461.924V344.8H543.986V352.205H539.577M466.334 352.205H539.577M466.334 352.205L466.334 451.54H461.924V462.653H543.986V451.54H539.577V352.205M532.142 444.115V359.64H473.759V444.115H532.142Z" stroke="#C6D6F7" stroke-width="1.25051" stroke-linecap="round" stroke-dasharray="5.84 2.5"/>
<path d="M532.637 359.137H473.265V444.6H532.637V359.137Z" fill="white" stroke="#C6D6F7" stroke-width="1.25051" stroke-linecap="round" stroke-dasharray="5.84 2.5"/>
<path d="M532.637 359.137H473.265V444.6H532.637V359.137Z" fill="white" stroke="#C6D6F7" stroke-width="1.25051" stroke-linecap="round" stroke-dasharray="5.84 2.5"/>
<path d="M452.423 291.737L439.946 319.252H772.04L759.553 291.737H452.423Z" fill="white" stroke="#C6D6F7" stroke-width="1.25051" stroke-linecap="round" stroke-dasharray="5.84 2.5"/>
<path d="M772.04 323.602V319.242H738.829V319.252H473.146V319.262H439.936V323.612C439.936 331.383 445.295 337.919 452.522 339.718C453.807 340.035 455.152 340.203 456.546 340.203C465.719 340.203 473.143 332.771 473.146 323.609C473.15 332.781 480.593 340.203 489.756 340.203C498.922 340.203 506.351 332.783 506.366 323.631C506.382 332.793 513.801 340.203 522.967 340.203C532.005 340.203 539.355 332.987 539.572 324.011C539.789 332.997 547.138 340.203 556.167 340.203C565.342 340.203 572.777 332.768 572.777 323.602C572.777 332.777 580.212 340.203 589.378 340.203C598.563 340.203 605.988 332.768 605.988 323.602C605.988 332.777 613.413 340.203 622.598 340.203C631.636 340.203 638.977 332.987 639.193 324.011C639.41 332.997 646.77 340.203 655.798 340.203C664.965 340.203 672.385 332.781 672.399 323.628C672.412 332.791 679.842 340.203 689.009 340.203C698.184 340.203 705.609 332.768 705.609 323.602C705.609 332.777 713.054 340.203 722.219 340.203C731.39 340.203 738.823 332.774 738.829 323.615C738.841 332.78 746.272 340.193 755.43 340.193C756.824 340.193 758.168 340.025 759.454 339.708C766.681 337.909 772.04 331.383 772.04 323.602Z" fill="white" stroke="#C6D6F7" stroke-width="1.25051" stroke-linecap="round" stroke-dasharray="5.84 2.5"/>
<path d="M582.423 220.857C582.742 220.857 582.99 220.946 583.167 221.123C583.344 221.282 583.433 221.495 583.433 221.761C583.433 222.363 583.096 222.665 582.423 222.665H580.429V225.748C580.429 226.102 580.323 226.377 580.11 226.572C579.915 226.767 579.658 226.864 579.339 226.864C579.02 226.864 578.763 226.767 578.569 226.572C578.374 226.377 578.276 226.102 578.276 225.748V222.665H570.408C570.089 222.665 569.841 222.576 569.664 222.399C569.487 222.222 569.398 222 569.398 221.734C569.398 221.486 569.496 221.211 569.691 220.91L578.382 208.337C578.631 208.018 578.95 207.859 579.339 207.859C579.641 207.859 579.898 207.956 580.11 208.151C580.323 208.346 580.429 208.621 580.429 208.975V220.857H582.423ZM571.87 220.857H578.276V211.633L571.87 220.857ZM605.99 226.944C603.845 226.944 602.215 226.129 601.099 224.499C599.982 222.868 599.424 220.494 599.424 217.375C599.424 214.238 599.982 211.855 601.099 210.225C602.215 208.594 603.845 207.779 605.99 207.779C608.134 207.779 609.764 208.594 610.881 210.225C611.997 211.837 612.555 214.212 612.555 217.348C612.555 220.485 611.997 222.868 610.881 224.499C609.764 226.129 608.134 226.944 605.99 226.944ZM605.99 225.11C607.478 225.11 608.577 224.481 609.286 223.223C609.995 221.965 610.349 220.006 610.349 217.348C610.349 214.673 609.995 212.714 609.286 211.474C608.595 210.234 607.496 209.613 605.99 209.613C604.501 209.613 603.402 210.242 602.694 211.501C601.985 212.741 601.63 214.69 601.63 217.348C601.63 220.006 601.985 221.965 602.694 223.223C603.402 224.481 604.501 225.11 605.99 225.11ZM641.943 220.857C642.262 220.857 642.51 220.946 642.688 221.123C642.865 221.282 642.953 221.495 642.953 221.761C642.953 222.363 642.617 222.665 641.943 222.665H639.95V225.748C639.95 226.102 639.843 226.377 639.631 226.572C639.436 226.767 639.179 226.864 638.86 226.864C638.541 226.864 638.284 226.767 638.089 226.572C637.894 226.377 637.797 226.102 637.797 225.748V222.665H629.929C629.61 222.665 629.362 222.576 629.184 222.399C629.007 222.222 628.919 222 628.919 221.734C628.919 221.486 629.016 221.211 629.211 220.91L637.903 208.337C638.151 208.018 638.47 207.859 638.86 207.859C639.161 207.859 639.418 207.956 639.631 208.151C639.843 208.346 639.95 208.621 639.95 208.975V220.857H641.943ZM631.391 220.857H637.797V211.633L631.391 220.857Z" fill="#C6D6F7"/>
<path d="M556.188 480.054C559.54 479.768 559.787 461.002 559.263 453.023C558.749 445.054 556.851 438.875 552.758 439.211C548.664 439.557 547.824 445.964 548.645 453.913C549.465 461.862 552.837 480.341 556.188 480.054Z" fill="#FFC8AF"/>
<path d="M540.191 514.718C542.959 515.835 553.133 491.533 555.348 486.036C557.572 480.539 559.491 474.567 556.386 473.311C553.282 472.056 550.513 477.691 548.298 483.188C546.074 488.686 537.423 513.601 540.191 514.718Z" fill="#AD8471"/>
<path d="M538.461 517.645C540.27 518.89 544.027 519.701 544.373 519.058C544.719 518.436 544.126 516.646 543.612 515.361L543.602 515.351C543.444 514.965 543.296 514.629 543.187 514.382C543.048 514.065 542.959 513.888 542.959 513.888C542.959 513.888 548.971 490.129 547.863 489.832C546.657 489.506 538.609 513.087 538.609 513.087C538.609 513.087 538.57 513.235 538.5 513.443L538.411 513.749L537.798 515.796C537.719 516.033 537.126 516.755 538.461 517.645Z" fill="#AD8471"/>
<path d="M538.461 517.645C540.27 518.89 544.027 519.701 544.373 519.058C544.719 518.436 544.126 516.646 543.612 515.361L543.602 515.351C543.444 514.965 543.295 514.629 543.187 514.382C543.068 514.619 542.9 514.975 542.762 515.282C542.524 515.825 542.218 515.835 541.11 515.104C540.329 514.589 539.103 514.046 538.411 513.739C538.411 513.739 537.699 515.242 537.502 515.756C537.403 516.003 537.126 516.755 538.461 517.645Z" fill="#2E095C"/>
<path d="M540.104 428.76C542.348 429.69 548.962 417.183 551.375 411.666C553.787 406.149 554.707 401.374 551.968 400.237C549.229 399.1 546.491 403.114 544.276 408.72C542.071 414.316 537.859 427.831 540.104 428.76Z" fill="#AD8471"/>
<path d="M552.747 451.857C554.705 450.957 548.644 436.324 546.786 432.261C544.927 428.197 542.663 424.045 540.468 425.053C538.273 426.061 539.944 430.481 541.803 434.545C543.661 438.618 550.79 452.756 552.747 451.857Z" fill="#AD8471"/>
<path d="M551.136 448.09C548.753 448.97 550.79 452.994 551.531 454.348C552.748 456.543 556.139 457.631 556.999 457.166C557.859 456.711 554.735 451.946 554.844 451.669C554.952 451.392 556.376 454.111 557.137 453.597C557.899 453.083 556.01 449.869 554.774 448.881C553.529 447.902 552.629 447.536 551.136 448.09Z" fill="#AD8471"/>
<path d="M570.495 517.379C570.601 518.207 570.535 519.196 571.237 519.784C571.751 520.212 572.378 520.162 573.038 520.089C573.91 519.988 574.765 519.734 575.609 519.505C575.956 519.415 576.306 519.334 576.638 519.206C576.915 519.1 577.165 518.951 577.435 518.826C577.956 518.584 578.512 518.403 579.029 518.152C579.085 518.13 579.448 518.001 579.466 517.91C579.493 517.815 579.356 517.761 579.292 517.733C578.984 517.618 578.644 517.643 578.329 517.541C577.98 517.431 577.635 517.278 577.286 517.168C576.579 516.952 575.861 516.793 575.125 516.779C574.988 516.779 569.771 492.074 568.571 492.259C567.467 492.417 570.501 517.366 570.495 517.379Z" fill="#AD8471"/>
<path d="M572.195 481.053C575.487 480.331 573.273 461.694 571.72 453.854C570.168 446.023 567.479 440.141 563.465 441.011C559.451 441.891 559.451 448.357 561.309 456.118C563.158 463.899 568.913 481.775 572.195 481.053Z" fill="#FFC8AF"/>
<path d="M572.176 517.815C575.154 517.626 574.329 491.258 573.966 485.34C573.593 479.426 572.754 473.204 569.414 473.415C566.075 473.626 566.003 479.901 566.376 485.815C566.739 491.733 569.195 517.994 572.176 517.815Z" fill="#AD8471"/>
<path d="M570.276 517.442L570.571 520.225C570.601 520.51 570.851 520.712 571.137 520.682L580.103 519.73C580.89 519.646 581.118 518.618 580.439 518.213C579.029 517.388 576.842 516.636 575.219 516.052C574.889 516.416 574.444 517.467 573.809 517.664C573.171 517.841 570.276 517.442 570.276 517.442Z" fill="#2E095C"/>
<path d="M548.565 446.696L569.447 445.826L570.366 410.094L568.923 401.117L559.273 397.567L553.064 398.754C549.534 399.426 547.023 402.58 547.142 406.169L549.406 431.46L548.565 446.696Z" fill="#FFC8AF"/>
<path d="M556.949 393.177V400.355C556.949 400.355 558.462 401.265 562.021 401.265C563.94 401.265 564.365 400.355 564.365 400.355V397.706L556.949 393.177Z" fill="#FFC8AF"/>
<path d="M556.109 387.818C556.129 388.076 556.139 388.323 556.149 388.56C556.149 388.639 556.139 388.728 556.139 388.817C555.961 393.078 558.699 397.646 562.812 398.259C562.812 398.259 562.842 398.269 562.901 398.279C562.931 398.279 562.98 398.289 563.04 398.289C563.92 398.398 567.113 398.655 568.27 397.379C569.634 395.866 570.851 393.098 570.851 391.21C570.851 389.321 570.504 388.866 570.504 388.105C570.504 387.512 570.821 385.643 570.831 384.833C570.86 381.026 568.3 377.259 563.752 377.259C556.959 377.259 555.921 383.241 556.109 387.818Z" fill="#AD8471"/>
<path d="M569.575 400.889C571.029 402.234 572.156 404.587 572.433 409.412C572.512 410.756 573.51 414.454 571.701 418.962C568.517 426.902 570.465 436.759 570.465 436.759L548.823 437.56C548.823 437.56 548.368 423.056 547.626 418.429C545.392 404.468 547.646 399.97 551.532 398.882C557.365 397.231 568.122 399.544 569.575 400.889Z" fill="#F02972"/>
<path d="M594.951 396.956C594.365 394.618 580.498 396.767 574.685 398.111C568.871 399.455 564.526 401.56 565.238 404.403C565.95 407.255 570.776 407.051 576.542 405.499C582.297 403.938 595.529 399.283 594.951 396.956Z" fill="#AD8471"/>
<path d="M571.289 387.026C571.288 387.041 571.287 387.055 571.296 387.071C571.435 388.754 571.387 390.616 570.674 391.988C570.037 393.205 568.917 394 568.765 395.638C568.693 396.377 568.876 397.115 568.813 397.869C568.717 398.869 568.398 399.841 568.046 400.695C567.389 402.275 566.586 404.021 566.877 405.771C567.08 407.006 567.807 407.966 567.812 409.248C567.822 411.128 566.286 412.526 566.256 414.418C566.246 415.452 566.693 416.351 566.712 417.387C566.738 418.816 565.917 420.025 564.919 421.438C560.173 428.16 541.816 430.024 544.523 416.149C544.689 415.124 545.289 414.372 545.691 413.492C546.271 412.243 546.45 410.636 546.188 409.237C546.106 408.795 545.974 408.365 545.972 407.899C545.956 406.806 546.602 405.925 547.207 405.26C547.812 404.595 548.489 403.847 548.62 402.762C548.753 401.619 548.21 400.524 548.324 399.38C548.434 398.323 549.055 397.542 549.63 396.876C550.049 396.39 550.477 395.905 550.896 395.404C551.105 395.168 551.315 394.918 551.441 394.59C551.865 393.493 551.196 392.216 551.276 390.983C551.421 388.777 553.67 388.075 554.134 385.93C554.267 385.312 554.227 384.654 554.274 384.001C554.539 379.704 558.253 376.944 560.806 377.585C561.085 377.659 562.002 376.823 562.343 376.682C562.922 376.453 563.514 376.356 564.11 376.361C566.394 376.404 568.588 378.029 569.838 380.781C570.66 382.635 571.103 384.802 571.289 387.026Z" fill="#2E095C"/>
<path d="M548.605 431.885C548.783 436.423 545.362 442.375 544.828 446.903C543.77 455.96 550.038 472.936 550.038 474.033C550.038 475.131 544.175 489.852 541.901 498.83C541.901 498.83 543.177 500.669 549.317 501.786C549.317 501.786 558.739 481.28 559.609 476.653C560.479 472.026 559.411 432.745 559.411 432.745L548.605 431.885Z" fill="#2E095C"/>
<path d="M558.116 432.636H569.961C569.961 432.636 572.69 443.373 574.44 457.897C576.199 472.421 575.636 476.722 575.319 479.036C574.44 496.585 575.319 505.436 575.319 505.436C575.319 505.436 570.185 507.3 567.663 505.436C567.663 505.436 565.773 491.542 565.142 485.87C564.458 479.715 566.322 476.08 566.322 476.08C566.322 476.08 559.659 461.882 557.997 451.748C556.336 441.614 558.116 432.636 558.116 432.636Z" fill="#2E095C"/>
<path d="M568.881 384.298C567.914 386.196 581.636 393.843 585.589 395.852C589.543 397.861 593.853 399.696 594.937 397.559C596.025 395.432 592.004 393.014 588.05 391.005C584.097 388.996 569.848 382.401 568.881 384.298Z" fill="#AD8471"/>
<path d="M562.776 382.074C562.406 382.828 566.305 384.539 567.384 385.162C567.549 385.256 567.65 385.322 567.656 385.363C567.661 385.403 567.615 385.421 567.531 385.423C567.032 385.452 565.027 384.965 564.757 385.701C564.453 386.514 567.453 387.892 569.103 388.106C569.195 388.123 569.299 388.145 569.384 388.143C570.952 388.23 571.884 388.007 572.776 386.693C574.189 384.606 570.231 382.535 568.849 381.873C567.689 381.314 566.224 381.165 565.005 381.258C563.893 381.351 562.984 381.661 562.776 382.074Z" fill="#AD8471"/>
<defs>
<linearGradient id="paint0_linear" x1="193.485" y1="318.841" x2="193.485" y2="339.792" gradientUnits="userSpaceOnUse">
<stop stop-color="white"/>
<stop offset="1" stop-color="#F4F4F4"/>
</linearGradient>
<linearGradient id="paint1_linear" x1="259.036" y1="318.841" x2="259.036" y2="339.792" gradientUnits="userSpaceOnUse">
<stop stop-color="white"/>
<stop offset="1" stop-color="#F4F4F4"/>
</linearGradient>
<linearGradient id="paint2_linear" x1="324.587" y1="318.841" x2="324.587" y2="339.792" gradientUnits="userSpaceOnUse">
<stop stop-color="white"/>
<stop offset="1" stop-color="#F4F4F4"/>
</linearGradient>
<linearGradient id="paint3_linear" x1="390.137" y1="318.841" x2="390.137" y2="339.792" gradientUnits="userSpaceOnUse">
<stop stop-color="white"/>
<stop offset="1" stop-color="#F4F4F4"/>
</linearGradient>
<linearGradient id="paint4_linear" x1="226.261" y1="318.841" x2="226.261" y2="339.792" gradientUnits="userSpaceOnUse">
<stop stop-color="#FE92BA"/>
<stop offset="1" stop-color="#ED78A3"/>
</linearGradient>
<linearGradient id="paint5_linear" x1="291.811" y1="318.841" x2="291.811" y2="339.792" gradientUnits="userSpaceOnUse">
<stop stop-color="#FE92BA"/>
<stop offset="1" stop-color="#ED78A3"/>
</linearGradient>
<linearGradient id="paint6_linear" x1="357.362" y1="318.841" x2="357.362" y2="339.792" gradientUnits="userSpaceOnUse">
<stop stop-color="#FE92BA"/>
<stop offset="1" stop-color="#ED78A3"/>
</linearGradient>
<linearGradient id="paint7_linear" x1="422.913" y1="318.841" x2="422.913" y2="339.792" gradientUnits="userSpaceOnUse">
<stop stop-color="#FE92BA"/>
<stop offset="1" stop-color="#ED78A3"/>
</linearGradient>
<linearGradient id="paint8_linear" x1="199.823" y1="291.739" x2="199.823" y2="319.219" gradientUnits="userSpaceOnUse">
<stop stop-color="white"/>
<stop offset="1" stop-color="#F4F4F4"/>
</linearGradient>
<linearGradient id="paint9_linear" x1="265.373" y1="291.739" x2="265.373" y2="319.219" gradientUnits="userSpaceOnUse">
<stop stop-color="white"/>
<stop offset="1" stop-color="#F4F4F4"/>
</linearGradient>
<linearGradient id="paint10_linear" x1="330.924" y1="291.739" x2="330.924" y2="319.219" gradientUnits="userSpaceOnUse">
<stop stop-color="white"/>
<stop offset="1" stop-color="#F4F4F4"/>
</linearGradient>
<linearGradient id="paint11_linear" x1="396.475" y1="291.739" x2="396.475" y2="319.219" gradientUnits="userSpaceOnUse">
<stop stop-color="white"/>
<stop offset="1" stop-color="#F4F4F4"/>
</linearGradient>
<linearGradient id="paint12_linear" x1="1018.74" y1="318.841" x2="1018.74" y2="339.792" gradientUnits="userSpaceOnUse">
<stop stop-color="white"/>
<stop offset="1" stop-color="#F4F4F4"/>
</linearGradient>
<linearGradient id="paint13_linear" x1="953.187" y1="318.841" x2="953.187" y2="339.792" gradientUnits="userSpaceOnUse">
<stop stop-color="white"/>
<stop offset="1" stop-color="#F4F4F4"/>
</linearGradient>
<linearGradient id="paint14_linear" x1="887.636" y1="318.841" x2="887.636" y2="339.792" gradientUnits="userSpaceOnUse">
<stop stop-color="white"/>
<stop offset="1" stop-color="#F4F4F4"/>
</linearGradient>
<linearGradient id="paint15_linear" x1="822.085" y1="318.841" x2="822.085" y2="339.792" gradientUnits="userSpaceOnUse">
<stop stop-color="white"/>
<stop offset="1" stop-color="#F4F4F4"/>
</linearGradient>
<linearGradient id="paint16_linear" x1="985.962" y1="318.841" x2="985.962" y2="339.792" gradientUnits="userSpaceOnUse">
<stop stop-color="#8F87F5"/>
<stop offset="1" stop-color="#756CE7"/>
</linearGradient>
<linearGradient id="paint17_linear" x1="920.411" y1="318.841" x2="920.411" y2="339.792" gradientUnits="userSpaceOnUse">
<stop stop-color="#8F87F5"/>
<stop offset="1" stop-color="#756CE7"/>
</linearGradient>
<linearGradient id="paint18_linear" x1="854.861" y1="318.841" x2="854.861" y2="339.792" gradientUnits="userSpaceOnUse">
<stop stop-color="#8F87F5"/>
<stop offset="1" stop-color="#756CE7"/>
</linearGradient>
<linearGradient id="paint19_linear" x1="789.31" y1="318.841" x2="789.31" y2="339.792" gradientUnits="userSpaceOnUse">
<stop stop-color="#8F87F5"/>
<stop offset="1" stop-color="#756CE7"/>
</linearGradient>
<linearGradient id="paint20_linear" x1="1012.4" y1="291.739" x2="1012.4" y2="319.219" gradientUnits="userSpaceOnUse">
<stop stop-color="white"/>
<stop offset="1" stop-color="#F4F4F4"/>
</linearGradient>
<linearGradient id="paint21_linear" x1="946.849" y1="291.739" x2="946.849" y2="319.219" gradientUnits="userSpaceOnUse">
<stop stop-color="white"/>
<stop offset="1" stop-color="#F4F4F4"/>
</linearGradient>
<linearGradient id="paint22_linear" x1="881.298" y1="291.739" x2="881.298" y2="319.219" gradientUnits="userSpaceOnUse">
<stop stop-color="white"/>
<stop offset="1" stop-color="#F4F4F4"/>
</linearGradient>
<linearGradient id="paint23_linear" x1="815.748" y1="291.739" x2="815.748" y2="319.219" gradientUnits="userSpaceOnUse">
<stop stop-color="white"/>
<stop offset="1" stop-color="#F4F4F4"/>
</linearGradient>
</defs>
</svg>
