<svg width="163" height="171" viewBox="0 0 163 171" fill="none" xmlns="http://www.w3.org/2000/svg">
<path d="M87.9275 2.89512C87.9841 2.83856 88.0407 2.79613 88.0972 2.73956L85.6507 0.292969L83.2111 2.73248C80.1635 5.78011 75.4613 6.15488 72.0035 3.85679C71.5796 3.57494 71.0713 3.44842 70.5648 3.49869C70.0583 3.54895 69.5848 3.77291 69.2246 4.13256L4.63744 68.7197C3.89498 69.4621 3.78184 70.6218 4.36167 71.4986C5.49646 73.2095 6.00448 75.2603 5.79956 77.3031C5.59464 79.3459 4.68939 81.2548 3.23737 82.7063L0.797852 85.1458L3.24444 87.5924C3.29394 87.5287 3.34344 87.4792 3.4 87.4227C3.91948 86.9032 4.62404 86.6113 5.35869 86.6113C6.09334 86.6113 6.7979 86.9032 7.31738 87.4227C7.83685 87.9421 8.12869 88.6467 8.12869 89.3813C8.12869 90.116 7.83685 90.8206 7.31738 91.34C7.26081 91.3966 7.20424 91.439 7.14767 91.4956L8.79523 93.1432C8.84473 93.0795 8.89422 93.03 8.95079 92.9734C9.47027 92.454 10.1748 92.1621 10.9095 92.1621C11.6441 92.1621 12.3487 92.454 12.8682 92.9734C13.3876 93.4929 13.6795 94.1975 13.6795 94.9321C13.6795 95.6668 13.3876 96.3713 12.8682 96.8908C12.8116 96.9474 12.755 96.9898 12.6985 97.0464L14.346 98.6939C14.3955 98.6303 14.445 98.5808 14.5016 98.5242C15.5905 97.4494 17.3441 97.4494 18.426 98.5313C18.6832 98.7885 18.8873 99.0939 19.0265 99.43C19.1657 99.766 19.2373 100.126 19.2373 100.49C19.2373 100.854 19.1657 101.214 19.0265 101.55C18.8873 101.886 18.6832 102.191 18.426 102.449C18.3695 102.505 18.3129 102.548 18.2563 102.604L19.9039 104.252C19.9534 104.188 20.0029 104.139 20.0594 104.082C21.1413 103 22.902 103.007 23.9839 104.089C25.0658 105.171 25.0658 106.925 23.9839 108.007C23.9273 108.063 23.8707 108.106 23.8142 108.162L25.4617 109.81C25.5112 109.746 25.5607 109.697 25.6173 109.64C26.1368 109.12 26.8413 108.829 27.576 108.829C28.3106 108.829 29.0152 109.12 29.5347 109.64C30.0541 110.159 30.346 110.864 30.346 111.599C30.346 112.333 30.0541 113.038 29.5347 113.557C29.4781 113.614 29.4215 113.656 29.365 113.713L31.0125 115.36C31.062 115.297 31.1115 115.247 31.1681 115.191C31.6876 114.671 32.3921 114.379 33.1268 114.379C33.8614 114.379 34.566 114.671 35.0855 115.191C35.6049 115.71 35.8968 116.415 35.8968 117.149C35.8968 117.884 35.6049 118.589 35.0855 119.108C35.0289 119.165 34.9723 119.207 34.9158 119.264L37.3623 121.71L39.8019 119.271C42.8495 116.223 47.5518 115.848 51.0095 118.146C51.4334 118.428 51.9417 118.555 52.4482 118.505C52.9547 118.454 53.4282 118.23 53.7884 117.871L118.376 53.2836C119.118 52.5411 119.231 51.3814 118.651 50.5046C117.517 48.7937 117.009 46.7429 117.213 44.7002C117.418 42.6574 118.324 40.7484 119.776 39.297L122.215 36.8575L119.776 34.4179C119.726 34.4816 119.677 34.5311 119.62 34.5877C119.101 35.1071 118.396 35.399 117.661 35.399C116.927 35.399 116.222 35.1071 115.703 34.5876C115.183 34.0682 114.891 33.3636 114.891 32.629C114.891 31.8943 115.183 31.1898 115.703 30.6703C115.759 30.6137 115.816 30.5713 115.872 30.5147L114.225 28.8672C114.175 28.9308 114.126 28.9803 114.069 29.0369C113.55 29.5563 112.845 29.8482 112.111 29.8482C111.376 29.8482 110.671 29.5563 110.152 29.0369C109.632 28.5174 109.341 27.8128 109.341 27.0782C109.341 26.3435 109.632 25.639 110.152 25.1195C110.208 25.0629 110.265 25.0205 110.322 24.9639L108.674 23.3164C108.625 23.38 108.575 23.4295 108.518 23.4861C107.999 24.0055 107.294 24.2974 106.56 24.2974C105.825 24.2974 105.121 24.0055 104.601 23.4861C104.082 22.9666 103.79 22.262 103.79 21.5274C103.79 20.7927 104.082 20.0882 104.601 19.5687C104.658 19.5121 104.714 19.4697 104.771 19.4131L103.123 17.7656C103.074 17.8292 103.024 17.8787 102.968 17.9353C102.448 18.4548 101.744 18.7466 101.009 18.7466C100.274 18.7466 99.5698 18.4548 99.0503 17.9353C98.5309 17.4158 98.239 16.7112 98.239 15.9766C98.239 15.2419 98.5309 14.5374 99.0503 14.0179C99.1069 13.9613 99.1635 13.9189 99.22 13.8623L97.5725 12.2148C97.523 12.2784 97.4735 12.3279 97.4169 12.3845C96.8974 12.904 96.1929 13.1958 95.4582 13.1958C94.7236 13.1958 94.019 12.904 93.4995 12.3845C92.9801 11.865 92.6882 11.1605 92.6882 10.4258C92.6882 9.69116 92.9801 8.9866 93.4995 8.46713C93.5561 8.41056 93.6127 8.36813 93.6693 8.31156L92.0217 6.664C91.9722 6.72764 91.9227 6.77714 91.8661 6.83371C91.3466 7.35318 90.6421 7.64502 89.9074 7.64502C89.1728 7.64502 88.4682 7.35318 87.9488 6.83371C86.8457 5.73062 86.8457 3.977 87.9275 2.89512Z" fill="#FF4588"/>
<path d="M108.087 50.4483L50.9527 107.582C48.9586 109.577 45.7201 109.577 43.726 107.582L14.9327 78.7891C12.9386 76.7951 12.9386 73.5565 14.9327 71.5625L72.0669 14.4282C74.0609 12.4342 77.2995 12.4342 79.2935 14.4282L108.087 43.2216C110.081 45.2157 110.081 48.4542 108.087 50.4483Z" stroke="#FF72A5" stroke-width="3" stroke-miterlimit="10"/>
<path d="M23.6089 62.8862L63.3978 23.0973L99.4249 59.1244L59.636 98.9133L23.6089 62.8862Z" stroke="#FF72A5" stroke-width="2" stroke-miterlimit="10"/>
<g opacity="0.8">
<path d="M43.8105 66.4006L66.9047 43.3066" stroke="#FF72A5" stroke-width="9" stroke-miterlimit="10" stroke-linecap="round"/>
<path d="M59.48 75.3384L75.8424 58.9761" stroke="#FF72A5" stroke-width="9" stroke-miterlimit="10" stroke-linecap="round"/>
</g>
<path d="M75.4609 23.2954L99.2197 47.0542" stroke="#FF72A5" stroke-width="6" stroke-miterlimit="10"/>
<path d="M23.7998 74.9565L47.5586 98.7153" stroke="#FF72A5" stroke-width="6" stroke-miterlimit="10"/>
<path d="M158.77 84.0856C158.85 84.0856 158.92 84.0956 159 84.0956V80.6356H155.55C151.24 80.6356 147.65 77.5756 146.83 73.5056C146.73 73.0066 146.46 72.5577 146.066 72.2351C145.672 71.9125 145.179 71.736 144.67 71.7356H53.33C52.28 71.7356 51.38 72.4756 51.17 73.5056C50.7626 75.5178 49.6717 77.3271 48.0824 78.6267C46.493 79.9263 44.503 80.636 42.45 80.6356H39V84.0956C39.08 84.0856 39.15 84.0856 39.23 84.0856C39.9646 84.0856 40.6692 84.3774 41.1887 84.8969C41.7082 85.4164 42 86.1209 42 86.8556C42 87.5902 41.7082 88.2948 41.1887 88.8143C40.6692 89.3338 39.9646 89.6256 39.23 89.6256C39.15 89.6256 39.08 89.6156 39 89.6156V91.9456C39.08 91.9356 39.15 91.9356 39.23 91.9356C39.9646 91.9356 40.6692 92.2274 41.1887 92.7469C41.7082 93.2664 42 93.9709 42 94.7056C42 95.4402 41.7082 96.1448 41.1887 96.6643C40.6692 97.1838 39.9646 97.4756 39.23 97.4756C39.15 97.4756 39.08 97.4656 39 97.4656V99.7956C39.08 99.7856 39.15 99.7856 39.23 99.7856C40.76 99.7956 42 101.036 42 102.566C42 102.929 41.9284 103.29 41.7891 103.626C41.6499 103.962 41.4459 104.267 41.1887 104.524C40.9315 104.782 40.6261 104.986 40.29 105.125C39.954 105.264 39.5938 105.336 39.23 105.336C39.15 105.336 39.08 105.326 39 105.326V107.656C39.08 107.646 39.15 107.646 39.23 107.646C40.76 107.646 42 108.896 42 110.426C42 111.956 40.76 113.196 39.23 113.196C39.15 113.196 39.08 113.186 39 113.186V115.516C39.08 115.506 39.15 115.506 39.23 115.506C39.9646 115.506 40.6692 115.797 41.1887 116.317C41.7082 116.836 42 117.541 42 118.276C42 119.01 41.7082 119.715 41.1887 120.234C40.6692 120.754 39.9646 121.046 39.23 121.046C39.15 121.046 39.08 121.036 39 121.036V123.366C39.08 123.356 39.15 123.356 39.23 123.356C39.9646 123.356 40.6692 123.647 41.1887 124.167C41.7082 124.686 42 125.391 42 126.126C42 126.86 41.7082 127.565 41.1887 128.084C40.6692 128.604 39.9646 128.896 39.23 128.896C39.15 128.896 39.08 128.886 39 128.886V132.346H42.45C46.76 132.346 50.35 135.406 51.17 139.476C51.2704 139.975 51.5404 140.423 51.9341 140.746C52.3278 141.069 52.821 141.245 53.33 141.246H144.67C145.72 141.246 146.62 140.506 146.83 139.476C147.237 137.463 148.328 135.654 149.918 134.354C151.507 133.055 153.497 132.345 155.55 132.346H159V128.896C158.92 128.906 158.85 128.906 158.77 128.906C158.035 128.906 157.331 128.614 156.811 128.094C156.292 127.575 156 126.87 156 126.136C156 125.401 156.292 124.696 156.811 124.177C157.331 123.657 158.035 123.366 158.77 123.366C158.85 123.366 158.92 123.376 159 123.376V121.046C158.92 121.056 158.85 121.056 158.77 121.056C158.035 121.056 157.331 120.764 156.811 120.244C156.292 119.725 156 119.02 156 118.286C156 117.551 156.292 116.846 156.811 116.327C157.331 115.807 158.035 115.516 158.77 115.516C158.85 115.516 158.92 115.526 159 115.526V113.196C158.92 113.206 158.85 113.206 158.77 113.206C158.035 113.206 157.331 112.914 156.811 112.394C156.292 111.875 156 111.17 156 110.436C156 109.701 156.292 108.996 156.811 108.477C157.331 107.957 158.035 107.666 158.77 107.666C158.85 107.666 158.92 107.676 159 107.676V105.346C158.92 105.356 158.85 105.356 158.77 105.356C158.035 105.356 157.331 105.064 156.811 104.544C156.292 104.025 156 103.32 156 102.586C156 101.851 156.292 101.146 156.811 100.627C157.331 100.107 158.035 99.8156 158.77 99.8156C158.85 99.8156 158.92 99.8256 159 99.8256V97.4956C158.92 97.5056 158.85 97.5056 158.77 97.5056C158.035 97.5056 157.331 97.2138 156.811 96.6943C156.292 96.1748 156 95.4702 156 94.7356C156 94.0009 156.292 93.2964 156.811 92.7769C157.331 92.2574 158.035 91.9656 158.77 91.9656C158.85 91.9656 158.92 91.9756 159 91.9756V89.6456C158.92 89.6556 158.85 89.6556 158.77 89.6556C158.035 89.6556 157.331 89.3638 156.811 88.8443C156.292 88.3248 156 87.6202 156 86.8856C156 85.3256 157.24 84.0856 158.77 84.0856Z" fill="#B7FF6A"/>
<path d="M139.4 131.966H58.6002C55.7802 131.966 53.4902 129.676 53.4902 126.856V86.1356C53.4902 83.3156 55.7802 81.0256 58.6002 81.0256H139.4C142.22 81.0256 144.51 83.3156 144.51 86.1356V126.856C144.51 129.676 142.22 131.966 139.4 131.966Z" stroke="#9CDE55" stroke-width="3" stroke-miterlimit="10"/>
<path d="M70.8701 81.0256H127.14V131.976H70.8701V81.0256Z" stroke="#9CDE55" stroke-width="2" stroke-miterlimit="10"/>
<g opacity="0.8">
<path d="M82.6699 97.7957H115.33" stroke="#9CDE55" stroke-width="9" stroke-miterlimit="10" stroke-linecap="round"/>
<path d="M87.4297 115.196H110.57" stroke="#9CDE55" stroke-width="9" stroke-miterlimit="10" stroke-linecap="round"/>
</g>
<path d="M135.53 89.6956V123.296" stroke="#9CDE55" stroke-width="6" stroke-miterlimit="10"/>
<path d="M62.4702 89.6956V123.296" stroke="#9CDE55" stroke-width="6" stroke-miterlimit="10"/>
</svg>
