<svg width="128" height="129" viewBox="0 0 128 129" fill="none" xmlns="http://www.w3.org/2000/svg">
<path d="M36.4597 37.3055L22.3197 28.2455C22.0347 28.0708 21.7929 27.8338 21.6126 27.5522C21.4323 27.2707 21.3181 26.9519 21.2786 26.6199C21.2392 26.2879 21.2755 25.9512 21.3848 25.6353C21.4941 25.3193 21.6736 25.0322 21.9097 24.7955L27.2197 19.4855C28.2397 18.4655 29.9597 18.6855 30.6897 19.9355L39.5297 34.3055C40.6897 36.2855 38.4197 38.5055 36.4597 37.3055Z" fill="#FFC107"/>
<path d="M24.0998 80.8856L7.67984 81.2156C7.34596 81.2228 7.01806 81.3056 6.72078 81.4578C6.42349 81.6099 6.16455 81.8274 5.96341 82.094C5.76227 82.3606 5.62415 82.6693 5.55945 82.9969C5.49475 83.3246 5.50514 83.6626 5.58984 83.9856L7.49984 91.2456C7.86984 92.6456 9.45984 93.3156 10.7198 92.6156L25.2298 85.0256C27.2298 83.8956 26.3998 80.8356 24.0998 80.8856Z" fill="#FFC107"/>
<path d="M62.2399 108.775L58.6399 124.765C58.3099 126.155 59.3599 127.495 60.7899 127.495H68.2999C69.7499 127.495 70.7999 126.125 70.4399 124.725L66.5299 108.735C65.9499 106.505 62.7799 106.535 62.2399 108.775Z" fill="#FFC107"/>
<path d="M91.5399 37.3055L105.68 28.2455C106.9 27.4955 107.1 25.8055 106.09 24.7955L100.78 19.4855C100.541 19.2471 100.25 19.0667 99.9299 18.9582C99.61 18.8496 99.2695 18.8157 98.9345 18.8592C98.5995 18.9026 98.2789 19.0222 97.9973 19.2088C97.7157 19.3954 97.4806 19.644 97.3099 19.9355L88.4699 34.3055C87.3099 36.2855 89.5799 38.5055 91.5399 37.3055Z" fill="#FFC107"/>
<path d="M103.9 80.8856L120.32 81.2156C120.654 81.2228 120.982 81.3056 121.279 81.4578C121.576 81.6099 121.835 81.8274 122.036 82.094C122.237 82.3606 122.375 82.6693 122.44 82.9969C122.505 83.3246 122.494 83.6626 122.41 83.9856L120.5 91.2456C120.413 91.5719 120.253 91.8741 120.033 92.1292C119.812 92.3844 119.535 92.5857 119.225 92.7178C118.914 92.8499 118.577 92.9094 118.24 92.8917C117.903 92.874 117.575 92.7796 117.28 92.6156L102.77 85.0256C100.77 83.8956 101.6 80.8356 103.9 80.8856Z" fill="#FFC107"/>
<path d="M68.0499 7.72561L81.5098 38.4256C82.0161 39.581 82.8233 40.5793 83.847 41.3163C84.8707 42.0533 86.0735 42.502 87.3298 42.6156L120.12 45.5556C123.83 46.0956 125.31 50.6456 122.62 53.2656L97.9198 74.0156C95.9198 75.6956 95.0098 78.3356 95.5598 80.8856L102.74 114.496C103.37 118.186 99.4998 121.006 96.1798 119.256L67.5598 102.496C66.4804 101.862 65.2515 101.528 63.9999 101.528C62.7482 101.528 61.5193 101.862 60.4398 102.496L31.8198 119.246C28.5098 120.986 24.6299 118.176 25.2598 114.486L32.4398 80.8756C32.9798 78.3256 32.0798 75.6856 30.0798 74.0056L5.36985 53.2756C2.68985 50.6656 4.16985 46.1056 7.86985 45.5656L40.6599 42.6256C41.9162 42.512 43.119 42.0633 44.1427 41.3263C45.1664 40.5893 45.9736 39.591 46.4799 38.4356L59.9398 7.73561C61.6098 4.37561 66.3899 4.37561 68.0499 7.72561Z" fill="#FDD835"/>
<path d="M67.0699 40.2656L64.7899 17.6456C64.6999 16.3856 64.4399 14.2256 66.4599 14.2256C68.0599 14.2256 68.9299 17.5556 68.9299 17.5556L75.7699 35.7156C78.3499 42.6256 77.2899 44.9956 74.7999 46.3956C71.9399 47.9956 67.7199 46.7456 67.0699 40.2656Z" fill="#FFFF8D"/>
<path d="M95.28 72.0056L114.9 56.6956C115.87 55.8856 117.62 54.5956 116.22 53.1256C115.11 51.9656 112.11 53.6356 112.11 53.6356L94.94 60.3456C89.82 62.1156 86.42 64.7356 86.12 68.0356C85.73 72.4356 89.68 75.8256 95.28 72.0056Z" fill="#F4B400"/>
</svg>
