<svg width="190" height="160" viewBox="0 0 190 160" fill="none" xmlns="http://www.w3.org/2000/svg">
<g filter="url(#filter0_d)">
<rect x="4" y="2.49561" width="138.447" height="121" rx="10" fill="#290E43"/>
<rect x="4.5" y="2.99561" width="137.447" height="120" rx="9.5" stroke="#936DB9"/>
</g>
<rect x="19.5688" y="19.458" width="69.6364" height="22.8776" rx="1.66324" stroke="#52386B"/>
<rect opacity="0.3" x="23.0688" y="22.958" width="40.6364" height="15.8776" rx="2.16324" fill="#936DB9"/>
<rect opacity="0.3" x="23" y="53.4956" width="73" height="16" rx="2.16324" fill="#936DB9"/>
<rect opacity="0.3" x="23" y="84.4956" width="73" height="16" rx="2.16324" fill="#936DB9"/>
<rect x="19.5688" y="50.3354" width="91.2982" height="22.8776" rx="1.66324" stroke="#52386B"/>
<rect x="19.5688" y="81.2129" width="80.9382" height="22.8776" rx="1.66324" stroke="#52386B"/>
<path d="M181.255 139.958H102.752C99.6023 139.958 97.0298 137.386 97.0298 134.236V88.7557C97.0298 85.6057 99.6023 83.0332 102.752 83.0332H181.255C184.405 83.0332 186.977 85.6057 186.977 88.7557V134.236C186.977 137.386 184.405 139.958 181.255 139.958Z" fill="#3CF3FF"/>
<path opacity="0.9" d="M97.0225 92.6555H186.985V104.708H97.0225V92.6555Z" fill="#42505E"/>
<path opacity="0.67" d="M179.65 119.101H104.403C103.668 119.101 103.06 118.501 103.06 117.758V111.451C103.06 110.716 103.66 110.108 104.403 110.108H179.65C180.385 110.108 180.993 110.708 180.993 111.451V117.758C180.985 118.493 180.385 119.101 179.65 119.101Z" fill="white"/>
<path d="M111.985 116.363C112.405 115.553 112.517 114.608 112.892 113.776C113.267 112.943 114.085 112.171 114.985 112.313C115.817 112.448 116.335 113.281 116.642 114.061C117.07 115.148 117.302 116.311 117.332 117.481C117.34 117.721 117.325 117.983 117.167 118.171C116.89 118.486 116.32 118.328 116.102 117.968C115.885 117.608 115.937 117.151 116.035 116.738C116.5 114.826 118 113.198 119.867 112.583C120.062 112.516 120.265 112.463 120.467 112.501C120.902 112.583 121.142 113.033 121.337 113.423C121.795 114.316 122.35 115.163 122.987 115.936C123.242 116.251 123.535 116.558 123.925 116.678C125.207 117.053 125.95 115.163 127.187 114.661C128.672 114.061 130.12 115.628 131.695 115.921C133.997 116.348 135.22 114.556 137.237 114.098C137.507 114.038 137.8 114.001 138.07 114.076C138.565 114.218 138.872 114.691 139.165 115.118C139.847 116.123 140.822 117.113 142.037 117.121C142.81 117.128 143.522 116.731 144.227 116.393C146.725 115.201 149.672 114.706 152.282 115.621" stroke="#42505E" stroke-width="2" stroke-miterlimit="10" stroke-linecap="round" stroke-linejoin="round"/>
<defs>
<filter id="filter0_d" x="0" y="0.495605" width="146.447" height="129" filterUnits="userSpaceOnUse" color-interpolation-filters="sRGB">
<feFlood flood-opacity="0" result="BackgroundImageFix"/>
<feColorMatrix in="SourceAlpha" type="matrix" values="0 0 0 0 0 0 0 0 0 0 0 0 0 0 0 0 0 0 127 0" result="hardAlpha"/>
<feOffset dy="2"/>
<feGaussianBlur stdDeviation="2"/>
<feComposite in2="hardAlpha" operator="out"/>
<feColorMatrix type="matrix" values="0 0 0 0 1 0 0 0 0 0.760784 0 0 0 0 0.141176 0 0 0 1 0"/>
<feBlend mode="normal" in2="BackgroundImageFix" result="effect1_dropShadow"/>
<feBlend mode="normal" in="SourceGraphic" in2="effect1_dropShadow" result="shape"/>
</filter>
</defs>
</svg>
